<svg width="284" height="78" viewBox="0 0 284 78" fill="none" xmlns="http://www.w3.org/2000/svg">
<path d="M44.756 11.3573C44.756 15.9137 42.8742 19.5769 39.0964 22.3756C35.3281 25.16 30.0506 26.5546 23.2687 26.5546H19.5243L16.6492 39.0152H6.73895L15.565 0.78804H29.296C31.7939 0.78804 33.9765 0.964752 35.8344 1.30385C37.6923 1.64772 39.297 2.23517 40.6438 3.07575C41.9859 3.90677 43.0032 5.00526 43.7053 6.34731C44.4073 7.6846 44.756 9.36098 44.756 11.3573ZM34.2392 12.3125C34.2392 10.832 33.6947 9.72873 32.6201 9.0171C31.5408 8.3007 29.936 7.93773 27.8059 7.93773H23.818L21.1816 19.3524H24.7302C27.7295 19.3524 30.0698 18.7363 31.7318 17.5184C33.4082 16.3005 34.2392 14.5668 34.2392 12.3125Z" fill="#E31E24"/>
<path d="M81.8179 0.78804L80.1463 8.0428H62.2744L60.6984 14.882H77.295L75.6043 22.1368H59.022L56.8059 31.7605H74.6156L72.9775 39.0152H45.2719L54.0979 0.78804H81.8179Z" fill="#E31E24"/>
<path d="M113.956 25.9672C113.956 28.0447 113.488 29.9551 112.551 31.6888C111.625 33.4273 110.292 34.8696 108.554 36.0445C106.777 37.2624 104.628 38.1937 102.116 38.8433C99.5893 39.4785 96.6712 39.8032 93.3519 39.8032C90.5722 39.8032 87.9359 39.5692 85.4285 39.0868C82.9115 38.6045 80.8005 38.017 79.0907 37.3149L81.0727 28.8662H81.9945C83.6231 29.9217 85.4189 30.8291 87.4009 31.6028C89.3782 32.3718 91.3889 32.7586 93.4187 32.7586C94.8945 32.7586 96.27 32.6201 97.5309 32.3479C98.8013 32.0661 99.8616 31.6458 100.721 31.0775C101.605 30.49 102.288 29.7784 102.77 28.9283C103.253 28.0877 103.491 27.0704 103.491 25.8812C103.491 24.4341 103.009 23.4168 102.054 22.8198C101.089 22.2228 99.4222 21.9267 97.0676 21.9267H89.5549L91.131 15.3549H98.2043C100.755 15.3549 102.665 14.9489 103.945 14.1513C105.215 13.3585 105.855 12.1645 105.855 10.5693C105.855 9.4565 105.244 8.58726 104.026 7.97593C102.808 7.35505 101.175 7.04461 99.1356 7.04461C97.5022 7.04461 95.6443 7.3264 93.562 7.88519C91.4749 8.44876 89.1442 9.34187 86.5699 10.5693H85.6099L87.463 2.52173C89.0582 1.95339 91.1788 1.39459 93.8247 0.831025C96.4801 0.281785 99.2072 0 101.992 0C106.515 0 110.011 0.735505 112.489 2.20174C114.973 3.6632 116.215 5.72166 116.215 8.37712C116.215 10.7986 115.302 12.9095 113.488 14.7149C111.677 16.5202 109.457 17.719 106.839 18.3255L106.758 18.7028C107.513 18.8414 108.339 19.0849 109.213 19.4479C110.097 19.8157 110.861 20.2694 111.52 20.8138C112.217 21.3822 112.795 22.0938 113.263 22.9535C113.726 23.8132 113.956 24.8209 113.956 25.9672Z" fill="#E31E24"/>
<path d="M154.05 39.0152H144.068L143.19 31.1826H129.239L124.749 39.0152H114.452L137.353 0.78804H148.739L154.05 39.0152ZM142.473 24.3433L140.911 10.7365L133.122 24.3433H142.473Z" fill="#E31E24"/>
<path d="M199.384 39.0152H189.455L195.229 14.0033L184.765 30.0268H177.945L174.511 12.9525L168.498 39.0152H159.165L167.991 0.78804H179.296L183.556 19.9637L196.509 0.78804H208.21L199.384 39.0152Z" fill="#E31E24"/>
<path d="M245.549 0.78804L243.877 8.0428H226.005L224.429 14.882H241.026L239.335 22.1368H222.758L220.537 31.7605H238.347L236.708 39.0152H209.008L217.829 0.78804H245.549Z" fill="#E31E24"/>
<path d="M282.033 8.20041H270.078L262.981 39.0152H253.076L260.168 8.20041H248.29L249.986 0.78804H283.733L282.033 8.20041Z" fill="#E31E24"/>
<path d="M16.8596 52.2953L19.2015 58.0631H16.8459L14.934 53.3381H13.0266L12.0844 58.0631H10.049L10.9912 53.3381H9.07015L5.31948 58.0631H2.83124L7.57903 52.1489L5.38352 46.8431H7.54701L9.34001 51.5406H11.3434L12.2902 46.8431H14.3257L13.3834 51.5406H15.3045L18.9911 46.8431H21.2507L16.8596 52.2953Z" fill="#CDCDCD"/>
<path d="M28.9899 53.1598C28.9899 53.576 28.9487 53.9831 28.8618 54.3764H22.0649C22.0969 55.7761 22.9202 56.4759 24.5349 56.4759C25.0243 56.4759 25.4862 56.3981 25.9116 56.2472C26.3416 56.0917 26.7029 55.8721 27.0048 55.5977L27.8373 56.9928C27.3982 57.3861 26.8722 57.6834 26.2592 57.8801C25.6418 58.0768 24.9968 58.1774 24.3245 58.1774C23.4691 58.1774 22.7236 58.0219 22.0878 57.7109C21.452 57.4044 20.9626 56.9607 20.6241 56.389C20.2811 55.8172 20.1118 55.1586 20.1118 54.4085C20.1118 53.4571 20.3222 52.6017 20.743 51.8379C21.1638 51.074 21.7539 50.4748 22.5086 50.0495C23.2587 49.6241 24.1049 49.4091 25.0471 49.4091C26.2455 49.4091 27.2015 49.743 27.915 50.4108C28.6331 51.0786 28.9899 51.9934 28.9899 53.1598ZM24.9511 51.01C24.2787 51.01 23.7024 51.193 23.2267 51.5543C22.751 51.9202 22.4217 52.4188 22.2433 53.0454H27.1466C27.1557 52.4051 26.9636 51.9065 26.5611 51.5497C26.1632 51.1884 25.6235 51.01 24.9511 51.01Z" fill="#CDCDCD"/>
<path d="M39.0206 49.5051L37.3054 58.0631H35.302L36.6651 51.2021H33.4587L33.0425 52.9036C32.7406 54.134 32.4341 55.1311 32.1185 55.895C31.8029 56.6588 31.4324 57.2352 30.9979 57.6331C30.5634 58.0265 30.0419 58.2277 29.4336 58.2277C29.1043 58.2277 28.72 58.1683 28.2809 58.0493L28.7292 56.3661C28.8801 56.3981 29.0082 56.4164 29.1134 56.4164C29.6394 56.4164 30.0556 56.1145 30.3621 55.5154C30.6731 54.9162 30.9842 54.0014 31.2952 52.7755L32.0956 49.5051H39.0206Z" fill="#CDCDCD"/>
<path d="M48.6672 53.1598C48.6672 53.576 48.626 53.9831 48.5391 54.3764H41.7421C41.7742 55.7761 42.5975 56.4759 44.2075 56.4759C44.7015 56.4759 45.1589 56.3981 45.5889 56.2472C46.0142 56.0917 46.3802 55.8721 46.6775 55.5977L47.5145 56.9928C47.0754 57.3861 46.5494 57.6834 45.9319 57.8801C45.319 58.0768 44.6741 58.1774 44.0017 58.1774C43.1464 58.1774 42.4008 58.0219 41.765 57.7109C41.1292 57.4044 40.6398 56.9607 40.2968 56.389C39.9583 55.8172 39.7845 55.1586 39.7845 54.4085C39.7845 53.4571 39.9949 52.6017 40.4203 51.8379C40.8411 51.074 41.4265 50.4748 42.1812 50.0495C42.936 49.6241 43.7821 49.4091 44.7244 49.4091C45.9182 49.4091 46.8787 49.743 47.5923 50.4108C48.3104 51.0786 48.6672 51.9934 48.6672 53.1598ZM44.6283 51.01C43.9514 51.01 43.3796 51.193 42.9039 51.5543C42.4282 51.9202 42.0989 52.4188 41.916 53.0454H46.8238C46.833 52.4051 46.6409 51.9065 46.2384 51.5497C45.8359 51.1884 45.3007 51.01 44.6283 51.01Z" fill="#CDCDCD"/>
<path d="M54.8832 53.6583C55.3406 53.8184 55.6973 54.0517 55.9489 54.3536C56.2005 54.66 56.324 55.0214 56.324 55.4376C56.324 55.959 56.1319 56.4347 55.7476 56.8555C55.3634 57.2764 54.8329 57.6103 54.1605 57.8481C53.4881 58.0905 52.7334 58.2094 51.9009 58.2094C50.6294 58.2094 49.4767 57.8938 48.4521 57.2626L49.1748 55.8676C49.5179 56.0917 49.9295 56.2655 50.419 56.3799C50.9038 56.4988 51.4207 56.5582 51.965 56.5582C52.6785 56.5582 53.2548 56.4393 53.6848 56.206C54.1193 55.9728 54.3389 55.6617 54.3389 55.2775C54.3389 54.9756 54.2062 54.7515 53.9501 54.596C53.6939 54.4405 53.3326 54.3627 52.8615 54.3627H51.2103L51.4207 52.9997H52.7974C53.3646 52.9997 53.8083 52.9036 54.1376 52.7207C54.4624 52.5331 54.627 52.277 54.627 51.9568C54.627 51.6595 54.4898 51.4262 54.2154 51.2661C53.9455 51.1061 53.5476 51.0283 53.0216 51.0283C52.6053 51.0283 52.1891 51.0786 51.7774 51.1884C51.3658 51.2936 50.9038 51.4583 50.3915 51.6824L49.9295 50.0815C51.0273 49.6104 52.1205 49.3771 53.1999 49.3771C54.2337 49.3771 55.0707 49.5783 55.7065 49.9854C56.3423 50.3925 56.6624 50.9368 56.6624 51.6229C56.6624 52.0803 56.5024 52.492 56.1822 52.8533C55.8574 53.2192 55.4275 53.4845 54.8832 53.6583Z" fill="#CDCDCD"/>
<path d="M59.1873 49.5051H61.177L60.4863 52.9814H64.7996L65.4902 49.5051H67.4936L65.7921 58.0631H63.7887L64.4611 54.6829H60.1524L59.48 58.0631H57.472L59.1873 49.5051Z" fill="#CDCDCD"/>
<path d="M78.4712 49.5051H80.4746L78.7593 58.0631H76.7696L78.4712 49.5051ZM73.3071 52.309C74.2905 52.309 75.0315 52.5102 75.5347 52.9128C76.0378 53.3107 76.2894 53.9099 76.2894 54.6966C76.2894 55.3736 76.1156 55.9636 75.7679 56.4713C75.4203 56.979 74.9309 57.3724 74.2997 57.6468C73.6685 57.9258 72.9366 58.0631 72.1042 58.0631H68.1294L69.8446 49.5372H71.8343L71.2854 52.309H73.3071ZM72.1042 56.6085C72.7583 56.6085 73.2797 56.4439 73.6776 56.1237C74.071 55.8035 74.2677 55.3827 74.2677 54.8613C74.2677 54.0883 73.7508 53.7041 72.7125 53.7041H70.9973L70.4393 56.6085H72.1042Z" fill="#CDCDCD"/>
<path d="M90.1212 53.1598C90.1212 53.576 90.0755 53.9831 89.9931 54.3764H83.1916C83.2236 55.7761 84.0469 56.4759 85.6616 56.4759C86.1556 56.4759 86.613 56.3981 87.0429 56.2472C87.4683 56.0917 87.8342 55.8721 88.1315 55.5977L88.964 56.9928C88.5249 57.3861 87.9989 57.6834 87.386 57.8801C86.773 58.0768 86.1281 58.1774 85.4557 58.1774C84.6004 58.1774 83.8548 58.0219 83.2191 57.7109C82.5833 57.4044 82.0939 56.9607 81.7508 56.389C81.4078 55.8172 81.2385 55.1586 81.2385 54.4085C81.2385 53.4571 81.4489 52.6017 81.8697 51.8379C82.2951 51.074 82.8806 50.4748 83.6353 50.0495C84.3854 49.6241 85.2362 49.4091 86.1738 49.4091C87.3722 49.4091 88.3282 49.743 89.0463 50.4108C89.7598 51.0786 90.1212 51.9934 90.1212 53.1598ZM86.0778 51.01C85.4054 51.01 84.8337 51.193 84.358 51.5543C83.8823 51.9202 83.553 52.4188 83.37 53.0454H88.2779C88.287 52.4051 88.0903 51.9065 87.6924 51.5497C87.2899 51.1884 86.7547 51.01 86.0778 51.01Z" fill="#CDCDCD"/>
<path d="M101.433 49.4091C102.137 49.4091 102.777 49.5555 103.349 49.8574C103.921 50.1547 104.374 50.5892 104.703 51.1564C105.032 51.7235 105.202 52.3913 105.202 53.1598C105.202 54.1112 104.987 54.9711 104.566 55.7349C104.145 56.4988 103.569 57.0934 102.837 57.5279C102.105 57.9624 101.286 58.1774 100.39 58.1774C99.7173 58.1774 99.1273 58.0585 98.6287 57.8252C98.1256 57.5874 97.7322 57.2489 97.4578 56.8007L96.5887 61.1734H94.5853L96.9135 49.5052H98.8208L98.6425 50.4017C99.3926 49.7384 100.321 49.4091 101.433 49.4091ZM100.23 56.4622C100.797 56.4622 101.3 56.325 101.744 56.0551C102.187 55.7807 102.539 55.401 102.796 54.9162C103.052 54.4268 103.18 53.8733 103.18 53.2558C103.18 52.5834 102.983 52.0574 102.585 51.6778C102.192 51.2982 101.634 51.106 100.92 51.106C100.353 51.106 99.8454 51.2433 99.4017 51.5177C98.9626 51.7876 98.6104 52.1672 98.3543 52.6566C98.0981 53.1415 97.9701 53.6949 97.9701 54.3124C97.9701 54.9894 98.1668 55.5154 98.5601 55.895C98.9581 56.2701 99.5115 56.4622 100.23 56.4622Z" fill="#CDCDCD"/>
<path d="M114.99 53.1598C114.99 53.576 114.949 53.9831 114.862 54.3764H108.065C108.097 55.7761 108.92 56.4759 110.53 56.4759C111.024 56.4759 111.482 56.3981 111.912 56.2472C112.337 56.0917 112.703 55.8721 113 55.5977L113.837 56.9928C113.398 57.3861 112.872 57.6834 112.255 57.8801C111.642 58.0768 110.997 58.1774 110.324 58.1774C109.469 58.1774 108.723 58.0219 108.088 57.7109C107.452 57.4044 106.963 56.9607 106.619 56.389C106.281 55.8172 106.107 55.1586 106.107 54.4085C106.107 53.4571 106.318 52.6017 106.738 51.8379C107.164 51.074 107.749 50.4748 108.504 50.0495C109.259 49.6241 110.105 49.4091 111.047 49.4091C112.241 49.4091 113.197 49.743 113.915 50.4108C114.633 51.0786 114.99 51.9934 114.99 53.1598ZM110.951 51.01C110.274 51.01 109.702 51.193 109.227 51.5543C108.751 51.9202 108.422 52.4188 108.239 53.0454H113.147C113.156 52.4051 112.959 51.9065 112.561 51.5497C112.159 51.1884 111.623 51.01 110.951 51.01Z" fill="#CDCDCD"/>
<path d="M129.974 49.5051L128.273 58.0631H115.658L117.373 49.5051H119.363L118.032 56.3661H121.348L122.692 49.5051H124.682L123.351 56.3661H126.64L127.985 49.5051H129.974Z" fill="#CDCDCD"/>
<path d="M139.621 53.1598C139.621 53.576 139.575 53.9831 139.493 54.3764H132.696C132.723 55.7761 133.546 56.4759 135.161 56.4759C135.655 56.4759 136.112 56.3981 136.542 56.2472C136.968 56.0917 137.334 55.8721 137.631 55.5977L138.463 56.9928C138.024 57.3861 137.498 57.6834 136.885 57.8801C136.273 58.0768 135.628 58.1774 134.955 58.1774C134.1 58.1774 133.354 58.0219 132.719 57.7109C132.083 57.4044 131.593 56.9607 131.25 56.389C130.907 55.8172 130.738 55.1586 130.738 54.4085C130.738 53.4571 130.948 52.6017 131.369 51.8379C131.795 51.074 132.38 50.4748 133.135 50.0495C133.89 49.6241 134.736 49.4091 135.673 49.4091C136.872 49.4091 137.828 49.743 138.546 50.4108C139.259 51.0786 139.621 51.9934 139.621 53.1598ZM135.577 51.01C134.905 51.01 134.333 51.193 133.857 51.5543C133.382 51.9202 133.052 52.4188 132.87 53.0454H137.777C137.787 52.4051 137.59 51.9065 137.192 51.5497C136.789 51.1884 136.254 51.01 135.577 51.01Z" fill="#CDCDCD"/>
<path d="M142.004 49.5051H143.989L143.303 52.9814H147.612L148.302 49.5051H150.306L148.609 58.0631H146.605L147.278 54.6829H142.964L142.292 58.0631H140.289L142.004 49.5051Z" fill="#CDCDCD"/>
<path d="M152.657 49.5051H154.678L153.507 55.3095L159.326 49.5051H161.233L159.518 58.0631H157.482L158.685 52.245L152.867 58.0631H150.941L152.657 49.5051Z" fill="#CDCDCD"/>
<path d="M170.815 49.5051L169.118 58.0631H167.334L167.833 55.4376H165.637L163.41 58.0631H161.182L163.826 55.1494C163.323 54.9436 162.943 54.6554 162.687 54.2758C162.431 53.8962 162.303 53.4388 162.303 52.9036C162.303 51.847 162.706 51.0146 163.506 50.4108C164.306 49.807 165.413 49.5051 166.822 49.5051H170.815ZM166.662 51.1884C165.926 51.1884 165.358 51.3302 164.965 51.6229C164.567 51.9111 164.37 52.3273 164.37 52.8716C164.37 53.6629 164.901 54.0563 165.958 54.0563H168.121L168.684 51.1884H166.662Z" fill="#CDCDCD"/>
<path d="M180.187 58.1774C179.346 58.1774 178.605 58.0219 177.969 57.7063C177.333 57.3907 176.844 56.947 176.501 56.3798C176.162 55.8172 175.988 55.1586 175.988 54.4085C175.988 53.4571 176.208 52.6017 176.647 51.847C177.086 51.0878 177.69 50.4886 178.468 50.0586C179.241 49.6241 180.123 49.4091 181.12 49.4091C181.985 49.4091 182.731 49.5783 183.357 49.9122C183.979 50.2507 184.464 50.7493 184.807 51.4125L183.092 52.2953C182.694 51.504 181.985 51.106 180.96 51.106C180.393 51.106 179.885 51.2433 179.442 51.5177C179.003 51.7876 178.651 52.1672 178.394 52.6566C178.138 53.1415 178.01 53.6949 178.01 54.3124C178.01 54.9894 178.207 55.5154 178.6 55.895C178.998 56.2701 179.561 56.4622 180.283 56.4622C180.777 56.4622 181.221 56.3616 181.614 56.1649C182.012 55.9682 182.346 55.6709 182.625 55.2775L184.103 56.2701C183.705 56.8693 183.16 57.3358 182.465 57.6743C181.77 58.0082 181.011 58.1774 180.187 58.1774Z" fill="#CDCDCD"/>
<path d="M191.165 49.5051H193.155L192.464 52.9814H196.777L197.468 49.5051H199.471L197.77 58.0631H195.766L196.439 54.6829H192.125L191.453 58.0631H189.45L191.165 49.5051Z" fill="#CDCDCD"/>
<path d="M210.22 49.5052L208.523 58.0631H206.616L206.79 57.1849C206.044 57.8481 205.111 58.1774 204 58.1774C203.295 58.1774 202.659 58.0265 202.088 57.7292C201.516 57.4273 201.063 56.9928 200.729 56.421C200.4 55.8493 200.235 55.1815 200.235 54.4085C200.235 53.4571 200.446 52.6017 200.866 51.8379C201.287 51.074 201.868 50.4748 202.6 50.0495C203.332 49.6241 204.151 49.4091 205.061 49.4091C206.428 49.4091 207.398 49.8619 207.979 50.7721L208.217 49.5052H210.22ZM204.516 56.4622C205.079 56.4622 205.587 56.325 206.03 56.0551C206.474 55.7807 206.822 55.401 207.078 54.9162C207.334 54.4268 207.462 53.8733 207.462 53.2558C207.462 52.5834 207.265 52.0574 206.872 51.6778C206.474 51.2982 205.921 51.106 205.203 51.106C204.635 51.106 204.132 51.2433 203.689 51.5177C203.245 51.7876 202.897 52.1672 202.641 52.6566C202.38 53.1415 202.252 53.6949 202.252 54.3124C202.252 54.9894 202.454 55.5154 202.847 55.895C203.245 56.2701 203.798 56.4622 204.516 56.4622Z" fill="#CDCDCD"/>
<path d="M225.191 49.5051L223.489 58.0631H210.874L212.59 49.5051H214.575L213.248 56.3661H216.564L217.909 49.5051H219.899L218.568 56.3661H221.856L223.201 49.5051H225.191Z" fill="#CDCDCD"/>
<path d="M227.542 49.5051H229.559L228.393 55.3095L234.211 49.5051H236.118L234.403 58.0631H232.367L233.57 52.245L227.748 58.0631H225.827L227.542 49.5051Z" fill="#CDCDCD"/>
<path d="M248.665 49.5051L246.981 58.0631H245.156L246.259 52.4371L242.494 57.1666H241.625L239.718 52.277L238.565 58.0631H236.754L238.469 49.5051H240.537L242.508 54.8613L246.771 49.5051H248.665Z" fill="#CDCDCD"/>
<path d="M251.034 49.5051H253.051L251.88 55.3095L257.703 49.5051H259.61L257.895 58.0631H255.859L257.058 52.245L251.24 58.0631H249.319L251.034 49.5051Z" fill="#CDCDCD"/>
<path d="M4.15317 75.4442C3.32071 75.4442 2.58887 75.2887 1.96224 74.9731C1.34018 74.6575 0.855334 74.2138 0.512286 73.6512C0.169237 73.084 0 72.4254 0 71.6798C0 70.7284 0.214977 69.8731 0.649505 69.1138C1.08403 68.3545 1.6878 67.7599 2.4608 67.3254C3.2338 66.8908 4.10743 66.6759 5.08169 66.6759C5.91416 66.6759 6.64599 66.8314 7.2772 67.1424C7.90841 67.4489 8.39325 67.888 8.7363 68.4552C9.07935 69.0223 9.24859 69.681 9.24859 70.4265C9.24859 71.3779 9.02904 72.2333 8.59451 72.9925C8.15541 73.7518 7.54707 74.351 6.77407 74.7855C5.99649 75.2246 5.12286 75.4442 4.15317 75.4442ZM4.28125 73.7289C4.84842 73.7289 5.35156 73.5917 5.79523 73.3219C6.23891 73.0474 6.59111 72.6678 6.84725 72.1829C7.10339 71.6981 7.23146 71.1447 7.23146 70.5226C7.23146 69.8502 7.03478 69.3242 6.63685 68.9446C6.24348 68.5649 5.68546 68.3728 4.97192 68.3728C4.40474 68.3728 3.89703 68.51 3.45336 68.7845C3.00968 69.0543 2.66206 69.434 2.40591 69.9234C2.14977 70.4082 2.0217 70.9617 2.0217 71.5792C2.0217 72.2561 2.21838 72.7821 2.61174 73.1618C3.00968 73.5414 3.56313 73.7289 4.28125 73.7289Z" fill="#CDCDCD"/>
<path d="M14.8426 71.0349L17.2759 75.3344H15.1628L13.5253 72.3659L10.7214 75.3344H8.41156L12.7065 70.9068L10.3829 66.7719H12.4687L14.0055 69.5758L16.6996 66.7719H18.9454L14.8426 71.0349Z" fill="#CDCDCD"/>
<path d="M27.8693 66.7719L26.154 75.3344H24.1506L25.5137 68.4689H22.3073L21.8865 70.1704C21.5892 71.4008 21.2828 72.3979 20.9671 73.1618C20.6515 73.9256 20.2765 74.5019 19.8465 74.8999C19.412 75.2932 18.8906 75.4945 18.2822 75.4945C17.9483 75.4945 17.5641 75.435 17.1296 75.3161L17.5778 73.6329C17.7242 73.6649 17.8523 73.6832 17.962 73.6832C18.4835 73.6832 18.8997 73.3813 19.2107 72.7821C19.5218 72.1829 19.8328 71.2727 20.1393 70.0423L20.9443 66.7719H27.8693Z" fill="#CDCDCD"/>
<path d="M38.6182 66.7719L36.9212 75.3344H35.0139L35.1877 74.4516C34.4421 75.1149 33.5136 75.4442 32.4021 75.4442C31.6932 75.4442 31.0574 75.2933 30.4856 74.9959C29.9139 74.6986 29.4611 74.2595 29.1317 73.6878C28.7978 73.116 28.6332 72.4482 28.6332 71.6798C28.6332 70.7284 28.8436 69.8685 29.2644 69.1047C29.6898 68.3408 30.2661 67.7462 30.9979 67.3162C31.7298 66.8908 32.5485 66.6759 33.4587 66.6759C34.8263 66.6759 35.8006 67.1287 36.3769 68.0389L36.6148 66.7719H38.6182ZM32.9144 73.7289C33.4816 73.7289 33.9847 73.5917 34.4284 73.3219C34.8721 73.0474 35.2197 72.6678 35.4804 72.1829C35.7366 71.6981 35.8646 71.1447 35.8646 70.5226C35.8646 69.8502 35.6634 69.3242 35.27 68.9446C34.8767 68.5649 34.3186 68.3728 33.6005 68.3728C33.0379 68.3728 32.5302 68.51 32.0865 68.7845C31.6429 69.0543 31.2952 69.434 31.0391 69.9234C30.7784 70.4082 30.6503 70.9617 30.6503 71.5792C30.6503 72.2561 30.8516 72.7821 31.2449 73.1618C31.6429 73.5414 32.1963 73.7289 32.9144 73.7289Z" fill="#CDCDCD"/>
<path d="M49.8838 71.0349L51.8872 75.3344H49.5499L48.0908 71.8399H46.6958L45.9868 75.3344H43.9834L44.6741 71.8399H43.279L40.5072 75.3344H38.0372L41.7879 70.8611L40.0269 66.7719H42.1264L43.5352 70.2664H44.9943L45.6849 66.7719H47.7066L46.9977 70.2664H48.3927L51.2149 66.7719H53.4287L49.8838 71.0349Z" fill="#CDCDCD"/>
<path d="M61.2319 73.6329H62.4943L61.7762 77.2418H59.9009L60.2851 75.3344H53.6803L53.2961 77.2418H51.4344L52.1388 73.6329H52.4773C53.0216 73.61 53.4836 73.2395 53.8541 72.5214C54.2292 71.7987 54.5676 70.8336 54.8649 69.6261L55.5373 66.7719H62.595L61.2319 73.6329ZM56.6305 69.9142C56.3835 70.9205 56.1502 71.7164 55.9307 72.3019C55.7111 72.8919 55.4275 73.3356 55.0753 73.6329H59.2285L60.2531 68.4689H56.9644L56.6305 69.9142Z" fill="#CDCDCD"/>
<path d="M73.6961 66.7719L71.9991 75.3344H70.0918L70.2656 74.4516C69.52 75.1149 68.5869 75.4442 67.4755 75.4442C66.7711 75.4442 66.1307 75.2933 65.559 74.9959C64.9918 74.6986 64.539 74.2595 64.2051 73.6878C63.8757 73.116 63.7111 72.4482 63.7111 71.6798C63.7111 70.7284 63.9215 69.8685 64.3423 69.1047C64.7631 68.3408 65.3394 67.7462 66.0758 67.3162C66.8077 66.8908 67.6264 66.6759 68.5366 66.6759C69.9042 66.6759 70.8739 67.1287 71.4502 68.0389L71.6927 66.7719H73.6961ZM67.9923 73.7289C68.5549 73.7289 69.0626 73.5917 69.5063 73.3219C69.95 73.0474 70.2976 72.6678 70.5537 72.1829C70.8099 71.6981 70.9379 71.1447 70.9379 70.5226C70.9379 69.8502 70.7413 69.3242 70.3479 68.9446C69.95 68.5649 69.3965 68.3728 68.6784 68.3728C68.1112 68.3728 67.6081 68.51 67.1644 68.7845C66.7207 69.0543 66.3685 69.434 66.1124 69.9234C65.8563 70.4082 65.7282 70.9617 65.7282 71.5792C65.7282 72.2561 65.9249 72.7821 66.3228 73.1618C66.7162 73.5414 67.2742 73.7289 67.9923 73.7289Z" fill="#CDCDCD"/>
<path d="M83.5346 66.6759C84.3579 66.6759 85.076 66.8314 85.6889 67.1424C86.3064 67.4489 86.7775 67.888 87.1114 68.446C87.4408 69.0086 87.6054 69.6627 87.6054 70.4128C87.6054 71.3642 87.395 72.2195 86.9651 72.9834C86.5397 73.7472 85.9405 74.351 85.1766 74.7855C84.4128 75.2246 83.5529 75.4442 82.5878 75.4442C81.7965 75.4442 81.1012 75.2978 80.4975 75.0051C79.8937 74.7078 79.418 74.2961 79.0795 73.761C78.7365 73.2258 78.549 72.6083 78.5169 71.9039H77.0441L76.3534 75.3344H74.35L76.0653 66.7719H78.0504L77.3963 70.0926H78.7594C79.0795 69.0635 79.665 68.2402 80.5203 67.6135C81.3757 66.9869 82.3819 66.6759 83.5346 66.6759ZM82.7341 73.7289C83.2784 73.7289 83.7679 73.5917 84.2024 73.3219C84.6323 73.0474 84.9708 72.6678 85.2178 72.1829C85.4648 71.6981 85.5883 71.1355 85.5883 70.5089C85.5883 69.8456 85.3962 69.3242 85.0166 68.9446C84.6369 68.5649 84.1018 68.3728 83.4065 68.3728C82.8622 68.3728 82.3728 68.51 81.9383 68.7845C81.5083 69.0543 81.1653 69.434 80.9228 69.9234C80.6758 70.4082 80.5524 70.9663 80.5524 71.5975C80.5524 72.2607 80.7445 72.7821 81.1241 73.1618C81.4992 73.5414 82.0389 73.7289 82.7341 73.7289Z" fill="#CDCDCD"/>
<path d="M102.686 66.7719L100.989 75.3344H88.3693L90.0846 66.7719H92.0743L90.7432 73.6329H94.0639L95.4087 66.7719H97.3984L96.0673 73.6329H99.3515L100.701 66.7719H102.686ZM102.576 73.6329L101.872 77.0954H99.9918L100.362 75.3344H98.9215L99.2737 73.6329H102.576Z" fill="#CDCDCD"/>
<path d="M105.389 66.7719H107.411L106.24 72.5763L112.063 66.7719H113.97L112.255 75.3344H110.215L111.418 69.5117L105.599 75.3344H103.674L105.389 66.7719Z" fill="#CDCDCD"/>
<path d="M126.516 66.7719L124.833 75.3344H123.003L124.11 69.7038L120.341 74.4333H119.477L117.57 69.5437L116.417 75.3344H114.606L116.321 66.7719H118.388L120.36 72.128L124.623 66.7719H126.516Z" fill="#CDCDCD"/>
<path d="M128.881 66.7719H130.903L129.732 72.5763L135.55 66.7719H137.457L135.742 75.3344H133.707L134.91 69.5117L129.091 75.3344H127.166L128.881 66.7719Z" fill="#CDCDCD"/>
<path d="M153.132 71.0349L155.136 75.3344H152.794L151.339 71.8399H149.944L149.235 75.3344H147.232L147.923 71.8399H146.528L143.756 75.3344H141.286L145.036 70.8611L143.275 66.7719H145.375L146.784 70.2664H148.243L148.933 66.7719H150.951L150.246 70.2664H151.641L154.463 66.7719H156.677L153.132 71.0349Z" fill="#CDCDCD"/>
<path d="M157.985 66.7719H160.007L158.836 72.5763L164.654 66.7719H166.561L164.846 75.3344H162.811L164.014 69.5117L158.196 75.3344H156.27L157.985 66.7719Z" fill="#CDCDCD"/>
<path d="M175.408 73.6329H176.67L175.952 77.2418H174.077L174.461 75.3344H167.856L167.472 77.2418H165.61L166.315 73.6329H166.653C167.197 73.61 167.659 73.2395 168.03 72.5214C168.405 71.7987 168.743 70.8336 169.041 69.6261L169.713 66.7719H176.771L175.408 73.6329ZM170.806 69.9142C170.559 70.9205 170.326 71.7164 170.106 72.3019C169.887 72.8919 169.603 73.3356 169.251 73.6329H173.404L174.429 68.4689H171.14L170.806 69.9142Z" fill="#CDCDCD"/>
<path d="M183.723 71.0028L186.221 75.3344H183.897L182.086 71.9039H180.453L179.762 75.3344H177.759L179.474 66.7719H181.477L180.787 70.2344H182.328L185.58 66.7719H187.776L183.723 71.0028Z" fill="#CDCDCD"/>
<path d="M191.252 75.4442C190.415 75.4442 189.688 75.2887 189.061 74.9731C188.439 74.6575 187.954 74.2138 187.611 73.6512C187.268 73.084 187.099 72.4254 187.099 71.6798C187.099 70.7284 187.314 69.8731 187.748 69.1138C188.178 68.3545 188.782 67.7599 189.559 67.3254C190.333 66.8908 191.206 66.6759 192.18 66.6759C193.013 66.6759 193.745 66.8314 194.376 67.1424C195.007 67.4489 195.492 67.888 195.835 68.4552C196.178 69.0223 196.347 69.681 196.347 70.4265C196.347 71.3779 196.128 72.2333 195.693 72.9925C195.254 73.7518 194.646 74.351 193.873 74.7855C193.095 75.2246 192.222 75.4442 191.252 75.4442ZM191.38 73.7289C191.943 73.7289 192.45 73.5917 192.894 73.3219C193.338 73.0474 193.685 72.6678 193.941 72.1829C194.202 71.6981 194.33 71.1447 194.33 70.5226C194.33 69.8502 194.129 69.3242 193.736 68.9446C193.338 68.5649 192.784 68.3728 192.066 68.3728C191.503 68.3728 190.996 68.51 190.552 68.7845C190.108 69.0543 189.761 69.434 189.505 69.9234C189.248 70.4082 189.12 70.9617 189.12 71.5792C189.12 72.2561 189.317 72.7821 189.71 73.1618C190.108 73.5414 190.662 73.7289 191.38 73.7289Z" fill="#CDCDCD"/>
<path d="M201.411 75.4442C200.564 75.4442 199.823 75.2887 199.188 74.9731C198.552 74.6575 198.062 74.2138 197.724 73.6512C197.381 73.084 197.207 72.4254 197.207 71.6798C197.207 70.7284 197.427 69.8731 197.866 69.1138C198.305 68.3545 198.913 67.7599 199.686 67.3254C200.459 66.8908 201.347 66.6759 202.339 66.6759C203.204 66.6759 203.949 66.8451 204.576 67.179C205.202 67.5175 205.683 68.0161 206.026 68.6793L204.311 69.5621C203.917 68.7708 203.204 68.3728 202.179 68.3728C201.612 68.3728 201.109 68.51 200.665 68.7845C200.221 69.0543 199.869 69.434 199.613 69.9234C199.357 70.4082 199.229 70.9617 199.229 71.5792C199.229 72.2561 199.426 72.7821 199.823 73.1618C200.217 73.5414 200.779 73.7289 201.507 73.7289C201.996 73.7289 202.44 73.6283 202.838 73.4316C203.231 73.235 203.57 72.9377 203.844 72.5443L205.321 73.5368C204.923 74.136 204.379 74.6026 203.684 74.9411C202.993 75.275 202.234 75.4442 201.411 75.4442Z" fill="#CDCDCD"/>
<path d="M214.328 68.4689H211.281L209.932 75.3344H207.929L209.273 68.4689H206.296L206.629 66.7719H214.661L214.328 68.4689Z" fill="#CDCDCD"/>
<path d="M222.881 66.7719L221.179 75.3344H219.4L219.899 72.7044H217.703L215.476 75.3344H213.244L215.892 72.4162C215.389 72.2104 215.009 71.9222 214.753 71.5426C214.497 71.1629 214.369 70.7055 214.369 70.1704C214.369 69.1138 214.767 68.2813 215.572 67.6776C216.372 67.0738 217.479 66.7719 218.888 66.7719H222.881ZM218.728 68.4551C217.991 68.4551 217.424 68.6015 217.031 68.8897C216.633 69.1778 216.436 69.5941 216.436 70.1384C216.436 70.9297 216.967 71.323 218.023 71.323H220.187L220.749 68.4551H218.728Z" fill="#CDCDCD"/>
<path d="M235.427 66.7719L233.744 75.3344H231.919L233.022 69.7038L229.257 74.4333H228.388L226.481 69.5437L225.328 75.3344H223.517L225.232 66.7719H227.299L229.271 72.128L233.538 66.7719H235.427Z" fill="#CDCDCD"/>
<path d="M237.797 66.7719H239.814L238.647 72.5763L244.466 66.7719H246.373L244.658 75.3344H242.622L243.825 69.5117L238.002 75.3344H236.081L237.797 66.7719Z" fill="#CDCDCD"/>
</svg>
