<svg width="487" height="70" viewBox="0 0 487 70" fill="none" xmlns="http://www.w3.org/2000/svg">
<path d="M66.84 19.968C66.84 27.9788 63.5316 34.4192 56.8896 39.3399C50.2644 44.2353 40.9857 46.6872 29.062 46.6872H22.4787L17.4237 68.595H0L15.5176 1.3855H39.659C44.0506 1.3855 47.888 1.69619 51.1544 2.29237C54.4209 2.89696 57.2423 3.92978 59.6102 5.40765C61.9698 6.86873 63.7583 8.80004 64.9927 11.1596C66.227 13.5107 66.84 16.4581 66.84 19.968ZM48.3498 21.6474C48.3498 19.0444 47.3926 17.1047 45.5033 15.8535C43.6056 14.594 40.7842 13.9558 37.0391 13.9558H30.0276L25.3925 34.0246H31.6314C36.9048 34.0246 41.0193 32.9414 43.9414 30.8001C46.8888 28.6589 48.3498 25.6108 48.3498 21.6474Z" fill="white" fill-opacity="0.2"/>
<path d="M132.001 1.3855L129.062 14.1405H97.6402L94.8692 26.165H124.049L121.076 38.92H91.9219L88.0257 55.8399H119.338L116.458 68.595H67.7469L83.2646 1.3855H132.001Z" fill="white" fill-opacity="0.2"/>
<path d="M188.504 45.6544C188.504 49.3071 187.681 52.6659 186.035 55.714C184.406 58.7705 182.063 61.3064 179.007 63.3721C175.883 65.5133 172.105 67.1507 167.688 68.2927C163.246 69.4095 158.115 69.9805 152.279 69.9805C147.392 69.9805 142.757 69.569 138.349 68.7209C133.924 67.8728 130.212 66.84 127.206 65.6056L130.691 50.7514H132.311C135.175 52.6071 138.332 54.2025 141.817 55.5629C145.293 56.9148 148.828 57.5949 152.397 57.5949C154.992 57.5949 157.41 57.3514 159.627 56.8728C161.86 56.3774 163.724 55.6384 165.236 54.6392C166.789 53.6064 167.99 52.3552 168.838 50.8605C169.686 49.3827 170.106 47.5941 170.106 45.5033C170.106 42.959 169.258 41.1704 167.579 40.1208C165.882 39.0712 162.952 38.5506 158.812 38.5506H145.604L148.375 26.9963H160.811C165.295 26.9963 168.653 26.2826 170.904 24.8803C173.137 23.4864 174.263 21.3871 174.263 18.5825C174.263 16.626 173.188 15.0978 171.047 14.023C168.905 12.9314 166.034 12.3856 162.448 12.3856C159.576 12.3856 156.31 12.881 152.649 13.8634C148.979 14.8543 144.882 16.4245 140.356 18.5825H138.668L141.926 4.43361C144.73 3.43437 148.459 2.45192 153.111 1.46108C157.779 0.495422 162.574 0 167.469 0C175.421 0 181.568 1.29314 185.926 3.87101C190.292 6.44049 192.476 10.0596 192.476 14.7283C192.476 18.9856 190.872 22.6971 187.681 25.8711C184.499 29.0452 180.594 31.1528 175.992 32.2192L175.85 32.8826C177.176 33.1261 178.629 33.5544 180.166 34.1925C181.719 34.8391 183.063 35.6368 184.221 36.5941C185.447 37.5933 186.463 38.8445 187.286 40.3559C188.101 41.8674 188.504 43.6391 188.504 45.6544Z" fill="white" fill-opacity="0.2"/>
<path d="M258.997 68.595H241.447L239.902 54.8239H215.374L207.481 68.595H189.377L229.641 1.3855H249.659L258.997 68.595ZM238.642 42.7994L235.897 18.8764L222.201 42.7994H238.642Z" fill="white" fill-opacity="0.2"/>
<path d="M338.701 68.595H321.243L331.395 24.62L312.998 52.7918H301.007L294.969 22.7726L284.397 68.595H267.99L283.507 1.3855H303.383L310.873 35.0994L333.646 1.3855H354.218L338.701 68.595Z" fill="white" fill-opacity="0.2"/>
<path d="M419.866 1.3855L416.927 14.1405H385.505L382.734 26.165H411.914L408.941 38.92H379.796L375.891 55.8399H407.203L404.323 68.595H355.621L371.13 1.3855H419.866Z" fill="white" fill-opacity="0.2"/>
<path d="M484.011 14.4176H462.993L450.515 68.595H433.1L445.569 14.4176H424.686L427.667 1.3855H487L484.011 14.4176Z" fill="white" fill-opacity="0.2"/>
</svg>
