<svg width="330" height="146" viewBox="0 0 330 146" fill="none" xmlns="http://www.w3.org/2000/svg">
<rect y="0.000488281" width="330" height="146" rx="20" fill="white" fill-opacity="0.8"/>
<path d="M167.596 55.5895V51.9561H161.89V55.5895C161.89 56.3777 161.671 57.1504 161.258 57.8213C160.844 58.4922 160.252 59.035 159.548 59.3891L158.974 59.6774C158.442 59.9448 157.995 60.3547 157.683 60.8614C157.371 61.3681 157.205 61.9516 157.205 62.5468V66.8006H172.281V62.5468C172.281 61.9516 172.115 61.3681 171.803 60.8614C171.491 60.3548 171.044 59.9448 170.512 59.6774L169.938 59.3891C169.234 59.0351 168.642 58.4923 168.229 57.8213C167.815 57.1504 167.596 56.3777 167.596 55.5895Z" fill="#FEC93E"/>
<path d="M170.512 59.6774L169.938 59.3891C169.234 59.035 168.642 58.4922 168.228 57.8213C167.815 57.1504 167.596 56.3777 167.596 55.5895V51.9561H164.743V66.8006H172.281V62.5468C172.281 61.9516 172.115 61.3681 171.803 60.8614C171.491 60.3547 171.044 59.9448 170.512 59.6774Z" fill="#EFB635"/>
<path d="M164.743 55.0344C157.819 52.2628 153.079 45.7879 152.529 38.3497L151.253 21.0757H178.233L176.957 38.3497C176.407 45.7879 171.667 52.2628 164.743 55.0344Z" fill="#FEC93E"/>
<path d="M172.871 21.0757L171.595 38.3497C171.203 43.6606 168.674 50.5292 164.739 55.0328L164.743 55.0344C171.667 52.2628 176.407 45.7879 176.957 38.3497L178.233 21.0757H172.871Z" fill="#EFB635"/>
<path d="M179.495 22.6698H149.991C149.715 22.6698 149.451 22.5603 149.256 22.3653C149.061 22.1703 148.951 21.9059 148.951 21.6302V19.8748C148.951 19.5991 149.061 19.3346 149.256 19.1397C149.451 18.9447 149.715 18.8352 149.991 18.8352H179.495C179.771 18.8352 180.035 18.9447 180.23 19.1397C180.425 19.3346 180.535 19.5991 180.535 19.8748V21.6302C180.535 21.7667 180.508 21.9019 180.456 22.028C180.403 22.1542 180.327 22.2688 180.23 22.3653C180.134 22.4618 180.019 22.5384 179.893 22.5906C179.767 22.6429 179.632 22.6698 179.495 22.6698Z" fill="#F7A738"/>
<path d="M179.495 20.7453H149.991C149.445 20.7453 148.999 20.3248 148.956 19.7903C148.953 19.8182 148.951 19.8464 148.951 19.8749V21.6303C148.951 21.7668 148.978 21.902 149.031 22.0281C149.083 22.1543 149.159 22.2689 149.256 22.3654C149.451 22.5604 149.715 22.6699 149.991 22.6699H179.495C179.632 22.6699 179.767 22.643 179.893 22.5908C180.019 22.5385 180.134 22.4619 180.23 22.3654C180.327 22.2689 180.403 22.1543 180.456 22.0281C180.508 21.902 180.535 21.7668 180.535 21.6303V19.8749C180.535 19.8463 180.533 19.8182 180.53 19.7903C180.487 20.3248 180.041 20.7453 179.495 20.7453Z" fill="#EA9632"/>
<path d="M177.909 71.1969H151.577V66.426C151.577 64.852 152.853 63.5759 154.427 63.5759H175.059C176.633 63.5759 177.909 64.852 177.909 66.426V71.1969Z" fill="#F7A738"/>
<path d="M175.059 63.5759H172.075V66.9441C172.075 68.1141 171.127 69.0626 169.957 69.0626H151.577V71.1968H177.909V66.4259C177.909 64.852 176.633 63.5759 175.059 63.5759Z" fill="#EA9632"/>
<path d="M180.164 74.1646H149.322C149.236 74.1646 149.154 74.1303 149.093 74.0694C149.032 74.0084 148.997 73.9257 148.997 73.8395V70.9174C148.997 70.8311 149.032 70.7485 149.093 70.6875C149.154 70.6265 149.236 70.5923 149.322 70.5923H180.163C180.25 70.5923 180.332 70.6265 180.393 70.6875C180.454 70.7485 180.489 70.8311 180.489 70.9174V73.8395C180.489 73.9257 180.454 74.0084 180.393 74.0693C180.332 74.1303 180.25 74.1645 180.164 74.1646Z" fill="#FEC93E"/>
<path d="M168.195 56.0271H161.291C160.429 56.0271 159.731 55.3286 159.731 54.4669V53.9637C159.731 53.102 160.429 52.4036 161.291 52.4036H168.195C169.057 52.4036 169.756 53.102 169.756 53.9637V54.4669C169.756 55.3286 169.057 56.0271 168.195 56.0271Z" fill="#FF8150"/>
<path d="M168.195 54.2154H161.291C160.663 54.2154 160.123 53.8439 159.876 53.3096C159.78 53.5145 159.731 53.7378 159.731 53.9638V54.467C159.731 55.3287 160.429 56.0272 161.291 56.0272H168.195C169.057 56.0272 169.756 55.3287 169.756 54.467V53.9638C169.756 53.7298 169.703 53.5087 169.61 53.3096C169.363 53.8439 168.823 54.2154 168.195 54.2154Z" fill="#FD6E2E"/>
<path d="M165 26.8397L166.933 32.1778L172.607 32.3668C172.862 32.3753 172.967 32.6981 172.766 32.855L168.286 36.3431L169.86 41.798C169.931 42.0432 169.656 42.2428 169.445 42.0997L164.743 38.9175L160.041 42.0997C159.83 42.2427 159.555 42.0432 159.626 41.798L161.2 36.3431L156.72 32.855C156.519 32.6981 156.624 32.3753 156.879 32.3668L162.553 32.1778L164.486 26.8397C164.573 26.5997 164.913 26.5997 165 26.8397Z" fill="#F2EBDA"/>
<path d="M180.164 70.5923H174.655V71.7472C174.655 72.4297 174.102 72.9829 173.419 72.9829H149.322C149.236 72.9829 149.154 72.9487 149.093 72.8877C149.032 72.8268 148.997 72.7441 148.997 72.6579V73.8395C148.997 73.9257 149.032 74.0084 149.093 74.0694C149.154 74.1303 149.236 74.1646 149.322 74.1646H180.163C180.25 74.1646 180.332 74.1303 180.393 74.0694C180.454 74.0084 180.489 73.9257 180.489 73.8395V70.9174C180.489 70.8312 180.454 70.7485 180.393 70.6875C180.332 70.6266 180.25 70.5923 180.164 70.5923Z" fill="#EFB635"/>
<path d="M187.749 25.5253H178.741L178.891 23.5048H179.495C180.529 23.5048 181.37 22.6637 181.37 21.6301V19.8748C181.37 18.8411 180.529 18 179.495 18H157.077C156.615 18 156.242 18.3738 156.242 18.8351C156.242 19.2963 156.615 19.6701 157.077 19.6701H179.495C179.608 19.6701 179.7 19.7619 179.7 19.8746V21.6301C179.699 21.6843 179.678 21.7363 179.64 21.7746C179.601 21.8129 179.549 21.8345 179.495 21.8346H149.991C149.937 21.8345 149.885 21.8129 149.846 21.7746C149.808 21.7363 149.786 21.6843 149.786 21.6301V19.8748C149.786 19.762 149.878 19.6703 149.991 19.6703H153.163C153.384 19.6703 153.597 19.5823 153.753 19.4256C153.91 19.269 153.998 19.0566 153.998 18.8351C153.998 18.6136 153.91 18.4012 153.753 18.2446C153.597 18.088 153.384 18 153.163 18H149.991C148.957 18 148.116 18.8411 148.116 19.8748V21.6302C148.116 22.6639 148.957 23.5049 149.991 23.5049H150.595L150.745 25.5254H141.737C140.228 25.5254 139 26.7531 139 28.2623V29.5706C139 32.9845 139.948 36.3241 141.743 39.2284C143.535 42.1311 146.101 44.4771 149.152 46.0035L155.784 49.3228C155.858 49.3604 155.924 49.4111 155.98 49.4727C155.998 49.4955 156.016 49.5179 156.034 49.5407C156.114 49.6537 156.157 49.7886 156.157 49.9268C156.157 50.1058 156.085 50.2774 155.959 50.404C155.832 50.5305 155.661 50.6017 155.482 50.6019H154.546C154.324 50.6019 154.112 50.6899 153.955 50.8465C153.798 51.0031 153.711 51.2155 153.711 51.437C153.711 51.6584 153.798 51.8708 153.955 52.0274C154.112 52.184 154.324 52.272 154.546 52.272H155.482C156.32 52.272 157.054 51.8287 157.469 51.1658C158.023 51.7302 158.609 52.262 159.224 52.7584C159.009 53.1237 158.896 53.54 158.895 53.964V54.4672C158.895 55.6288 159.727 56.5991 160.826 56.8163C160.523 57.6106 159.933 58.2625 159.173 58.6431L158.599 58.9314C157.224 59.6228 156.37 61.0081 156.37 62.5469V62.7412H154.427C152.395 62.7412 150.742 64.3943 150.742 66.4263V69.7575H149.323C148.683 69.7575 148.162 70.2779 148.162 70.9176V73.8399C148.162 74.4796 148.683 75 149.323 75H180.164C180.803 75 181.324 74.4796 181.324 73.8399V70.9174C181.324 70.2777 180.803 69.7573 180.164 69.7573H178.744V66.4261C178.744 64.3941 177.091 62.7409 175.059 62.7409H173.116V62.5467C173.116 61.0079 172.262 59.6225 170.887 58.9312L170.313 58.643C169.553 58.2624 168.963 57.6105 168.66 56.8162C169.759 56.599 170.591 55.6287 170.591 54.4671V53.9639C170.591 53.5245 170.47 53.1137 170.262 52.7592C170.878 52.2626 171.463 51.7304 172.017 51.1655C172.432 51.8286 173.166 52.272 174.005 52.272H174.94C175.402 52.272 175.776 51.8982 175.776 51.437C175.776 50.9757 175.402 50.6019 174.94 50.6019H174.005C173.826 50.6017 173.654 50.5305 173.527 50.404C173.401 50.2774 173.33 50.1058 173.329 49.9268C173.329 49.7678 173.384 49.619 173.48 49.5012L173.485 49.4954C173.544 49.4235 173.619 49.3648 173.702 49.3231L180.335 46.0037C183.386 44.4774 185.951 42.1314 187.744 39.2286C189.537 36.3266 190.487 32.9824 190.486 29.5708V28.2623C190.486 26.7531 189.258 25.5253 187.749 25.5253ZM149.899 44.5098C147.125 43.1222 144.793 40.9894 143.163 38.3505C141.533 35.7122 140.669 32.672 140.67 29.5705V28.2623C140.67 27.674 141.149 27.1956 141.737 27.1956H150.868L151.697 38.4113C151.908 41.2849 152.728 44.0808 154.102 46.6135L149.899 44.5098ZM177.909 71.4275H179.653V73.3297H149.833V71.4275H177.909ZM172.281 64.4112H175.059C176.17 64.4112 177.074 65.3152 177.074 66.4261V69.7573H152.412V66.4261C152.412 65.3151 153.316 64.4112 154.427 64.4112H172.281ZM169.563 60.1352L170.137 60.4234C170.944 60.8294 171.446 61.643 171.446 62.5467V62.7409H158.04V62.5467C158.04 61.6429 158.542 60.8293 159.349 60.4234L159.923 60.1351C161.251 59.4675 162.2 58.2754 162.562 56.8622H166.924C167.286 58.2754 168.235 59.4675 169.563 60.1352ZM168.92 54.467C168.92 54.6592 168.844 54.8435 168.708 54.9794C168.572 55.1153 168.388 55.1918 168.195 55.192H161.291C161.098 55.1918 160.914 55.1153 160.778 54.9794C160.642 54.8435 160.566 54.6592 160.566 54.467V53.9638C160.566 53.8431 160.596 53.7244 160.654 53.6184C160.711 53.5124 160.794 53.4224 160.895 53.3567C160.897 53.3555 160.899 53.3547 160.901 53.3535C160.959 53.3163 161.022 53.2875 161.088 53.268L161.089 53.2676C161.118 53.2592 161.148 53.253 161.177 53.2483C161.184 53.2473 161.19 53.2461 161.197 53.2452C161.228 53.2409 161.259 53.2387 161.291 53.2385H168.195C168.227 53.2385 168.258 53.2411 168.289 53.2452C168.295 53.2461 168.302 53.2473 168.308 53.2483C168.338 53.253 168.367 53.2591 168.396 53.2675L168.398 53.2678C168.464 53.2874 168.526 53.3161 168.584 53.3532C168.586 53.3544 168.588 53.3551 168.59 53.3562C168.691 53.4219 168.774 53.5119 168.832 53.618C168.89 53.724 168.92 53.8428 168.92 53.9635V54.467H168.92ZM188.816 29.5705C188.816 32.674 187.954 35.7101 186.323 38.3505C184.693 40.9894 182.361 43.1222 179.587 44.5098L175.379 46.6159C176.193 45.1177 176.816 43.5228 177.232 41.8689C177.283 41.6553 177.247 41.4304 177.133 41.2429C177.019 41.0554 176.836 40.9203 176.623 40.8668C176.41 40.8134 176.184 40.8459 175.995 40.9573C175.806 41.0687 175.669 41.2501 175.612 41.4622C174.975 44.0013 173.809 46.3669 172.215 48.4087C172.184 48.4457 172.154 48.4836 172.125 48.5224C171.191 49.7011 170.118 50.7627 168.929 51.6842C168.927 51.6835 168.925 51.6832 168.923 51.6825C168.897 51.6742 168.87 51.6677 168.844 51.6603C168.801 51.648 168.758 51.6365 168.714 51.6268C168.686 51.6206 168.657 51.615 168.629 51.61C168.582 51.6014 168.535 51.5942 168.488 51.5885C168.464 51.5855 168.439 51.582 168.414 51.5797C168.342 51.573 168.269 51.5685 168.195 51.5685H161.29C161.217 51.5685 161.144 51.573 161.072 51.5797C161.047 51.582 161.022 51.5855 160.997 51.5885C160.95 51.5943 160.904 51.6013 160.857 51.6098C160.828 51.615 160.8 51.6206 160.772 51.6268C160.728 51.6363 160.686 51.6478 160.643 51.6598C160.616 51.6674 160.589 51.6741 160.562 51.6827C160.56 51.6832 160.558 51.6835 160.556 51.6842C159.391 50.7826 158.337 49.7465 157.415 48.5974C157.363 48.5213 157.306 48.4484 157.245 48.3791C154.983 45.4724 153.632 41.9613 153.362 38.2881L152.27 23.5048H177.216L176.164 37.7358C176.148 37.9567 176.22 38.175 176.365 38.3428C176.509 38.5105 176.715 38.6139 176.936 38.6303C177.045 38.6386 177.155 38.6252 177.259 38.5909C177.364 38.5566 177.46 38.5021 177.543 38.4304C177.626 38.3588 177.694 38.2714 177.744 38.1733C177.793 38.0753 177.822 37.9684 177.83 37.859L178.618 27.1956H187.749C188.337 27.1956 188.816 27.674 188.816 28.2623V29.5705Z" fill="black"/>
<path d="M172.635 31.532L167.526 31.3618L165.785 26.5552C165.624 26.1114 165.215 25.8245 164.743 25.8245C164.271 25.8245 163.862 26.1112 163.701 26.5552L161.96 31.3618L156.851 31.532C156.379 31.5477 155.98 31.8481 155.834 32.2972C155.688 32.7463 155.835 33.2239 156.207 33.5138L160.241 36.6546L158.824 41.5664C158.693 42.0199 158.855 42.4924 159.237 42.7699C159.619 43.0475 160.118 43.0558 160.51 42.7911L164.743 39.9258L168.977 42.7912C169.16 42.9163 169.376 42.9835 169.598 42.984C169.832 42.9834 170.06 42.9085 170.249 42.7699C170.631 42.4924 170.793 42.0199 170.662 41.5664L169.246 36.6545L173.279 33.5138C173.652 33.2238 173.798 32.7462 173.652 32.2971C173.506 31.8481 173.107 31.5477 172.635 31.532ZM167.773 35.6841C167.642 35.7866 167.544 35.9262 167.492 36.0849C167.441 36.2436 167.438 36.4141 167.484 36.5744L168.627 40.5379L165.211 38.2258C165.073 38.1322 164.91 38.0822 164.743 38.0822C164.576 38.0822 164.413 38.1322 164.275 38.2258L160.859 40.5379L162.002 36.5744C162.048 36.4141 162.045 36.2436 161.994 36.0849C161.942 35.9262 161.844 35.7866 161.713 35.6841L158.458 33.1496L162.581 33.0123C162.747 33.0067 162.909 32.9513 163.044 32.8532C163.179 32.7552 163.281 32.6189 163.338 32.462L164.743 28.5834L166.148 32.4621C166.204 32.619 166.307 32.7552 166.442 32.8533C166.577 32.9514 166.738 33.0068 166.905 33.0124L171.028 33.1497L167.773 35.6841Z" fill="black"/>
<g opacity="0.5" filter="url(#filter0_f_43_4)">
<path d="M116.995 58.2832V55.7427H113.005V58.2832C113.005 58.8343 112.852 59.3746 112.563 59.8438C112.274 60.3129 111.86 60.6924 111.367 60.94L110.966 61.1416C110.594 61.3286 110.282 61.6152 110.064 61.9695C109.845 62.3237 109.729 62.7317 109.729 63.1479V66.1222H120.271V63.1479C120.271 62.7317 120.155 62.3238 119.936 61.9695C119.718 61.6152 119.406 61.3286 119.034 61.1416L118.633 60.94C118.14 60.6924 117.726 60.3129 117.437 59.8438C117.148 59.3746 116.995 58.8344 116.995 58.2832Z" fill="#FEC93E"/>
<path d="M119.034 61.1416L118.633 60.94C118.14 60.6924 117.726 60.3129 117.437 59.8438C117.148 59.3746 116.995 58.8343 116.995 58.2832V55.7427H115V66.1222H120.271V63.1479C120.271 62.7317 120.155 62.3237 119.936 61.9694C119.718 61.6152 119.405 61.3286 119.034 61.1416Z" fill="#EFB635"/>
<path d="M115 57.8952C110.158 55.9572 106.844 51.4299 106.46 46.229L105.568 34.1506H124.432L123.54 46.229C123.156 51.4299 119.841 55.9572 115 57.8952Z" fill="#FEC93E"/>
<path d="M120.683 34.1506L119.791 46.229C119.517 49.9424 117.748 54.7451 114.997 57.894L115 57.8952C119.841 55.9572 123.156 51.4299 123.54 46.229L124.432 34.1506H120.683Z" fill="#EFB635"/>
<path d="M125.315 35.2652H104.685C104.492 35.2652 104.307 35.1886 104.171 35.0523C104.035 34.916 103.958 34.7311 103.958 34.5383V33.3109C103.958 33.1181 104.035 32.9332 104.171 32.7969C104.307 32.6606 104.492 32.584 104.685 32.584H125.315C125.508 32.584 125.692 32.6606 125.829 32.7969C125.965 32.9332 126.042 33.1181 126.042 33.3109V34.5383C126.042 34.6338 126.023 34.7283 125.986 34.8165C125.95 34.9047 125.896 34.9848 125.829 35.0523C125.761 35.1198 125.681 35.1733 125.593 35.2099C125.505 35.2464 125.41 35.2652 125.315 35.2652Z" fill="#F7A738"/>
<path d="M125.315 33.9194H104.685C104.304 33.9194 103.991 33.6254 103.961 33.2517C103.96 33.2712 103.958 33.2909 103.958 33.3109V34.5383C103.958 34.6337 103.977 34.7283 104.013 34.8165C104.05 34.9046 104.104 34.9848 104.171 35.0523C104.307 35.1886 104.492 35.2652 104.685 35.2652H125.315C125.41 35.2652 125.505 35.2464 125.593 35.2098C125.681 35.1733 125.761 35.1198 125.829 35.0523C125.896 34.9848 125.95 34.9046 125.986 34.8165C126.023 34.7283 126.042 34.6337 126.042 34.5383V33.3109C126.042 33.2909 126.04 33.2712 126.039 33.2517C126.009 33.6254 125.696 33.9194 125.315 33.9194Z" fill="#EA9632"/>
<path d="M124.206 69.1964H105.794V65.8605C105.794 64.7599 106.686 63.8677 107.787 63.8677H122.213C123.314 63.8677 124.206 64.7599 124.206 65.8605V69.1964Z" fill="#F7A738"/>
<path d="M122.213 63.8677H120.127V66.2227C120.127 67.0409 119.464 67.7041 118.645 67.7041H105.794V69.1963H124.206V65.8604C124.206 64.7599 123.314 63.8677 122.213 63.8677Z" fill="#EA9632"/>
<path d="M125.782 71.2712H104.218C104.157 71.2712 104.1 71.2473 104.057 71.2047C104.014 71.162 103.99 71.1042 103.99 71.0439V69.0007C103.99 68.9405 104.014 68.8826 104.057 68.84C104.1 68.7974 104.157 68.7734 104.218 68.7734H125.782C125.843 68.7734 125.9 68.7974 125.943 68.84C125.986 68.8826 126.01 68.9405 126.01 69.0007V71.0439C126.01 71.1042 125.986 71.162 125.943 71.2046C125.9 71.2473 125.843 71.2712 125.782 71.2712Z" fill="#FEC93E"/>
<path d="M117.414 58.5893H112.586C111.984 58.5893 111.495 58.1009 111.495 57.4984V57.1466C111.495 56.544 111.984 56.0557 112.586 56.0557H117.414C118.016 56.0557 118.505 56.544 118.505 57.1466V57.4984C118.505 58.1009 118.016 58.5893 117.414 58.5893Z" fill="#FF8150"/>
<path d="M117.414 57.3224H112.586C112.147 57.3224 111.77 57.0626 111.597 56.689C111.53 56.8322 111.495 56.9884 111.495 57.1464V57.4983C111.495 58.1008 111.984 58.5892 112.586 58.5892H117.414C118.016 58.5892 118.505 58.1008 118.505 57.4983V57.1464C118.505 56.9828 118.468 56.8282 118.403 56.689C118.23 57.0626 117.853 57.3224 117.414 57.3224Z" fill="#FD6E2E"/>
<path d="M115.179 38.1808L116.531 41.9133L120.499 42.0455C120.677 42.0514 120.75 42.2771 120.61 42.3868L117.478 44.8258L118.578 48.6399C118.627 48.8114 118.435 48.951 118.287 48.8509L115 46.6258L111.713 48.8509C111.565 48.9509 111.373 48.8114 111.422 48.6399L112.523 44.8258L109.39 42.3868C109.25 42.2771 109.323 42.0514 109.501 42.0455L113.469 41.9133L114.821 38.1808C114.881 38.013 115.119 38.013 115.179 38.1808Z" fill="#F2EBDA"/>
<path d="M125.782 68.7734H121.931V69.581C121.931 70.0582 121.544 70.445 121.067 70.445H104.218C104.157 70.445 104.1 70.4211 104.057 70.3784C104.014 70.3358 103.99 70.278 103.99 70.2177V71.0439C103.99 71.1042 104.014 71.162 104.057 71.2047C104.1 71.2473 104.157 71.2712 104.218 71.2712H125.782C125.843 71.2712 125.9 71.2473 125.943 71.2047C125.986 71.162 126.01 71.1042 126.01 71.0439V69.0007C126.01 68.9405 125.986 68.8827 125.943 68.84C125.9 68.7974 125.843 68.7735 125.782 68.7734Z" fill="#EFB635"/>
<path d="M131.086 37.2618H124.788L124.892 35.8491H125.315C126.038 35.8491 126.626 35.261 126.626 34.5382V33.3109C126.626 32.5881 126.038 32 125.315 32H109.64C109.317 32 109.056 32.2614 109.056 32.5839C109.056 32.9064 109.317 33.1678 109.64 33.1678H125.315C125.394 33.1678 125.458 33.2319 125.458 33.3108V34.5382C125.458 34.5761 125.443 34.6125 125.416 34.6393C125.389 34.6661 125.353 34.6812 125.315 34.6812H104.685C104.647 34.6812 104.611 34.6661 104.584 34.6393C104.557 34.6125 104.542 34.5761 104.542 34.5382V33.3109C104.542 33.232 104.606 33.1679 104.685 33.1679H106.903C107.058 33.1679 107.206 33.1063 107.316 32.9968C107.425 32.8873 107.487 32.7388 107.487 32.5839C107.487 32.4291 107.425 32.2805 107.316 32.171C107.206 32.0615 107.058 32 106.903 32H104.685C103.962 32 103.374 32.5881 103.374 33.3109V34.5383C103.374 35.2611 103.962 35.8492 104.685 35.8492H105.108L105.212 37.2619H98.9137C97.8584 37.2619 97 38.1204 97 39.1756V40.0904C97 42.4774 97.6631 44.8125 98.9176 46.8433C100.171 48.8729 101.965 50.5133 104.098 51.5806L108.735 53.9015C108.787 53.9277 108.834 53.9632 108.873 54.0063C108.885 54.0222 108.898 54.0379 108.911 54.0538C108.966 54.1329 108.996 54.2272 108.996 54.3238C108.996 54.449 108.946 54.5689 108.858 54.6574C108.769 54.7459 108.649 54.7957 108.524 54.7958H107.87C107.715 54.7958 107.566 54.8573 107.457 54.9669C107.347 55.0764 107.286 55.2249 107.286 55.3797C107.286 55.5346 107.347 55.6831 107.457 55.7926C107.566 55.9021 107.715 55.9636 107.87 55.9636H108.524C109.11 55.9636 109.624 55.6537 109.914 55.1901C110.301 55.5848 110.711 55.9566 111.141 56.3037C110.991 56.5592 110.911 56.8502 110.911 57.1467V57.4985C110.911 58.3107 111.493 58.9892 112.261 59.1411C112.049 59.6965 111.637 60.1523 111.105 60.4184L110.704 60.62C109.743 61.1034 109.146 62.0721 109.146 63.148V63.2838H107.787C106.366 63.2838 105.21 64.4397 105.21 65.8606V68.1898H104.218C103.77 68.1898 103.407 68.5537 103.407 69.001V71.0443C103.407 71.4915 103.77 71.8555 104.218 71.8555H125.782C126.23 71.8555 126.593 71.4915 126.593 71.0443V69.0008C126.593 68.5535 126.23 68.1896 125.782 68.1896H124.79V65.8604C124.79 64.4396 123.634 63.2837 122.213 63.2837H120.854V63.1479C120.854 62.0719 120.257 61.1032 119.296 60.6198L118.895 60.4183C118.363 60.1522 117.951 59.6964 117.739 59.141C118.507 58.9891 119.089 58.3106 119.089 57.4984V57.1466C119.089 56.8393 119.004 56.5521 118.859 56.3043C119.289 55.957 119.699 55.5849 120.086 55.1899C120.376 55.6536 120.89 55.9636 121.476 55.9636H122.13C122.453 55.9636 122.714 55.7022 122.714 55.3797C122.714 55.0572 122.453 54.7958 122.13 54.7958H121.476C121.351 54.7957 121.231 54.7459 121.142 54.6574C121.054 54.5689 121.004 54.449 121.004 54.3238C121.004 54.2126 121.042 54.1086 121.109 54.0262L121.112 54.0222C121.154 53.9719 121.206 53.9309 121.264 53.9017L125.902 51.5807C128.035 50.5135 129.829 48.8731 131.082 46.8435C132.336 44.8143 133 42.4759 133 40.0905V39.1756C133 38.1204 132.142 37.2618 131.086 37.2618ZM104.621 50.5361C102.681 49.5659 101.05 48.0746 99.9111 46.2294C98.771 44.3847 98.1673 42.2589 98.1677 40.0903V39.1756C98.1677 38.7643 98.5023 38.4297 98.9136 38.4297H105.298L105.878 46.2719C106.026 48.2812 106.599 50.2361 107.56 52.007L104.621 50.5361ZM124.206 69.3575H125.426V70.6875H104.574V69.3575H124.206ZM120.271 64.4516H122.213C122.99 64.4516 123.622 65.0836 123.622 65.8604V68.1896H106.378V65.8604C106.378 65.0836 107.01 64.4516 107.787 64.4516H120.271ZM118.37 61.4617L118.771 61.6632C119.336 61.9471 119.687 62.516 119.687 63.1479V63.2837H110.313V63.1479C110.313 62.5159 110.664 61.9471 111.229 61.6632L111.63 61.4616C112.558 60.9948 113.222 60.1613 113.475 59.1731H116.525C116.778 60.1613 117.442 60.9948 118.37 61.4617ZM117.921 57.4984C117.921 57.6328 117.867 57.7616 117.772 57.8567C117.677 57.9517 117.548 58.0052 117.414 58.0054H112.586C112.452 58.0052 112.323 57.9517 112.228 57.8567C112.133 57.7616 112.079 57.6328 112.079 57.4984V57.1465C112.079 57.0622 112.1 56.9792 112.141 56.905C112.181 56.8309 112.239 56.768 112.31 56.722C112.311 56.7212 112.312 56.7206 112.314 56.7198C112.354 56.6938 112.398 56.6737 112.444 56.66L112.445 56.6598C112.465 56.6539 112.486 56.6496 112.507 56.6462C112.511 56.6455 112.516 56.6447 112.521 56.6441C112.542 56.6411 112.564 56.6395 112.586 56.6394H117.414C117.436 56.6394 117.458 56.6412 117.479 56.6441C117.484 56.6447 117.488 56.6455 117.493 56.6462C117.514 56.6496 117.534 56.6538 117.554 56.6597L117.555 56.6599C117.602 56.6736 117.645 56.6937 117.686 56.7196C117.687 56.7204 117.689 56.721 117.69 56.7217C117.761 56.7677 117.819 56.8306 117.859 56.9047C117.899 56.9789 117.921 57.0619 117.921 57.1464V57.4984H117.921ZM131.832 40.0903C131.832 42.2603 131.229 44.3832 130.089 46.2294C128.949 48.0746 127.319 49.5659 125.379 50.5361L122.437 52.0088C123.006 50.9612 123.442 49.846 123.733 48.6896C123.768 48.5402 123.743 48.383 123.663 48.2519C123.583 48.1207 123.455 48.0263 123.306 47.9889C123.158 47.9515 123 47.9743 122.868 48.0522C122.736 48.1301 122.639 48.2569 122.6 48.4052C122.154 50.1806 121.339 51.8346 120.225 53.2623C120.203 53.2882 120.182 53.3147 120.161 53.3418C119.508 54.166 118.758 54.9083 117.927 55.5526C117.926 55.5521 117.924 55.5519 117.923 55.5514C117.905 55.5456 117.886 55.5411 117.867 55.5359C117.837 55.5273 117.807 55.5192 117.776 55.5124C117.757 55.5082 117.737 55.5042 117.717 55.5007C117.684 55.4947 117.652 55.4897 117.619 55.4857C117.602 55.4836 117.584 55.4812 117.567 55.4795C117.516 55.4748 117.465 55.4717 117.414 55.4717H112.586C112.535 55.4717 112.484 55.4748 112.433 55.4795C112.415 55.4812 112.398 55.4836 112.381 55.4857C112.348 55.4897 112.315 55.4946 112.283 55.5006C112.263 55.5042 112.243 55.5081 112.223 55.5124C112.193 55.5191 112.163 55.5272 112.133 55.5356C112.114 55.5409 112.095 55.5455 112.076 55.5515C112.075 55.5519 112.074 55.5521 112.073 55.5526C111.258 54.9222 110.521 54.1977 109.876 53.3943C109.84 53.341 109.8 53.2901 109.757 53.2416C108.176 51.2092 107.231 48.7542 107.042 46.1858L106.279 35.8491H123.721L122.986 45.7997C122.975 45.9541 123.025 46.1068 123.126 46.224C123.227 46.3413 123.371 46.4136 123.525 46.4251C123.602 46.4309 123.679 46.4215 123.752 46.3976C123.825 46.3736 123.892 46.3354 123.95 46.2853C124.008 46.2352 124.056 46.1741 124.09 46.1056C124.125 46.037 124.145 45.9623 124.151 45.8858L124.702 38.4297H131.086C131.498 38.4297 131.832 38.7643 131.832 39.1756V40.0903Z" fill="black"/>
<path d="M120.518 41.4618L116.946 41.3428L115.728 37.9819C115.616 37.6715 115.33 37.4709 115 37.4709C114.67 37.4709 114.384 37.6715 114.271 37.9819L113.054 41.3428L109.482 41.4618C109.152 41.4728 108.873 41.6828 108.771 41.9968C108.669 42.3108 108.771 42.6448 109.032 42.8475L111.852 45.0436L110.861 48.478C110.77 48.7951 110.883 49.1255 111.15 49.3195C111.417 49.5136 111.766 49.5194 112.04 49.3343L115 47.3309L117.96 49.3344C118.088 49.4219 118.24 49.4689 118.395 49.4692C118.559 49.4688 118.718 49.4164 118.85 49.3195C119.117 49.1255 119.23 48.7951 119.139 48.478L118.148 45.0435L120.968 42.8475C121.229 42.6447 121.331 42.3107 121.229 41.9967C121.127 41.6828 120.848 41.4728 120.518 41.4618ZM117.119 44.365C117.027 44.4367 116.958 44.5343 116.922 44.6453C116.886 44.7562 116.884 44.8754 116.916 44.9875L117.716 47.7589L115.327 46.1422C115.231 46.0768 115.117 46.0418 115 46.0418C114.883 46.0418 114.769 46.0768 114.673 46.1422L112.284 47.7589L113.083 44.9875C113.116 44.8754 113.114 44.7562 113.078 44.6452C113.042 44.5343 112.973 44.4367 112.881 44.365L110.605 42.5928L113.488 42.4968C113.605 42.4929 113.717 42.4542 113.812 42.3856C113.906 42.317 113.978 42.2217 114.018 42.112L115 39.4L115.982 42.1121C116.022 42.2218 116.094 42.3171 116.188 42.3857C116.282 42.4542 116.395 42.493 116.512 42.4969L119.394 42.5929L117.119 44.365Z" fill="black"/>
</g>
<g opacity="0.5" filter="url(#filter1_f_43_4)">
<path d="M216.995 58.2832V55.7427H213.005V58.2832C213.005 58.8343 212.852 59.3746 212.563 59.8438C212.274 60.3129 211.86 60.6924 211.367 60.94L210.966 61.1416C210.594 61.3286 210.282 61.6152 210.064 61.9695C209.845 62.3237 209.729 62.7317 209.729 63.1479V66.1222H220.271V63.1479C220.271 62.7317 220.155 62.3238 219.936 61.9695C219.718 61.6152 219.406 61.3286 219.034 61.1416L218.633 60.94C218.14 60.6924 217.726 60.3129 217.437 59.8438C217.148 59.3746 216.995 58.8344 216.995 58.2832Z" fill="#FEC93E"/>
<path d="M219.034 61.1416L218.633 60.94C218.14 60.6924 217.726 60.3129 217.437 59.8438C217.148 59.3746 216.995 58.8343 216.995 58.2832V55.7427H215V66.1222H220.271V63.1479C220.271 62.7317 220.155 62.3237 219.936 61.9694C219.718 61.6152 219.405 61.3286 219.034 61.1416Z" fill="#EFB635"/>
<path d="M215 57.8952C210.158 55.9572 206.844 51.4299 206.46 46.229L205.568 34.1506H224.432L223.54 46.229C223.156 51.4299 219.841 55.9572 215 57.8952Z" fill="#FEC93E"/>
<path d="M220.683 34.1506L219.791 46.229C219.517 49.9424 217.748 54.7451 214.997 57.894L215 57.8952C219.841 55.9572 223.156 51.4299 223.54 46.229L224.432 34.1506H220.683Z" fill="#EFB635"/>
<path d="M225.315 35.2652H204.685C204.492 35.2652 204.307 35.1886 204.171 35.0523C204.035 34.916 203.958 34.7311 203.958 34.5383V33.3109C203.958 33.1181 204.035 32.9332 204.171 32.7969C204.307 32.6606 204.492 32.584 204.685 32.584H225.315C225.508 32.584 225.692 32.6606 225.829 32.7969C225.965 32.9332 226.042 33.1181 226.042 33.3109V34.5383C226.042 34.6338 226.023 34.7283 225.986 34.8165C225.95 34.9047 225.896 34.9848 225.829 35.0523C225.761 35.1198 225.681 35.1733 225.593 35.2099C225.505 35.2464 225.41 35.2652 225.315 35.2652Z" fill="#F7A738"/>
<path d="M225.315 33.9194H204.685C204.304 33.9194 203.991 33.6254 203.961 33.2517C203.96 33.2712 203.958 33.2909 203.958 33.3109V34.5383C203.958 34.6337 203.977 34.7283 204.013 34.8165C204.05 34.9046 204.104 34.9848 204.171 35.0523C204.307 35.1886 204.492 35.2652 204.685 35.2652H225.315C225.41 35.2652 225.505 35.2464 225.593 35.2098C225.681 35.1733 225.761 35.1198 225.829 35.0523C225.896 34.9848 225.95 34.9046 225.986 34.8165C226.023 34.7283 226.042 34.6337 226.042 34.5383V33.3109C226.042 33.2909 226.04 33.2712 226.039 33.2517C226.009 33.6254 225.696 33.9194 225.315 33.9194Z" fill="#EA9632"/>
<path d="M224.206 69.1964H205.794V65.8605C205.794 64.7599 206.686 63.8677 207.787 63.8677H222.213C223.314 63.8677 224.206 64.7599 224.206 65.8605V69.1964Z" fill="#F7A738"/>
<path d="M222.213 63.8677H220.127V66.2227C220.127 67.0409 219.464 67.7041 218.645 67.7041H205.794V69.1963H224.206V65.8604C224.206 64.7599 223.314 63.8677 222.213 63.8677Z" fill="#EA9632"/>
<path d="M225.782 71.2712H204.218C204.157 71.2712 204.1 71.2473 204.057 71.2047C204.014 71.162 203.99 71.1042 203.99 71.0439V69.0007C203.99 68.9405 204.014 68.8826 204.057 68.84C204.1 68.7974 204.157 68.7734 204.218 68.7734H225.782C225.843 68.7734 225.9 68.7974 225.943 68.84C225.986 68.8826 226.01 68.9405 226.01 69.0007V71.0439C226.01 71.1042 225.986 71.162 225.943 71.2046C225.9 71.2473 225.843 71.2712 225.782 71.2712Z" fill="#FEC93E"/>
<path d="M217.414 58.5893H212.586C211.984 58.5893 211.495 58.1009 211.495 57.4984V57.1466C211.495 56.544 211.984 56.0557 212.586 56.0557H217.414C218.016 56.0557 218.505 56.544 218.505 57.1466V57.4984C218.505 58.1009 218.016 58.5893 217.414 58.5893Z" fill="#FF8150"/>
<path d="M217.414 57.3224H212.586C212.147 57.3224 211.77 57.0626 211.597 56.689C211.53 56.8322 211.495 56.9884 211.495 57.1464V57.4983C211.495 58.1008 211.984 58.5892 212.586 58.5892H217.414C218.016 58.5892 218.505 58.1008 218.505 57.4983V57.1464C218.505 56.9828 218.468 56.8282 218.403 56.689C218.23 57.0626 217.853 57.3224 217.414 57.3224Z" fill="#FD6E2E"/>
<path d="M215.179 38.1808L216.531 41.9133L220.499 42.0455C220.677 42.0514 220.75 42.2771 220.61 42.3868L217.478 44.8258L218.578 48.6399C218.627 48.8114 218.435 48.951 218.287 48.8509L215 46.6258L211.713 48.8509C211.565 48.9509 211.373 48.8114 211.422 48.6399L212.523 44.8258L209.39 42.3868C209.25 42.2771 209.323 42.0514 209.501 42.0455L213.469 41.9133L214.821 38.1808C214.881 38.013 215.119 38.013 215.179 38.1808Z" fill="#F2EBDA"/>
<path d="M225.782 68.7734H221.931V69.581C221.931 70.0582 221.544 70.445 221.067 70.445H204.218C204.157 70.445 204.1 70.4211 204.057 70.3784C204.014 70.3358 203.99 70.278 203.99 70.2177V71.0439C203.99 71.1042 204.014 71.162 204.057 71.2047C204.1 71.2473 204.157 71.2712 204.218 71.2712H225.782C225.843 71.2712 225.9 71.2473 225.943 71.2047C225.986 71.162 226.01 71.1042 226.01 71.0439V69.0007C226.01 68.9405 225.986 68.8827 225.943 68.84C225.9 68.7974 225.843 68.7735 225.782 68.7734Z" fill="#EFB635"/>
<path d="M231.086 37.2618H224.788L224.892 35.8491H225.315C226.038 35.8491 226.626 35.261 226.626 34.5382V33.3109C226.626 32.5881 226.038 32 225.315 32H209.64C209.317 32 209.056 32.2614 209.056 32.5839C209.056 32.9064 209.317 33.1678 209.64 33.1678H225.315C225.394 33.1678 225.458 33.2319 225.458 33.3108V34.5382C225.458 34.5761 225.443 34.6125 225.416 34.6393C225.389 34.6661 225.353 34.6812 225.315 34.6812H204.685C204.647 34.6812 204.611 34.6661 204.584 34.6393C204.557 34.6125 204.542 34.5761 204.542 34.5382V33.3109C204.542 33.232 204.606 33.1679 204.685 33.1679H206.903C207.058 33.1679 207.206 33.1063 207.316 32.9968C207.425 32.8873 207.487 32.7388 207.487 32.5839C207.487 32.4291 207.425 32.2805 207.316 32.171C207.206 32.0615 207.058 32 206.903 32H204.685C203.962 32 203.374 32.5881 203.374 33.3109V34.5383C203.374 35.2611 203.962 35.8492 204.685 35.8492H205.108L205.212 37.2619H198.914C197.858 37.2619 197 38.1204 197 39.1756V40.0904C197 42.4774 197.663 44.8125 198.918 46.8433C200.171 48.8729 201.965 50.5133 204.098 51.5806L208.735 53.9015C208.787 53.9277 208.834 53.9632 208.873 54.0063C208.885 54.0222 208.898 54.0379 208.911 54.0538C208.966 54.1329 208.996 54.2272 208.996 54.3238C208.996 54.449 208.946 54.5689 208.858 54.6574C208.769 54.7459 208.649 54.7957 208.524 54.7958H207.87C207.715 54.7958 207.566 54.8573 207.457 54.9669C207.347 55.0764 207.286 55.2249 207.286 55.3797C207.286 55.5346 207.347 55.6831 207.457 55.7926C207.566 55.9021 207.715 55.9636 207.87 55.9636H208.524C209.11 55.9636 209.624 55.6537 209.914 55.1901C210.301 55.5848 210.711 55.9566 211.141 56.3037C210.991 56.5592 210.911 56.8502 210.911 57.1467V57.4985C210.911 58.3107 211.493 58.9892 212.261 59.1411C212.049 59.6965 211.637 60.1523 211.105 60.4184L210.704 60.62C209.743 61.1034 209.146 62.0721 209.146 63.148V63.2838H207.787C206.366 63.2838 205.21 64.4397 205.21 65.8606V68.1898H204.218C203.77 68.1898 203.407 68.5537 203.407 69.001V71.0443C203.407 71.4915 203.77 71.8555 204.218 71.8555H225.782C226.23 71.8555 226.593 71.4915 226.593 71.0443V69.0008C226.593 68.5535 226.23 68.1896 225.782 68.1896H224.79V65.8604C224.79 64.4396 223.634 63.2837 222.213 63.2837H220.854V63.1479C220.854 62.0719 220.257 61.1032 219.296 60.6198L218.895 60.4183C218.363 60.1522 217.951 59.6964 217.739 59.141C218.507 58.9891 219.089 58.3106 219.089 57.4984V57.1466C219.089 56.8393 219.004 56.5521 218.859 56.3043C219.289 55.957 219.699 55.5849 220.086 55.1899C220.376 55.6536 220.89 55.9636 221.476 55.9636H222.13C222.453 55.9636 222.714 55.7022 222.714 55.3797C222.714 55.0572 222.453 54.7958 222.13 54.7958H221.476C221.351 54.7957 221.231 54.7459 221.142 54.6574C221.054 54.5689 221.004 54.449 221.004 54.3238C221.004 54.2126 221.042 54.1086 221.109 54.0262L221.112 54.0222C221.154 53.9719 221.206 53.9309 221.264 53.9017L225.902 51.5807C228.035 50.5135 229.829 48.8731 231.082 46.8435C232.336 44.8143 233 42.4759 233 40.0905V39.1756C233 38.1204 232.142 37.2618 231.086 37.2618ZM204.621 50.5361C202.681 49.5659 201.05 48.0746 199.911 46.2294C198.771 44.3847 198.167 42.2589 198.168 40.0903V39.1756C198.168 38.7643 198.502 38.4297 198.914 38.4297H205.298L205.878 46.2719C206.026 48.2812 206.599 50.2361 207.56 52.007L204.621 50.5361ZM224.206 69.3575H225.426V70.6875H204.574V69.3575H224.206ZM220.271 64.4516H222.213C222.99 64.4516 223.622 65.0836 223.622 65.8604V68.1896H206.378V65.8604C206.378 65.0836 207.01 64.4516 207.787 64.4516H220.271ZM218.37 61.4617L218.771 61.6632C219.336 61.9471 219.687 62.516 219.687 63.1479V63.2837H210.313V63.1479C210.313 62.5159 210.664 61.9471 211.229 61.6632L211.63 61.4616C212.558 60.9948 213.222 60.1613 213.475 59.1731H216.525C216.778 60.1613 217.442 60.9948 218.37 61.4617ZM217.921 57.4984C217.921 57.6328 217.867 57.7616 217.772 57.8567C217.677 57.9517 217.548 58.0052 217.414 58.0054H212.586C212.452 58.0052 212.323 57.9517 212.228 57.8567C212.133 57.7616 212.079 57.6328 212.079 57.4984V57.1465C212.079 57.0622 212.1 56.9792 212.141 56.905C212.181 56.8309 212.239 56.768 212.31 56.722C212.311 56.7212 212.312 56.7206 212.314 56.7198C212.354 56.6938 212.398 56.6737 212.444 56.66L212.445 56.6598C212.465 56.6539 212.486 56.6496 212.507 56.6462C212.511 56.6455 212.516 56.6447 212.521 56.6441C212.542 56.6411 212.564 56.6395 212.586 56.6394H217.414C217.436 56.6394 217.458 56.6412 217.479 56.6441C217.484 56.6447 217.488 56.6455 217.493 56.6462C217.514 56.6496 217.534 56.6538 217.554 56.6597L217.555 56.6599C217.602 56.6736 217.645 56.6937 217.686 56.7196C217.687 56.7204 217.689 56.721 217.69 56.7217C217.761 56.7677 217.819 56.8306 217.859 56.9047C217.899 56.9789 217.921 57.0619 217.921 57.1464V57.4984H217.921ZM231.832 40.0903C231.832 42.2603 231.229 44.3832 230.089 46.2294C228.949 48.0746 227.319 49.5659 225.379 50.5361L222.437 52.0088C223.006 50.9612 223.442 49.846 223.733 48.6896C223.768 48.5402 223.743 48.383 223.663 48.2519C223.583 48.1207 223.455 48.0263 223.306 47.9889C223.158 47.9515 223 47.9743 222.868 48.0522C222.736 48.1301 222.639 48.2569 222.6 48.4052C222.154 50.1806 221.339 51.8346 220.225 53.2623C220.203 53.2882 220.182 53.3147 220.161 53.3418C219.508 54.166 218.758 54.9083 217.927 55.5526C217.926 55.5521 217.924 55.5519 217.923 55.5514C217.905 55.5456 217.886 55.5411 217.867 55.5359C217.837 55.5273 217.807 55.5192 217.776 55.5124C217.757 55.5082 217.737 55.5042 217.717 55.5007C217.684 55.4947 217.652 55.4897 217.619 55.4857C217.602 55.4836 217.584 55.4812 217.567 55.4795C217.516 55.4748 217.465 55.4717 217.414 55.4717H212.586C212.535 55.4717 212.484 55.4748 212.433 55.4795C212.415 55.4812 212.398 55.4836 212.381 55.4857C212.348 55.4897 212.315 55.4946 212.283 55.5006C212.263 55.5042 212.243 55.5081 212.223 55.5124C212.193 55.5191 212.163 55.5272 212.133 55.5356C212.114 55.5409 212.095 55.5455 212.076 55.5515C212.075 55.5519 212.074 55.5521 212.073 55.5526C211.258 54.9222 210.521 54.1977 209.876 53.3943C209.84 53.341 209.8 53.2901 209.757 53.2416C208.176 51.2092 207.231 48.7542 207.042 46.1858L206.279 35.8491H223.721L222.986 45.7997C222.975 45.9541 223.025 46.1068 223.126 46.224C223.227 46.3413 223.371 46.4136 223.525 46.4251C223.602 46.4309 223.679 46.4215 223.752 46.3976C223.825 46.3736 223.892 46.3354 223.95 46.2853C224.008 46.2352 224.056 46.1741 224.09 46.1056C224.125 46.037 224.145 45.9623 224.151 45.8858L224.702 38.4297H231.086C231.498 38.4297 231.832 38.7643 231.832 39.1756V40.0903Z" fill="black"/>
<path d="M220.518 41.4618L216.946 41.3428L215.728 37.9819C215.616 37.6715 215.33 37.4709 215 37.4709C214.67 37.4709 214.384 37.6715 214.271 37.9819L213.054 41.3428L209.482 41.4618C209.152 41.4728 208.873 41.6828 208.771 41.9968C208.669 42.3108 208.771 42.6448 209.032 42.8475L211.852 45.0436L210.861 48.478C210.77 48.7951 210.883 49.1255 211.15 49.3195C211.417 49.5136 211.766 49.5194 212.04 49.3343L215 47.3309L217.96 49.3344C218.088 49.4219 218.24 49.4689 218.395 49.4692C218.559 49.4688 218.718 49.4164 218.85 49.3195C219.117 49.1255 219.23 48.7951 219.139 48.478L218.148 45.0435L220.968 42.8475C221.229 42.6447 221.331 42.3107 221.229 41.9967C221.127 41.6828 220.848 41.4728 220.518 41.4618ZM217.119 44.365C217.027 44.4367 216.958 44.5343 216.922 44.6453C216.886 44.7562 216.884 44.8754 216.916 44.9875L217.716 47.7589L215.327 46.1422C215.231 46.0768 215.117 46.0418 215 46.0418C214.883 46.0418 214.769 46.0768 214.673 46.1422L212.284 47.7589L213.083 44.9875C213.116 44.8754 213.114 44.7562 213.078 44.6452C213.042 44.5343 212.973 44.4367 212.881 44.365L210.605 42.5928L213.488 42.4968C213.605 42.4929 213.717 42.4542 213.812 42.3856C213.906 42.317 213.978 42.2217 214.018 42.112L215 39.4L215.982 42.1121C216.022 42.2218 216.094 42.3171 216.188 42.3857C216.282 42.4542 216.395 42.493 216.512 42.4969L219.394 42.5929L217.119 44.365Z" fill="black"/>
</g>
<defs>
<filter id="filter0_f_43_4" x="93" y="28" width="44" height="47.8555" filterUnits="userSpaceOnUse" color-interpolation-filters="sRGB">
<feFlood flood-opacity="0" result="BackgroundImageFix"/>
<feBlend mode="normal" in="SourceGraphic" in2="BackgroundImageFix" result="shape"/>
<feGaussianBlur stdDeviation="2" result="effect1_foregroundBlur_43_4"/>
</filter>
<filter id="filter1_f_43_4" x="193" y="28" width="44" height="47.8555" filterUnits="userSpaceOnUse" color-interpolation-filters="sRGB">
<feFlood flood-opacity="0" result="BackgroundImageFix"/>
<feBlend mode="normal" in="SourceGraphic" in2="BackgroundImageFix" result="shape"/>
<feGaussianBlur stdDeviation="2" result="effect1_foregroundBlur_43_4"/>
</filter>
</defs>
</svg>
