<svg width="330" height="146" viewBox="0 0 330 146" fill="none" xmlns="http://www.w3.org/2000/svg">
<rect y="0.000488281" width="330" height="146" rx="20" fill="white" fill-opacity="0.8"/>
<path d="M150.987 61.0794C148.893 62.2344 147.985 63.2728 147.985 63.2728L144.795 57.1799L138.791 61.1985L143.624 63.8569V69.2114L152.411 64.0242L151.005 61.0907L150.987 61.0794ZM179.012 61.0794C181.106 62.2344 182.014 63.2728 182.014 63.2728L185.204 57.1799L191.209 61.1986L186.375 63.857V69.2115L177.589 64.0243L178.995 61.0908L179.012 61.0794Z" fill="#B32425"/>
<path d="M151.005 61.0905C151.005 61.0905 150.991 61.0901 150.968 61.0901C148.888 62.2407 147.985 63.2726 147.985 63.2726L152.411 64.0239L151.005 61.0905ZM178.994 61.0905C178.994 61.0905 179.008 61.0901 179.032 61.0901C181.112 62.2407 182.015 63.2726 182.015 63.2726L177.589 64.0239L178.994 61.0905Z" fill="#8C1E23"/>
<path d="M148.939 51.3191C145.206 53.0895 143.624 54.9432 143.624 54.9432L147.985 63.2728C147.985 63.2728 149.888 61.0962 154.54 59.5401C152.176 57.0428 150.349 54.2315 148.939 51.3191ZM181.061 51.3191C179.651 54.2315 177.823 57.0427 175.46 59.5401C180.112 61.0962 182.014 63.2728 182.014 63.2728L186.375 54.9432C186.375 54.9432 184.793 53.0894 181.061 51.3191Z" fill="#E93234"/>
<path d="M165 66.585C188.841 57.101 185.542 25.0598 185.542 25.0598C173.079 23.7741 165 17.021 165 17.021C165 17.021 156.921 23.7741 144.458 25.0598C144.458 25.0598 141.158 57.101 165 66.585Z" fill="#F5BA3D"/>
<path d="M181.061 51.3191C179.651 54.2315 177.823 57.0427 175.46 59.5401C176.109 59.7565 176.748 60.0019 177.375 60.2753C179.776 57.9115 181.66 55.2312 183.136 52.4297C182.535 52.0677 181.846 51.6916 181.061 51.3191ZM148.939 51.3191C150.349 54.2315 152.176 57.0427 154.54 59.5401C153.891 59.7565 153.252 60.0019 152.625 60.2753C150.224 57.9115 148.34 55.2312 146.864 52.4297C147.464 52.0677 148.153 51.6916 148.939 51.3191Z" fill="#B32425"/>
<path d="M185.542 25.0598C184.7 24.9725 183.86 24.8587 183.025 24.7185C183.288 32.0848 182.609 56.4722 163.069 65.7391C163.703 66.0429 164.347 66.3251 165 66.5851C188.841 57.1011 185.542 25.0598 185.542 25.0598Z" fill="#EF9325"/>
<path d="M165 60.6817C183.162 53.4569 180.649 29.0485 180.649 29.0485C171.154 28.0691 165 22.9246 165 22.9246C165 22.9246 158.845 28.069 149.351 29.0485C149.351 29.0485 146.838 53.4569 165 60.6817Z" fill="#F9EBB7"/>
<path d="M162.882 48.0994C162.357 48.0994 161.854 47.8909 161.482 47.5199L156.982 43.019C156.209 42.2462 156.209 40.9932 156.982 40.2204C157.754 39.4476 159.007 39.4476 159.78 40.2204L162.882 43.322L170.484 35.7196C171.257 34.9467 172.51 34.9466 173.283 35.7195C174.056 36.4924 174.056 37.7453 173.283 38.5181L164.281 47.5197C164.097 47.7035 163.879 47.8493 163.639 47.9488C163.399 48.0482 163.142 48.0994 162.882 48.0994Z" fill="#00B76C"/>
<path d="M191.649 60.5413L186.234 56.9175L187.076 55.3099C187.149 55.17 187.179 55.0115 187.161 54.8547C187.143 54.6978 187.079 54.5499 186.977 54.4298C186.912 54.354 185.447 52.664 182.107 50.9537C183.302 48.3535 184.263 45.51 184.981 42.4465C187.142 33.2273 186.363 25.3114 186.329 24.979C186.31 24.7982 186.23 24.6293 186.101 24.5008C185.973 24.3723 185.804 24.292 185.623 24.2734C179.329 23.6241 174.199 21.5251 171.004 19.8787C167.531 18.0891 165.526 16.4306 165.507 16.4144C165.365 16.2956 165.185 16.2305 165 16.2305C164.814 16.2305 164.635 16.2956 164.493 16.4144C164.414 16.4805 156.459 23.027 144.376 24.2735C144.196 24.2921 144.027 24.3725 143.898 24.501C143.77 24.6295 143.689 24.7983 143.671 24.9791C143.655 25.1283 143.299 28.6919 143.7 33.8278C143.708 33.9314 143.737 34.0324 143.784 34.125C143.831 34.2176 143.896 34.3 143.975 34.3675C144.054 34.435 144.145 34.4863 144.244 34.5184C144.343 34.5505 144.447 34.5628 144.55 34.5546C144.759 34.5383 144.953 34.4396 145.09 34.2802C145.226 34.1208 145.294 33.9138 145.277 33.7047C144.984 29.9479 145.112 27.0078 145.194 25.7736C151.456 25.0235 156.552 22.9218 159.765 21.261C162.384 19.9074 164.178 18.6449 165 18.0254C165.821 18.6449 167.615 19.9074 170.234 21.261C173.447 22.9218 178.543 25.0234 184.805 25.7736C184.941 27.8237 185.2 34.5836 183.441 42.0858C182.68 45.3358 181.636 48.3238 180.326 51.0208C180.289 51.0963 180.252 51.1708 180.215 51.2456C180.134 51.4087 180.052 51.5712 179.969 51.733C179.923 51.8239 179.876 51.9145 179.828 52.005C179.668 52.3105 179.503 52.6136 179.333 52.9143C179.265 53.0362 179.195 53.1577 179.125 53.2789C179.055 53.3999 178.984 53.5205 178.912 53.6406C178.861 53.7272 178.809 53.8128 178.756 53.8986C178.588 54.1746 178.417 54.4481 178.241 54.719C178.228 54.7387 178.215 54.7588 178.202 54.7785C178.072 54.9771 177.94 55.1742 177.805 55.3699C177.263 56.1621 176.683 56.9282 176.068 57.6656L176.058 57.6782C175.94 57.8187 175.821 57.9581 175.701 58.0964C175.607 58.2047 175.511 58.3122 175.415 58.4191C175.396 58.4406 175.377 58.4625 175.358 58.4839C175.249 58.6038 175.14 58.7227 175.03 58.8407L175.013 58.8589C172.222 61.8434 168.868 64.1473 165 65.7324C161.213 64.1792 156.973 61.5215 153.377 56.9794L153.342 56.9356C153.27 56.8433 153.198 56.7505 153.126 56.6572C151.815 54.941 150.65 53.0397 149.651 50.9746C149.628 50.9273 149.6 50.8824 149.568 50.8405C147.757 47.0714 146.351 42.4722 145.608 36.8571C145.579 36.6504 145.469 36.4635 145.303 36.3372C145.137 36.2109 144.928 36.1554 144.721 36.1828C144.514 36.2102 144.326 36.3182 144.199 36.4834C144.071 36.6485 144.014 36.8574 144.04 37.0645C144.722 42.2162 146.015 46.8723 147.892 50.9537C144.553 52.6642 143.087 54.3542 143.023 54.4299C142.92 54.55 142.856 54.698 142.838 54.8548C142.821 55.0116 142.85 55.1701 142.923 55.31L143.765 56.9176L138.351 60.5414C138.238 60.6169 138.147 60.7203 138.085 60.8414C138.024 60.9625 137.995 61.0974 138.001 61.233C138.007 61.3686 138.047 61.5004 138.119 61.6157C138.191 61.7311 138.291 61.826 138.41 61.8915L142.833 64.3246V69.2115C142.833 69.3509 142.87 69.4879 142.94 69.6084C143.011 69.729 143.111 69.8289 143.232 69.898C143.353 69.9671 143.491 70.003 143.63 70.002C143.769 70.001 143.906 69.9632 144.026 69.8924L152.813 64.7052C152.818 64.7019 152.823 64.6982 152.829 64.6948C152.853 64.6791 152.877 64.6622 152.901 64.6441C152.908 64.6384 152.915 64.6328 152.922 64.6269C152.941 64.6112 152.958 64.5947 152.975 64.5776C152.978 64.5749 152.981 64.5725 152.983 64.5696C153.004 64.5482 153.023 64.5258 153.04 64.5024L153.042 64.5002C153.044 64.4983 153.045 64.4962 153.046 64.4943C153.064 64.4697 153.081 64.4443 153.096 64.418C153.099 64.4124 153.102 64.4069 153.105 64.4013C153.121 64.373 153.135 64.3441 153.146 64.3144C153.148 64.3093 153.15 64.3042 153.152 64.299C153.161 64.2733 153.169 64.2471 153.176 64.2206C153.178 64.2136 153.18 64.2066 153.182 64.1995C153.189 64.1686 153.194 64.1375 153.197 64.1059C153.198 64.1017 153.198 64.0974 153.198 64.0931C153.201 64.0646 153.202 64.0361 153.201 64.0074C153.2 63.9683 153.197 63.9292 153.191 63.8906L153.189 63.8839C153.182 63.8465 153.173 63.8097 153.161 63.7738C153.15 63.7425 153.138 63.7119 153.124 63.6821L152.041 61.4216C152.691 61.0975 153.45 60.7652 154.323 60.4522C157.242 63.4314 160.714 65.7309 164.708 67.3198C164.895 67.3945 165.105 67.3945 165.292 67.3198C169.28 65.7337 172.756 63.432 175.677 60.4524C176.55 60.7654 177.309 61.0976 177.959 61.4217L176.876 63.6822C176.858 63.7191 176.844 63.7574 176.832 63.7965C176.824 63.8253 176.816 63.8546 176.811 63.8842C176.811 63.8864 176.81 63.8886 176.81 63.8908C176.804 63.923 176.801 63.9554 176.8 63.988C176.799 63.9946 176.799 64.0012 176.799 64.0077C176.799 64.0364 176.799 64.065 176.802 64.0934C176.802 64.0977 176.802 64.102 176.803 64.1062C176.806 64.1377 176.811 64.169 176.819 64.1998C176.82 64.2069 176.822 64.2139 176.824 64.221C176.831 64.2474 176.839 64.2735 176.848 64.2991C176.85 64.3043 176.852 64.3095 176.854 64.3147C176.866 64.3445 176.879 64.3732 176.895 64.4014C176.898 64.4071 176.901 64.4127 176.904 64.4183C176.919 64.4444 176.936 64.47 176.954 64.4943C176.955 64.4962 176.956 64.4984 176.958 64.5003L176.96 64.5026C176.977 64.5259 176.996 64.5483 177.017 64.5697C177.019 64.5726 177.022 64.575 177.025 64.5777C177.042 64.5948 177.059 64.6113 177.078 64.627C177.085 64.6329 177.092 64.6385 177.099 64.6442C177.122 64.6624 177.147 64.6793 177.171 64.6949C177.177 64.6983 177.182 64.702 177.187 64.7053L185.974 69.8925C186.094 69.9635 186.23 70.0015 186.37 70.0025C186.509 70.0035 186.647 69.9676 186.768 69.8983C186.889 69.8291 186.99 69.7292 187.06 69.6086C187.13 69.488 187.166 69.351 187.166 69.2116V64.3246L191.59 61.8915C191.709 61.826 191.809 61.7311 191.881 61.6158C191.953 61.5004 191.993 61.3686 191.999 61.2329C192.005 61.0973 191.976 60.9624 191.914 60.8413C191.853 60.7202 191.761 60.6169 191.649 60.5413ZM149.838 62.7344C149.878 62.705 149.919 62.6756 149.962 62.6455C149.989 62.6269 150.017 62.6079 150.044 62.5891C150.088 62.5588 150.132 62.5285 150.178 62.4974C150.206 62.4787 150.235 62.4594 150.264 62.4404C150.312 62.4083 150.36 62.3764 150.411 62.3436C150.429 62.3319 150.449 62.3199 150.467 62.3081C150.524 62.2716 150.582 62.2351 150.641 62.198L150.655 62.1894L151.038 62.9888L149.781 62.7753C149.799 62.7619 149.818 62.7481 149.838 62.7344ZM144.005 63.1639L140.311 61.1322L144.503 58.3269L147.284 63.6396C147.3 63.6688 147.317 63.6968 147.335 63.7235C147.343 63.7339 147.351 63.7433 147.359 63.7533C147.371 63.7692 147.383 63.7855 147.397 63.8002C147.41 63.815 147.424 63.8284 147.439 63.8421C147.448 63.8507 147.456 63.8597 147.465 63.8677C147.483 63.883 147.502 63.897 147.521 63.9107C147.527 63.9156 147.534 63.9209 147.541 63.9256C147.562 63.94 147.584 63.9529 147.607 63.9652C147.612 63.968 147.617 63.9711 147.622 63.9738C147.651 63.9884 147.68 64.0012 147.709 64.0121C147.739 64.0233 147.77 64.0326 147.801 64.0401C147.819 64.0442 147.835 64.0495 147.853 64.0524L150.148 64.4419L144.415 67.8263V63.857C144.415 63.7154 144.377 63.5764 144.305 63.4545C144.233 63.3326 144.129 63.2322 144.005 63.1639ZM153.16 59.1981C152.174 59.5827 151.329 59.9887 150.612 60.3838C150.61 60.3851 150.608 60.3857 150.605 60.387L150.585 60.3982L150.585 60.3983L150.577 60.4027C150.484 60.4546 150.39 60.5074 150.298 60.5611C150.262 60.5815 150.227 60.6017 150.193 60.622L150.181 60.6288L150.165 60.6382C150.07 60.6941 149.978 60.7494 149.888 60.8043L149.846 60.8298C149.792 60.8635 149.739 60.8967 149.686 60.9299L149.653 60.9511L149.649 60.9537C149.041 61.3402 148.562 61.6984 148.207 61.9915L145.62 57.0498L144.592 55.0858C145.167 54.5426 146.445 53.4751 148.582 52.3771C148.664 52.5372 148.747 52.6966 148.831 52.8554C148.874 52.9359 148.917 53.0155 148.96 53.0955C149.069 53.2975 149.18 53.4985 149.292 53.6984C149.317 53.7428 149.341 53.7884 149.366 53.8326C150.211 55.317 151.142 56.7016 152.156 57.9872L152.227 58.0763C152.309 58.18 152.392 58.2831 152.476 58.3854C152.518 58.438 152.562 58.4902 152.605 58.5426C152.678 58.6315 152.752 58.7205 152.826 58.8083C152.936 58.9393 153.048 59.0692 153.16 59.1981ZM179.188 62.5156L179.345 62.1896L179.359 62.1983C179.418 62.2352 179.475 62.2716 179.532 62.3079C179.551 62.3198 179.571 62.332 179.589 62.3439C179.64 62.3767 179.688 62.4088 179.736 62.4411C179.765 62.4598 179.794 62.479 179.822 62.4976C179.868 62.5287 179.912 62.5591 179.956 62.5896C179.983 62.6083 180.011 62.6273 180.038 62.6459C180.08 62.6755 180.12 62.7042 180.16 62.7331C180.18 62.7474 180.2 62.7618 180.22 62.7758L178.962 62.9893L179.188 62.5156ZM176.845 59.1919C176.913 59.114 176.98 59.0348 177.047 58.9561C177.088 58.9081 177.13 58.8608 177.17 58.8126C177.273 58.6905 177.376 58.5677 177.477 58.4442L177.487 58.4316C177.986 57.8223 178.463 57.1947 178.915 56.5501C178.976 56.4638 179.034 56.3751 179.094 56.2881C179.166 56.1825 179.239 56.0764 179.31 55.9699C179.456 55.7528 179.598 55.534 179.738 55.3134C179.998 54.9056 180.25 54.4923 180.492 54.0738C180.581 53.9215 180.668 53.7686 180.754 53.6151C180.801 53.5304 180.849 53.446 180.896 53.3607C181.048 53.0844 181.196 52.806 181.34 52.5258C181.366 52.4762 181.392 52.4271 181.417 52.3773C183.54 53.4692 184.827 54.5428 185.407 55.0877L181.793 61.9916C181.438 61.6985 180.959 61.3402 180.351 60.9537L180.347 60.9512L180.314 60.93C180.261 60.8968 180.208 60.8636 180.154 60.83L180.101 60.7981C180.014 60.7451 179.926 60.692 179.835 60.6382L179.819 60.6288L179.807 60.622C179.773 60.6017 179.737 60.5815 179.702 60.5611C179.643 60.5269 179.583 60.4928 179.522 60.4583C179.489 60.4398 179.456 60.4213 179.422 60.4027L179.414 60.3983L179.414 60.3982L179.394 60.387C179.392 60.3857 179.39 60.385 179.388 60.3837C178.671 59.9886 177.826 59.5825 176.839 59.198L176.845 59.1919ZM185.994 63.1639C185.87 63.2322 185.767 63.3325 185.695 63.4544C185.623 63.5763 185.584 63.7153 185.584 63.8569V67.8262L179.852 64.4418L182.147 64.0523C182.155 64.0509 182.163 64.0481 182.171 64.0464C182.205 64.0396 182.238 64.0307 182.27 64.0197C182.289 64.0134 182.307 64.0064 182.324 63.9987C182.337 63.9931 182.351 63.9874 182.363 63.9811C182.381 63.9726 182.398 63.9631 182.414 63.9533C182.426 63.9462 182.439 63.9394 182.45 63.9317C182.467 63.9204 182.483 63.9086 182.498 63.8962C182.509 63.8881 182.52 63.8805 182.53 63.8718C182.546 63.8575 182.562 63.8425 182.577 63.8268C182.585 63.8186 182.593 63.811 182.601 63.8023C182.619 63.7826 182.635 63.7614 182.651 63.7398C182.655 63.7343 182.66 63.7295 182.664 63.7239C182.682 63.697 182.7 63.6687 182.715 63.6393L185.496 58.3266L189.688 61.1319L185.994 63.1639Z" fill="black"/>
<path d="M181.483 34.7045C181.672 31.3304 181.445 29.0624 181.435 28.9675C181.416 28.7867 181.336 28.6179 181.208 28.4894C181.079 28.3609 180.91 28.2805 180.73 28.2619C171.607 27.3208 165.566 22.3673 165.507 22.3178C165.365 22.1992 165.185 22.1341 165 22.134C164.815 22.134 164.636 22.1988 164.493 22.3174C164.433 22.3674 158.393 27.3209 149.27 28.2619C149.089 28.2805 148.92 28.3609 148.792 28.4894C148.663 28.6179 148.583 28.7867 148.565 28.9675C148.549 29.1141 148.201 32.6126 148.744 37.3894C149.248 41.8145 150.651 48.1959 154.475 53.4666C154.548 53.5678 154.644 53.6502 154.756 53.707C154.867 53.7637 154.99 53.7932 155.115 53.7931C155.261 53.793 155.404 53.7526 155.528 53.6764C155.652 53.6002 155.753 53.4911 155.819 53.3612C155.886 53.2313 155.914 53.0857 155.903 52.9404C155.892 52.7951 155.84 52.6557 155.755 52.5378C152.141 47.5562 150.805 41.474 150.32 37.2488C149.923 33.7843 150.017 30.9648 150.091 29.7601C157.92 28.7866 163.362 25.1475 165 23.9264C166.638 25.1476 172.079 28.7869 179.909 29.7601C179.964 30.6405 180.029 32.384 179.904 34.6155C179.898 34.7192 179.912 34.823 179.947 34.921C179.981 35.019 180.034 35.1093 180.103 35.1868C180.173 35.2642 180.256 35.3272 180.35 35.3723C180.443 35.4173 180.545 35.4435 180.649 35.4493C181.086 35.4731 181.458 35.1406 181.483 34.7045ZM164.707 61.4165C164.895 61.4911 165.104 61.4911 165.292 61.4165C170.39 59.3884 174.38 55.8575 177.151 50.9217C179.203 47.2673 180.56 42.9077 181.186 37.9637C181.208 37.7579 181.148 37.5519 181.019 37.3897C180.891 37.2276 180.704 37.1222 180.499 37.0962C180.294 37.0702 180.086 37.1257 179.921 37.2507C179.757 37.3758 179.647 37.5604 179.617 37.7651C177.857 51.673 170.763 57.4411 165 59.8284C162.214 58.6759 159.772 57.0217 157.736 54.9087C157.59 54.7599 157.391 54.6747 157.183 54.6718C156.974 54.6688 156.773 54.7483 156.623 54.893C156.473 55.0376 156.386 55.2357 156.381 55.4442C156.376 55.6526 156.454 55.8545 156.597 56.006C158.861 58.3559 161.59 60.1763 164.707 61.4165Z" fill="black"/>
<path d="M162.882 48.89C163.622 48.89 164.317 48.6018 164.84 48.0788L173.842 39.0771C174.922 37.9973 174.922 36.2402 173.842 35.1602C172.762 34.0803 171.005 34.0805 169.925 35.1603L162.882 42.2035L160.339 39.661C159.259 38.5811 157.502 38.5812 156.423 39.6611C155.343 40.7411 155.343 42.4981 156.423 43.578L160.924 48.0789C161.446 48.6021 162.142 48.89 162.882 48.89ZM157.541 40.7794C157.651 40.669 157.782 40.5815 157.926 40.5219C158.07 40.4622 158.225 40.4317 158.381 40.432C158.685 40.432 158.989 40.5479 159.221 40.7794L162.322 43.881C162.396 43.9545 162.483 44.0128 162.579 44.0525C162.675 44.0923 162.778 44.1128 162.882 44.1128C162.986 44.1128 163.088 44.0923 163.184 44.0525C163.28 44.0128 163.367 43.9545 163.441 43.881L171.043 36.2785C171.507 35.8151 172.26 35.815 172.724 36.2783C173.187 36.7418 173.187 37.4954 172.724 37.9588L163.722 46.9604C163.498 47.1848 163.199 47.3084 162.882 47.3084C162.564 47.3084 162.266 47.1848 162.042 46.9604L157.541 42.4596C157.078 41.9964 157.078 41.2426 157.541 40.7794Z" fill="black"/>
<g opacity="0.5" filter="url(#filter0_f_43_5)">
<path d="M211.11 62.9165C209.48 63.8157 208.773 64.6241 208.773 64.6241L206.29 59.8809L201.615 63.0092L205.378 65.0788V69.2472L212.219 65.209L211.124 62.9253L211.11 62.9165ZM232.927 62.9165C234.557 63.8157 235.265 64.6241 235.265 64.6241L237.748 59.8809L242.422 63.0093L238.659 65.0789V69.2473L231.819 65.2091L232.914 62.9254L232.927 62.9165Z" fill="#B32425"/>
<path d="M211.124 62.9251C211.124 62.9251 211.114 62.9248 211.095 62.9248C209.476 63.8206 208.773 64.6239 208.773 64.6239L212.218 65.2087L211.124 62.9251ZM232.914 62.9251C232.914 62.9251 232.924 62.9248 232.942 62.9248C234.562 63.8206 235.265 64.6239 235.265 64.6239L231.819 65.2087L232.914 62.9251Z" fill="#8C1E23"/>
<path d="M209.516 55.3184C206.61 56.6966 205.378 58.1397 205.378 58.1397L208.773 64.6242C208.773 64.6242 210.254 62.9297 213.876 61.7183C212.036 59.7742 210.613 57.5856 209.516 55.3184ZM234.522 55.3184C233.424 57.5856 232.002 59.7741 230.162 61.7183C233.783 62.9297 235.264 64.6242 235.264 64.6242L238.659 58.1397C238.659 58.1397 237.428 56.6965 234.522 55.3184Z" fill="#E93234"/>
<path d="M222.019 67.2027C240.579 59.8196 238.011 34.876 238.011 34.876C228.308 33.8751 222.019 28.6179 222.019 28.6179C222.019 28.6179 215.73 33.8751 206.027 34.876C206.027 34.876 203.459 59.8196 222.019 67.2027Z" fill="#F8D384"/>
<path d="M234.522 55.3184C233.424 57.5856 232.002 59.7741 230.162 61.7183C230.667 61.8868 231.165 62.0778 231.653 62.2906C233.522 60.4504 234.989 58.3639 236.137 56.1829C235.67 55.9011 235.134 55.6084 234.522 55.3184ZM209.516 55.3184C210.614 57.5856 212.036 59.7741 213.876 61.7183C213.371 61.8868 212.873 62.0778 212.385 62.2906C210.516 60.4504 209.049 58.3639 207.901 56.1829C208.368 55.9011 208.904 55.6084 209.516 55.3184Z" fill="#B32425"/>
<path d="M222.019 62.6069C236.158 56.9826 234.201 37.981 234.201 37.981C226.81 37.2185 222.019 33.2136 222.019 33.2136C222.019 33.2136 217.228 37.2185 209.837 37.981C209.837 37.981 207.88 56.9826 222.019 62.6069Z" fill="#F9EBB7"/>
<path d="M220.37 52.8119C219.961 52.8119 219.57 52.6496 219.281 52.3608L215.777 48.8569C215.175 48.2553 215.175 47.2799 215.777 46.6783C216.378 46.0766 217.354 46.0766 217.955 46.6783L220.37 49.0928L226.288 43.1744C226.89 42.5728 227.865 42.5727 228.467 43.1744C229.069 43.776 229.069 44.7514 228.467 45.353L221.459 52.3606C221.316 52.5037 221.146 52.6172 220.96 52.6946C220.773 52.7721 220.572 52.8119 220.37 52.8119Z" fill="#00B76C"/>
<path d="M242.765 62.4977L238.549 59.6767L239.205 58.4251C239.262 58.3163 239.285 58.1929 239.271 58.0708C239.257 57.9487 239.207 57.8335 239.128 57.74C239.077 57.681 237.937 56.3654 235.337 55.0339C236.267 53.0097 237.015 50.7961 237.574 48.4112C239.256 41.2342 238.65 35.0718 238.623 34.813C238.609 34.6723 238.546 34.5408 238.446 34.4408C238.346 34.3408 238.215 34.2782 238.074 34.2637C233.174 33.7583 229.181 32.1242 226.693 30.8426C223.99 29.4493 222.429 28.1582 222.414 28.1457C222.303 28.0531 222.163 28.0024 222.019 28.0024C221.875 28.0024 221.735 28.0531 221.624 28.1457C221.563 28.1971 215.37 33.2934 205.964 34.2638C205.823 34.2783 205.692 34.3409 205.592 34.4409C205.492 34.5409 205.429 34.6724 205.415 34.8131C205.403 34.9293 205.125 37.7034 205.438 41.7017C205.444 41.7823 205.466 41.8609 205.503 41.933C205.539 42.0051 205.59 42.0693 205.651 42.1218C205.713 42.1744 205.784 42.2143 205.861 42.2393C205.938 42.2643 206.019 42.2739 206.099 42.2675C206.262 42.2548 206.413 42.178 206.519 42.0539C206.625 41.9298 206.678 41.7687 206.665 41.6059C206.437 38.6812 206.537 36.3925 206.601 35.4316C211.475 34.8477 215.442 33.2115 217.944 31.9186C219.983 30.8649 221.379 29.882 222.019 29.3997C222.658 29.882 224.055 30.8649 226.094 31.9186C228.595 33.2115 232.562 34.8476 237.437 35.4316C237.543 37.0276 237.744 42.2901 236.375 48.1304C235.782 50.6604 234.97 52.9866 233.95 55.0862C233.922 55.1449 233.892 55.2029 233.863 55.2612C233.801 55.3882 233.737 55.5146 233.672 55.6406C233.636 55.7114 233.6 55.7819 233.563 55.8524C233.438 56.0902 233.309 56.3261 233.177 56.5602C233.124 56.6551 233.07 56.7497 233.015 56.844C232.961 56.9382 232.906 57.0321 232.85 57.1257C232.81 57.1931 232.769 57.2597 232.728 57.3265C232.598 57.5414 232.464 57.7543 232.327 57.9652C232.317 57.9805 232.307 57.9961 232.297 58.0115C232.196 58.1661 232.093 58.3195 231.988 58.4718C231.565 59.0886 231.114 59.685 230.636 60.259L230.627 60.2689C230.536 60.3783 230.443 60.4868 230.35 60.5944C230.276 60.6787 230.202 60.7624 230.127 60.8456C230.112 60.8623 230.097 60.8794 230.082 60.8961C229.998 60.9894 229.913 61.082 229.827 61.1738L229.814 61.188C227.641 63.5114 225.03 65.305 222.019 66.5389C219.071 65.3298 215.77 63.2608 212.971 59.7249L212.944 59.6908C212.887 59.6189 212.831 59.5466 212.776 59.474C211.754 58.138 210.848 56.6578 210.07 55.0502C210.052 55.0134 210.031 54.9784 210.006 54.9458C208.596 52.0117 207.501 48.4312 206.923 44.0599C206.9 43.899 206.815 43.7536 206.686 43.6552C206.556 43.5569 206.393 43.5137 206.232 43.535C206.071 43.5563 205.925 43.6404 205.826 43.769C205.726 43.8976 205.682 44.0602 205.702 44.2214C206.233 48.2319 207.24 51.8566 208.701 55.0339C206.101 56.3655 204.96 57.6812 204.91 57.7401C204.83 57.8336 204.78 57.9488 204.767 58.0709C204.753 58.1929 204.776 58.3163 204.833 58.4252L205.488 59.6767L201.273 62.4978C201.185 62.5566 201.114 62.637 201.066 62.7313C201.019 62.8256 200.996 62.9306 201.001 63.0362C201.005 63.1418 201.037 63.2444 201.093 63.3342C201.148 63.4239 201.226 63.4979 201.319 63.5488L204.763 65.443V69.2473C204.763 69.3559 204.792 69.4625 204.846 69.5563C204.901 69.6502 204.979 69.728 205.073 69.7818C205.168 69.8356 205.274 69.8635 205.383 69.8628C205.491 69.862 205.598 69.8325 205.691 69.7774L212.532 65.7392C212.536 65.7367 212.54 65.7338 212.544 65.7312C212.563 65.719 212.582 65.7058 212.6 65.6917C212.606 65.6872 212.611 65.6829 212.617 65.6783C212.631 65.6661 212.645 65.6533 212.658 65.64C212.66 65.6378 212.662 65.6359 212.664 65.6337C212.68 65.6171 212.695 65.5996 212.709 65.5814L212.71 65.5797C212.711 65.5782 212.712 65.5766 212.713 65.5751C212.727 65.556 212.74 65.5362 212.752 65.5157C212.754 65.5113 212.757 65.507 212.759 65.5027C212.771 65.4807 212.782 65.4582 212.791 65.435C212.793 65.4311 212.794 65.4271 212.795 65.423C212.803 65.403 212.809 65.3826 212.814 65.362C212.816 65.3565 212.817 65.3511 212.819 65.3456C212.824 65.3216 212.828 65.2973 212.831 65.2727C212.831 65.2694 212.831 65.2661 212.832 65.2628C212.834 65.2406 212.834 65.2183 212.834 65.196C212.833 65.1656 212.831 65.1352 212.826 65.1051L212.824 65.0999C212.819 65.0708 212.812 65.0421 212.802 65.0142C212.794 64.9898 212.785 64.966 212.774 64.9428L211.931 63.183C212.437 62.9307 213.028 62.672 213.707 62.4283C215.98 64.7476 218.682 66.5378 221.792 67.7747C221.938 67.8328 222.101 67.8328 222.247 67.7747C225.351 66.5399 228.057 64.7481 230.331 62.4285C231.011 62.6722 231.601 62.9308 232.108 63.1831L231.264 64.9429C231.251 64.9716 231.239 65.0014 231.23 65.0319C231.224 65.0543 231.218 65.0771 231.214 65.1001C231.213 65.1018 231.213 65.1036 231.213 65.1053C231.209 65.1303 231.206 65.1556 231.205 65.1809C231.205 65.1861 231.205 65.1912 231.205 65.1963C231.204 65.2186 231.205 65.2408 231.207 65.263C231.207 65.2663 231.207 65.2697 231.207 65.2729C231.21 65.2975 231.214 65.3218 231.22 65.3458C231.221 65.3514 231.222 65.3568 231.224 65.3623C231.229 65.3829 231.235 65.4032 231.243 65.4231C231.244 65.4271 231.246 65.4312 231.247 65.4353C231.256 65.4584 231.267 65.4808 231.279 65.5028C231.281 65.5072 231.284 65.5115 231.286 65.5159C231.298 65.5363 231.311 65.5561 231.325 65.5751C231.326 65.5766 231.327 65.5783 231.328 65.5798L231.329 65.5815C231.343 65.5996 231.358 65.6171 231.374 65.6338C231.376 65.636 231.378 65.6379 231.38 65.64C231.393 65.6533 231.407 65.6661 231.422 65.6784C231.427 65.683 231.433 65.6873 231.438 65.6918C231.456 65.7059 231.475 65.7191 231.494 65.7313C231.499 65.7339 231.502 65.7368 231.507 65.7393L238.347 69.7775C238.44 69.8328 238.547 69.8623 238.655 69.8631C238.764 69.8639 238.871 69.8359 238.965 69.782C239.059 69.7282 239.138 69.6503 239.192 69.5565C239.247 69.4626 239.275 69.356 239.275 69.2474V65.443L242.719 63.5488C242.812 63.4979 242.89 63.424 242.946 63.3342C243.001 63.2444 243.033 63.1418 243.038 63.0362C243.042 62.9305 243.019 62.8256 242.971 62.7313C242.924 62.637 242.852 62.5566 242.765 62.4977ZM210.215 64.205C210.247 64.1821 210.279 64.1593 210.312 64.1358C210.333 64.1213 210.355 64.1066 210.376 64.0919C210.41 64.0683 210.444 64.0447 210.48 64.0205C210.502 64.006 210.525 63.991 210.547 63.9762C210.585 63.9511 210.622 63.9263 210.662 63.9008C210.676 63.8917 210.691 63.8823 210.706 63.8731C210.75 63.8447 210.795 63.8163 210.841 63.7874L210.852 63.7808L211.15 64.403L210.171 64.2369C210.185 64.2264 210.2 64.2157 210.215 64.205ZM205.675 64.5394L202.799 62.9577L206.063 60.7738L208.228 64.9097C208.24 64.9325 208.253 64.9542 208.267 64.975C208.273 64.9831 208.28 64.9904 208.286 64.9982C208.295 65.0106 208.305 65.0233 208.315 65.0348C208.325 65.0463 208.337 65.0567 208.348 65.0674C208.355 65.074 208.361 65.0811 208.369 65.0873C208.382 65.0992 208.397 65.1101 208.412 65.1207C208.417 65.1246 208.422 65.1287 208.427 65.1324C208.444 65.1436 208.461 65.1536 208.479 65.1632C208.483 65.1654 208.487 65.1678 208.491 65.1699C208.513 65.1812 208.535 65.1912 208.559 65.1997C208.582 65.2084 208.606 65.2157 208.63 65.2215C208.644 65.2247 208.657 65.2288 208.67 65.2311L210.457 65.5343L205.994 68.169V65.0789C205.994 64.9687 205.964 64.8605 205.908 64.7656C205.852 64.6707 205.772 64.5926 205.675 64.5394ZM212.802 61.4521C212.034 61.7515 211.377 62.0676 210.818 62.3751C210.817 62.3761 210.815 62.3766 210.813 62.3776L210.798 62.3863L210.797 62.3864L210.791 62.3898C210.718 62.4302 210.646 62.4713 210.573 62.5131C210.546 62.529 210.519 62.5448 210.492 62.5605L210.483 62.5659L210.47 62.5732C210.396 62.6167 210.325 62.6597 210.255 62.7025L210.222 62.7224C210.18 62.7485 210.138 62.7744 210.097 62.8003L210.071 62.8168L210.068 62.8187C209.595 63.1197 209.222 63.3985 208.946 63.6267L206.932 59.7796L206.131 58.2507C206.58 57.8278 207.574 56.9968 209.238 56.142C209.302 56.2666 209.366 56.3908 209.432 56.5144C209.465 56.577 209.499 56.639 209.532 56.7013C209.617 56.8585 209.703 57.015 209.791 57.1706C209.81 57.2052 209.829 57.2407 209.848 57.2751C210.506 58.4307 211.231 59.5086 212.021 60.5094L212.075 60.5788C212.139 60.6595 212.204 60.7398 212.269 60.8194C212.302 60.8604 212.336 60.901 212.37 60.9417C212.427 61.011 212.484 61.0802 212.542 61.1486C212.628 61.2506 212.714 61.3517 212.802 61.4521ZM233.065 64.0347L233.186 63.7809L233.197 63.7877C233.244 63.8164 233.288 63.8447 233.332 63.873C233.347 63.8822 233.362 63.8918 233.376 63.9011C233.416 63.9266 233.453 63.9515 233.491 63.9767C233.513 63.9913 233.536 64.0062 233.558 64.0207C233.594 64.0449 233.628 64.0685 233.662 64.0923C233.683 64.1069 233.705 64.1217 233.726 64.1361C233.759 64.1592 233.79 64.1815 233.821 64.204C233.836 64.2151 233.852 64.2264 233.867 64.2373L232.888 64.4035L233.065 64.0347ZM231.24 61.4473C231.293 61.3866 231.345 61.3249 231.398 61.2637C231.43 61.2263 231.462 61.1894 231.494 61.1519C231.574 61.0569 231.653 60.9613 231.732 60.8651L231.74 60.8554C232.129 60.3811 232.499 59.8925 232.852 59.3906C232.899 59.3234 232.944 59.2544 232.991 59.1867C233.047 59.1044 233.104 59.0219 233.159 58.9389C233.273 58.77 233.384 58.5996 233.493 58.4279C233.695 58.1105 233.891 57.7887 234.08 57.4629C234.148 57.3443 234.216 57.2253 234.283 57.1058C234.32 57.0399 234.357 56.9742 234.394 56.9077C234.512 56.6926 234.627 56.4759 234.74 56.2578C234.76 56.2192 234.78 56.181 234.8 56.1422C236.452 56.9922 237.454 57.828 237.906 58.2522L235.092 63.6267C234.815 63.3986 234.443 63.1197 233.969 62.8187L233.966 62.8169L233.94 62.8004C233.9 62.7745 233.858 62.7486 233.816 62.7225L233.775 62.6976C233.708 62.6564 233.639 62.615 233.568 62.5732L233.555 62.5659L233.546 62.5605C233.519 62.5448 233.492 62.529 233.464 62.5131C233.418 62.4865 233.372 62.4599 233.324 62.4331C233.298 62.4187 233.273 62.4043 233.247 62.3898L233.24 62.3864L233.24 62.3863L233.225 62.3776C233.223 62.3766 233.221 62.376 233.22 62.375C232.661 62.0675 232.004 61.7513 231.236 61.452L231.24 61.4473ZM238.363 64.5394C238.266 64.5926 238.186 64.6706 238.129 64.7655C238.073 64.8604 238.044 64.9686 238.044 65.0788V68.1689L233.581 65.5342L235.368 65.231C235.374 65.2299 235.38 65.2277 235.387 65.2264C235.413 65.2211 235.438 65.2141 235.464 65.2056C235.478 65.2007 235.492 65.1953 235.506 65.1893C235.516 65.1849 235.526 65.1805 235.536 65.1756C235.55 65.1689 235.563 65.1615 235.576 65.1539C235.585 65.1484 235.595 65.1431 235.604 65.1371C235.617 65.1283 235.629 65.1191 235.641 65.1095C235.649 65.1032 235.658 65.0972 235.666 65.0905C235.678 65.0793 235.69 65.0676 235.702 65.0555C235.708 65.049 235.715 65.0431 235.721 65.0364C235.735 65.021 235.748 65.0045 235.76 64.9877C235.763 64.9834 235.767 64.9797 235.77 64.9753C235.785 64.9544 235.798 64.9324 235.81 64.9095L237.975 60.7736L241.238 62.9575L238.363 64.5394Z" fill="black"/>
<path d="M234.851 42.3841C234.998 39.7574 234.821 37.9918 234.814 37.9179C234.799 37.7772 234.737 37.6457 234.637 37.5457C234.537 37.4456 234.405 37.3831 234.264 37.3686C227.163 36.636 222.46 32.7797 222.414 32.7412C222.303 32.6488 222.164 32.5982 222.019 32.5981C221.875 32.5981 221.735 32.6486 221.625 32.7409C221.578 32.7798 216.876 36.636 209.774 37.3686C209.633 37.3831 209.501 37.4456 209.401 37.5457C209.301 37.6457 209.239 37.7772 209.224 37.9179C209.213 38.032 208.942 40.7555 209.364 44.4742C209.756 47.9191 210.848 52.8869 213.825 56.9901C213.882 57.0689 213.957 57.133 214.044 57.1772C214.131 57.2213 214.227 57.2443 214.324 57.2442C214.437 57.2441 214.549 57.2127 214.645 57.1534C214.742 57.094 214.821 57.0091 214.872 56.908C214.924 56.8069 214.946 56.6935 214.937 56.5804C214.928 56.4673 214.888 56.3588 214.822 56.267C212.008 52.3889 210.968 47.654 210.591 44.3648C210.282 41.6677 210.355 39.4728 210.412 38.5349C216.507 37.7771 220.744 34.9441 222.019 33.9935C223.294 34.9442 227.53 37.7773 233.626 38.5349C233.668 39.2203 233.719 40.5776 233.621 42.3148C233.617 42.3955 233.628 42.4763 233.655 42.5526C233.682 42.6289 233.723 42.6992 233.777 42.7595C233.831 42.8198 233.896 42.8689 233.969 42.9039C234.042 42.939 234.121 42.9594 234.201 42.9639C234.542 42.9824 234.832 42.7236 234.851 42.3841ZM221.791 63.1789C221.938 63.237 222.1 63.237 222.246 63.1789C226.215 61.6001 229.321 58.8513 231.479 55.0089C233.076 52.164 234.133 48.7701 234.62 44.9213C234.637 44.7611 234.59 44.6007 234.49 44.4745C234.39 44.3482 234.244 44.2662 234.085 44.246C233.925 44.2257 233.764 44.2689 233.635 44.3663C233.507 44.4636 233.422 44.6074 233.398 44.7667C232.028 55.5938 226.506 60.0841 222.019 61.9426C219.85 61.0454 217.949 59.7577 216.364 58.1127C216.251 57.9968 216.096 57.9306 215.933 57.9283C215.771 57.926 215.615 57.9879 215.498 58.1005C215.381 58.2131 215.313 58.3673 215.309 58.5296C215.306 58.6918 215.366 58.849 215.478 58.9669C217.24 60.7963 219.364 62.2134 221.791 63.1789Z" fill="black"/>
<path d="M220.37 53.4273C220.946 53.4273 221.488 53.203 221.895 52.7958L228.902 45.7881C229.743 44.9475 229.743 43.5796 228.902 42.7388C228.062 41.8982 226.694 41.8983 225.853 42.7389L220.37 48.222L218.391 46.2427C217.55 45.402 216.182 45.4021 215.342 46.2428C214.501 47.0835 214.501 48.4513 215.342 49.292L218.846 52.7959C219.253 53.2031 219.794 53.4273 220.37 53.4273ZM216.212 47.1133C216.298 47.0274 216.4 46.9592 216.512 46.9128C216.624 46.8664 216.745 46.8426 216.866 46.8429C217.103 46.8429 217.34 46.9331 217.52 47.1133L219.935 49.5279C219.992 49.5851 220.06 49.6304 220.134 49.6614C220.209 49.6923 220.289 49.7083 220.37 49.7083C220.451 49.7083 220.531 49.6923 220.606 49.6614C220.68 49.6304 220.748 49.5851 220.805 49.5279L226.724 43.6095C227.084 43.2487 227.671 43.2486 228.032 43.6093C228.392 43.9701 228.392 44.5568 228.032 44.9175L221.024 51.9252C220.849 52.0998 220.617 52.196 220.37 52.196C220.123 52.196 219.891 52.0998 219.716 51.9252L216.212 48.4213C215.852 48.0607 215.852 47.4739 216.212 47.1133Z" fill="black"/>
</g>
<g opacity="0.5" filter="url(#filter1_f_43_5)">
<path d="M97.1103 62.9165C95.4802 63.8157 94.7731 64.6241 94.7731 64.6241L92.2899 59.8809L87.6155 63.0092L91.3784 65.0788V69.2472L98.2185 65.209L97.1242 62.9253L97.1103 62.9165ZM118.927 62.9165C120.557 63.8157 121.265 64.6241 121.265 64.6241L123.748 59.8809L128.422 63.0093L124.659 65.0789V69.2473L117.819 65.2091L118.914 62.9254L118.927 62.9165Z" fill="#B32425"/>
<path d="M97.1243 62.9251C97.1243 62.9251 97.1136 62.9248 97.0954 62.9248C95.4762 63.8206 94.7732 64.6239 94.7732 64.6239L98.2185 65.2087L97.1243 62.9251ZM118.914 62.9251C118.914 62.9251 118.924 62.9248 118.942 62.9248C120.562 63.8206 121.265 64.6239 121.265 64.6239L117.819 65.2087L118.914 62.9251Z" fill="#8C1E23"/>
<path d="M95.5157 55.3184C92.6096 56.6966 91.3783 58.1397 91.3783 58.1397L94.7731 64.6242C94.7731 64.6242 96.2544 62.9297 99.8759 61.7183C98.0359 59.7742 96.6133 57.5856 95.5157 55.3184ZM120.522 55.3184C119.424 57.5856 118.002 59.7741 116.162 61.7183C119.783 62.9297 121.264 64.6242 121.264 64.6242L124.659 58.1397C124.659 58.1397 123.428 56.6965 120.522 55.3184Z" fill="#E93234"/>
<path d="M108.019 67.2027C126.579 59.8196 124.011 34.876 124.011 34.876C114.308 33.8751 108.019 28.6179 108.019 28.6179C108.019 28.6179 101.73 33.8751 92.0272 34.876C92.0272 34.876 89.4588 59.8196 108.019 67.2027Z" fill="#F8D384"/>
<path d="M120.522 55.3184C119.424 57.5856 118.002 59.7741 116.162 61.7183C116.667 61.8868 117.165 62.0778 117.653 62.2906C119.522 60.4504 120.989 58.3639 122.137 56.1829C121.67 55.9011 121.134 55.6084 120.522 55.3184ZM95.516 55.3184C96.6136 57.5856 98.0361 59.7741 99.8761 61.7183C99.3709 61.8868 98.8735 62.0778 98.3853 62.2906C96.5158 60.4504 95.0493 58.3639 93.9006 56.1829C94.3679 55.9011 94.9044 55.6084 95.516 55.3184Z" fill="#B32425"/>
<path d="M108.019 62.6069C122.158 56.9826 120.201 37.981 120.201 37.981C112.81 37.2185 108.019 33.2136 108.019 33.2136C108.019 33.2136 103.228 37.2185 95.8367 37.981C95.8367 37.981 93.8801 56.9826 108.019 62.6069Z" fill="#F9EBB7"/>
<path d="M106.37 52.8119C105.961 52.8119 105.57 52.6496 105.281 52.3608L101.777 48.8569C101.175 48.2553 101.175 47.2799 101.777 46.6783C102.378 46.0766 103.354 46.0766 103.955 46.6783L106.37 49.0928L112.288 43.1744C112.89 42.5728 113.865 42.5727 114.467 43.1744C115.069 43.776 115.069 44.7514 114.467 45.353L107.459 52.3606C107.316 52.5037 107.146 52.6172 106.96 52.6946C106.773 52.7721 106.572 52.8119 106.37 52.8119Z" fill="#00B76C"/>
<path d="M128.765 62.4977L124.549 59.6767L125.205 58.4251C125.262 58.3163 125.285 58.1929 125.271 58.0708C125.257 57.9487 125.207 57.8335 125.128 57.74C125.077 57.681 123.937 56.3654 121.337 55.0339C122.267 53.0097 123.015 50.7961 123.574 48.4112C125.256 41.2342 124.65 35.0718 124.623 34.813C124.609 34.6723 124.546 34.5408 124.446 34.4408C124.346 34.3408 124.215 34.2782 124.074 34.2637C119.174 33.7583 115.181 32.1242 112.693 30.8426C109.99 29.4493 108.429 28.1582 108.414 28.1457C108.303 28.0531 108.163 28.0024 108.019 28.0024C107.875 28.0024 107.735 28.0531 107.624 28.1457C107.563 28.1971 101.37 33.2934 91.9639 34.2638C91.8231 34.2783 91.6917 34.3409 91.5917 34.4409C91.4917 34.5409 91.4291 34.6724 91.4146 34.8131C91.4027 34.9293 91.1254 37.7034 91.4377 41.7017C91.4439 41.7823 91.466 41.8609 91.5026 41.933C91.5392 42.0051 91.5897 42.0693 91.6512 42.1218C91.7126 42.1744 91.7838 42.2143 91.8607 42.2393C91.9376 42.2643 92.0187 42.2739 92.0993 42.2675C92.2621 42.2548 92.4132 42.178 92.5193 42.0539C92.6254 41.9298 92.6779 41.7687 92.6652 41.6059C92.4368 38.6812 92.5365 36.3925 92.6006 35.4316C97.4751 34.8477 101.442 33.2115 103.944 31.9186C105.983 30.8649 107.379 29.882 108.019 29.3997C108.658 29.882 110.055 30.8649 112.094 31.9186C114.595 33.2115 118.562 34.8476 123.437 35.4316C123.543 37.0276 123.744 42.2901 122.375 48.1304C121.782 50.6604 120.97 52.9866 119.95 55.0862C119.922 55.1449 119.892 55.2029 119.863 55.2612C119.801 55.3882 119.737 55.5146 119.672 55.6406C119.636 55.7114 119.6 55.7819 119.563 55.8524C119.438 56.0902 119.309 56.3261 119.177 56.5602C119.124 56.6551 119.07 56.7497 119.015 56.844C118.961 56.9382 118.906 57.0321 118.85 57.1257C118.81 57.1931 118.769 57.2597 118.728 57.3265C118.598 57.5414 118.464 57.7543 118.327 57.9652C118.317 57.9805 118.307 57.9961 118.297 58.0115C118.196 58.1661 118.093 58.3195 117.988 58.4718C117.565 59.0886 117.114 59.685 116.636 60.259L116.627 60.2689C116.536 60.3783 116.443 60.4868 116.35 60.5944C116.276 60.6787 116.202 60.7624 116.127 60.8456C116.112 60.8623 116.097 60.8794 116.082 60.8961C115.998 60.9894 115.913 61.082 115.827 61.1738L115.814 61.188C113.641 63.5114 111.03 65.305 108.019 66.5389C105.071 65.3298 101.77 63.2608 98.9707 59.7249L98.9439 59.6908C98.8873 59.6189 98.8313 59.5466 98.7756 59.474C97.7545 58.138 96.8482 56.6578 96.0699 55.0502C96.0521 55.0134 96.0306 54.9784 96.0059 54.9458C94.5958 52.0117 93.5009 48.4312 92.9226 44.0599C92.9001 43.899 92.8148 43.7536 92.6855 43.6552C92.5562 43.5569 92.3932 43.5137 92.2322 43.535C92.0711 43.5563 91.925 43.6404 91.8257 43.769C91.7264 43.8976 91.6819 44.0602 91.702 44.2214C92.2327 48.2319 93.2397 51.8566 94.7009 55.0339C92.101 56.3655 90.9604 57.6812 90.91 57.7401C90.8303 57.8336 90.7804 57.9488 90.7666 58.0709C90.7528 58.1929 90.7759 58.3163 90.8329 58.4252L91.4881 59.6767L87.273 62.4978C87.1852 62.5566 87.1141 62.637 87.0663 62.7313C87.0186 62.8256 86.996 62.9306 87.0006 63.0362C87.0052 63.1418 87.0369 63.2444 87.0926 63.3342C87.1484 63.4239 87.2263 63.4979 87.3188 63.5488L90.7627 65.443V69.2473C90.7628 69.3559 90.7915 69.4625 90.8461 69.5563C90.9006 69.6502 90.979 69.728 91.0733 69.7818C91.1675 69.8356 91.2743 69.8635 91.3829 69.8628C91.4914 69.862 91.5978 69.8325 91.6913 69.7774L98.5315 65.7392C98.5358 65.7367 98.5396 65.7338 98.5438 65.7312C98.5631 65.719 98.5819 65.7058 98.5999 65.6917C98.6055 65.6872 98.6112 65.6829 98.6166 65.6783C98.631 65.6661 98.6447 65.6533 98.6579 65.64C98.66 65.6378 98.6622 65.6359 98.6643 65.6337C98.6802 65.6171 98.695 65.5996 98.7088 65.5814L98.7103 65.5797C98.7113 65.5782 98.7122 65.5766 98.7132 65.5751C98.7273 65.556 98.7402 65.5362 98.7519 65.5157C98.7544 65.5113 98.757 65.507 98.7594 65.5027C98.7713 65.4807 98.782 65.4582 98.7911 65.435C98.7927 65.4311 98.7939 65.4271 98.7954 65.423C98.8028 65.403 98.8091 65.3826 98.8145 65.362C98.8159 65.3565 98.8174 65.3511 98.8186 65.3456C98.8241 65.3216 98.8283 65.2973 98.831 65.2727C98.8313 65.2694 98.8314 65.2661 98.8316 65.2628C98.8336 65.2406 98.8342 65.2183 98.8338 65.196C98.8333 65.1656 98.8306 65.1352 98.8256 65.1051L98.8245 65.0999C98.8192 65.0708 98.8118 65.0421 98.8023 65.0142C98.7944 64.9898 98.7849 64.966 98.774 64.9428L97.9307 63.183C98.4369 62.9307 99.0276 62.672 99.7074 62.4283C101.98 64.7476 104.682 66.5378 107.792 67.7747C107.938 67.8328 108.101 67.8328 108.247 67.7747C111.351 66.5399 114.057 64.7481 116.331 62.4285C117.011 62.6722 117.601 62.9308 118.108 63.1831L117.264 64.9429C117.251 64.9716 117.239 65.0014 117.23 65.0319C117.224 65.0543 117.218 65.0771 117.214 65.1001C117.213 65.1018 117.213 65.1036 117.213 65.1053C117.209 65.1303 117.206 65.1556 117.205 65.1809C117.205 65.1861 117.205 65.1912 117.205 65.1963C117.204 65.2186 117.205 65.2408 117.207 65.263C117.207 65.2663 117.207 65.2697 117.207 65.2729C117.21 65.2975 117.214 65.3218 117.22 65.3458C117.221 65.3514 117.222 65.3568 117.224 65.3623C117.229 65.3829 117.235 65.4032 117.243 65.4231C117.244 65.4271 117.246 65.4312 117.247 65.4353C117.256 65.4584 117.267 65.4808 117.279 65.5028C117.281 65.5072 117.284 65.5115 117.286 65.5159C117.298 65.5363 117.311 65.5561 117.325 65.5751C117.326 65.5766 117.327 65.5783 117.328 65.5798L117.329 65.5815C117.343 65.5996 117.358 65.6171 117.374 65.6338C117.376 65.636 117.378 65.6379 117.38 65.64C117.393 65.6533 117.407 65.6661 117.422 65.6784C117.427 65.683 117.433 65.6873 117.438 65.6918C117.456 65.7059 117.475 65.7191 117.494 65.7313C117.499 65.7339 117.502 65.7368 117.507 65.7393L124.347 69.7775C124.44 69.8328 124.547 69.8623 124.655 69.8631C124.764 69.8639 124.871 69.8359 124.965 69.782C125.059 69.7282 125.138 69.6503 125.192 69.5565C125.247 69.4626 125.275 69.356 125.275 69.2474V65.443L128.719 63.5488C128.812 63.4979 128.89 63.424 128.946 63.3342C129.001 63.2444 129.033 63.1418 129.038 63.0362C129.042 62.9305 129.019 62.8256 128.971 62.7313C128.924 62.637 128.852 62.5566 128.765 62.4977ZM96.2153 64.205C96.2472 64.1821 96.279 64.1593 96.3125 64.1358C96.333 64.1213 96.3549 64.1066 96.3761 64.0919C96.4104 64.0683 96.4444 64.0447 96.4803 64.0205C96.502 64.006 96.525 63.991 96.5474 63.9762C96.5851 63.9511 96.6223 63.9263 96.6617 63.9008C96.6759 63.8917 96.6911 63.8823 96.7055 63.8731C96.7498 63.8447 96.7946 63.8163 96.841 63.7874L96.8519 63.7808L97.1501 64.403L96.1712 64.2369C96.1854 64.2264 96.2005 64.2157 96.2153 64.205ZM91.6751 64.5394L88.7993 62.9577L92.0626 60.7738L94.2278 64.9097C94.2397 64.9325 94.253 64.9542 94.2675 64.975C94.2731 64.9831 94.2798 64.9904 94.2858 64.9982C94.2953 65.0106 94.3047 65.0233 94.3151 65.0348C94.3254 65.0463 94.3368 65.0567 94.3479 65.0674C94.3548 65.074 94.3614 65.0811 94.3687 65.0873C94.3823 65.0992 94.3969 65.1101 94.4116 65.1207C94.4169 65.1246 94.4221 65.1287 94.4275 65.1324C94.4439 65.1436 94.4611 65.1536 94.4786 65.1632C94.4827 65.1654 94.4867 65.1678 94.4909 65.1699C94.5128 65.1812 94.5354 65.1912 94.5585 65.1997C94.582 65.2084 94.6059 65.2157 94.6302 65.2215C94.6436 65.2247 94.6567 65.2288 94.6704 65.2311L96.4568 65.5343L91.9942 68.169V65.0789C91.9941 64.9687 91.9645 64.8605 91.9084 64.7656C91.8522 64.6707 91.7717 64.5926 91.6751 64.5394ZM98.8021 61.4521C98.034 61.7515 97.3766 62.0676 96.8184 62.3751C96.8167 62.3761 96.8148 62.3766 96.8131 62.3776L96.7975 62.3863L96.7974 62.3864L96.7912 62.3898C96.7182 62.4302 96.6457 62.4713 96.5735 62.5131C96.5461 62.529 96.5186 62.5448 96.4917 62.5605L96.4827 62.5659L96.4703 62.5732C96.3963 62.6167 96.3247 62.6597 96.2547 62.7025L96.2222 62.7224C96.1797 62.7485 96.1384 62.7744 96.0974 62.8003L96.0714 62.8168L96.0683 62.8187C95.5949 63.1197 95.2223 63.3985 94.9457 63.6267L92.9317 59.7796L92.1314 58.2507C92.5796 57.8278 93.5744 56.9968 95.238 56.142C95.3017 56.2666 95.3662 56.3908 95.4317 56.5144C95.4649 56.577 95.4988 56.639 95.5324 56.7013C95.617 56.8585 95.7032 57.015 95.7909 57.1706C95.8103 57.2052 95.8288 57.2407 95.8483 57.2751C96.506 58.4307 97.2312 59.5086 98.0206 60.5094L98.0753 60.5788C98.1395 60.6595 98.2039 60.7398 98.269 60.8194C98.3024 60.8604 98.336 60.901 98.3696 60.9417C98.4268 61.011 98.4839 61.0802 98.5416 61.1486C98.6275 61.2506 98.7144 61.3517 98.8021 61.4521ZM119.065 64.0347L119.186 63.7809L119.197 63.7877C119.244 63.8164 119.288 63.8447 119.332 63.873C119.347 63.8822 119.362 63.8918 119.376 63.9011C119.416 63.9266 119.453 63.9515 119.491 63.9767C119.513 63.9913 119.536 64.0062 119.558 64.0207C119.594 64.0449 119.628 64.0685 119.662 64.0923C119.683 64.1069 119.705 64.1217 119.726 64.1361C119.759 64.1592 119.79 64.1815 119.821 64.204C119.836 64.2151 119.852 64.2264 119.867 64.2373L118.888 64.4035L119.065 64.0347ZM117.24 61.4473C117.293 61.3866 117.345 61.3249 117.398 61.2637C117.43 61.2263 117.462 61.1894 117.494 61.1519C117.574 61.0569 117.653 60.9613 117.732 60.8651L117.74 60.8554C118.129 60.3811 118.499 59.8925 118.852 59.3906C118.899 59.3234 118.944 59.2544 118.991 59.1867C119.047 59.1044 119.104 59.0219 119.159 58.9389C119.273 58.77 119.384 58.5996 119.493 58.4279C119.695 58.1105 119.891 57.7887 120.08 57.4629C120.148 57.3443 120.216 57.2253 120.283 57.1058C120.32 57.0399 120.357 56.9742 120.394 56.9077C120.512 56.6926 120.627 56.4759 120.74 56.2578C120.76 56.2192 120.78 56.181 120.8 56.1422C122.452 56.9922 123.454 57.828 123.906 58.2522L121.092 63.6267C120.815 63.3986 120.443 63.1197 119.969 62.8187L119.966 62.8169L119.94 62.8004C119.9 62.7745 119.858 62.7486 119.816 62.7225L119.775 62.6976C119.708 62.6564 119.639 62.615 119.568 62.5732L119.555 62.5659L119.546 62.5605C119.519 62.5448 119.492 62.529 119.464 62.5131C119.418 62.4865 119.372 62.4599 119.324 62.4331C119.298 62.4187 119.273 62.4043 119.247 62.3898L119.24 62.3864L119.24 62.3863L119.225 62.3776C119.223 62.3766 119.221 62.376 119.22 62.375C118.661 62.0675 118.004 61.7513 117.236 61.452L117.24 61.4473ZM124.363 64.5394C124.266 64.5926 124.186 64.6706 124.129 64.7655C124.073 64.8604 124.044 64.9686 124.044 65.0788V68.1689L119.581 65.5342L121.368 65.231C121.374 65.2299 121.38 65.2277 121.387 65.2264C121.413 65.2211 121.438 65.2141 121.464 65.2056C121.478 65.2007 121.492 65.1953 121.506 65.1893C121.516 65.1849 121.526 65.1805 121.536 65.1756C121.55 65.1689 121.563 65.1615 121.576 65.1539C121.585 65.1484 121.595 65.1431 121.604 65.1371C121.617 65.1283 121.629 65.1191 121.641 65.1095C121.649 65.1032 121.658 65.0972 121.666 65.0905C121.678 65.0793 121.69 65.0676 121.702 65.0555C121.708 65.049 121.715 65.0431 121.721 65.0364C121.735 65.021 121.748 65.0045 121.76 64.9877C121.763 64.9834 121.767 64.9797 121.77 64.9753C121.785 64.9544 121.798 64.9324 121.81 64.9095L123.975 60.7736L127.238 62.9575L124.363 64.5394Z" fill="black"/>
<path d="M120.851 42.3841C120.998 39.7574 120.821 37.9918 120.814 37.9179C120.799 37.7772 120.737 37.6457 120.637 37.5457C120.537 37.4456 120.405 37.3831 120.264 37.3686C113.163 36.636 108.46 32.7797 108.414 32.7412C108.303 32.6488 108.164 32.5982 108.019 32.5981C107.875 32.5981 107.735 32.6486 107.625 32.7409C107.578 32.7798 102.876 36.636 95.7736 37.3686C95.6329 37.3831 95.5014 37.4456 95.4014 37.5457C95.3014 37.6457 95.2389 37.7772 95.2244 37.9179C95.2126 38.032 94.9415 40.7555 95.3645 44.4742C95.7563 47.9191 96.8484 52.8869 99.8253 56.9901C99.8824 57.0689 99.9574 57.133 100.044 57.1772C100.131 57.2213 100.227 57.2443 100.324 57.2442C100.437 57.2441 100.549 57.2127 100.645 57.1534C100.742 57.094 100.821 57.0091 100.872 56.908C100.924 56.8069 100.946 56.6935 100.937 56.5804C100.928 56.4673 100.888 56.3588 100.822 56.267C98.0082 52.3889 96.9682 47.654 96.5911 44.3648C96.2819 41.6677 96.3554 39.4728 96.4124 38.5349C102.507 37.7771 106.744 34.9441 108.019 33.9935C109.294 34.9442 113.53 37.7773 119.626 38.5349C119.668 39.2203 119.719 40.5776 119.621 42.3148C119.617 42.3955 119.628 42.4763 119.655 42.5526C119.682 42.6289 119.723 42.6992 119.777 42.7595C119.831 42.8198 119.896 42.8689 119.969 42.9039C120.042 42.939 120.121 42.9594 120.201 42.9639C120.542 42.9824 120.832 42.7236 120.851 42.3841ZM107.791 63.1789C107.938 63.237 108.1 63.237 108.246 63.1789C112.215 61.6001 115.321 58.8513 117.479 55.0089C119.076 52.164 120.133 48.7701 120.62 44.9213C120.637 44.7611 120.59 44.6007 120.49 44.4745C120.39 44.3482 120.244 44.2662 120.085 44.246C119.925 44.2257 119.764 44.2689 119.635 44.3663C119.507 44.4636 119.422 44.6074 119.398 44.7667C118.028 55.5938 112.506 60.0841 108.019 61.9426C105.85 61.0454 103.949 59.7577 102.364 58.1127C102.251 57.9968 102.096 57.9306 101.933 57.9283C101.771 57.926 101.615 57.9879 101.498 58.1005C101.381 58.2131 101.313 58.3673 101.309 58.5296C101.306 58.6918 101.366 58.849 101.478 58.9669C103.24 60.7963 105.364 62.2134 107.791 63.1789Z" fill="black"/>
<path d="M106.37 53.4273C106.946 53.4273 107.488 53.203 107.895 52.7958L114.902 45.7881C115.743 44.9475 115.743 43.5796 114.902 42.7388C114.062 41.8982 112.694 41.8983 111.853 42.7389L106.37 48.222L104.391 46.2427C103.55 45.402 102.182 45.4021 101.342 46.2428C100.501 47.0835 100.501 48.4513 101.342 49.292L104.846 52.7959C105.253 53.2031 105.794 53.4273 106.37 53.4273ZM102.212 47.1133C102.298 47.0274 102.4 46.9592 102.512 46.9128C102.624 46.8664 102.745 46.8426 102.866 46.8429C103.103 46.8429 103.34 46.9331 103.52 47.1133L105.935 49.5279C105.992 49.5851 106.06 49.6304 106.134 49.6614C106.209 49.6923 106.289 49.7083 106.37 49.7083C106.451 49.7083 106.531 49.6923 106.606 49.6614C106.68 49.6304 106.748 49.5851 106.805 49.5279L112.724 43.6095C113.084 43.2487 113.671 43.2486 114.032 43.6093C114.392 43.9701 114.392 44.5568 114.032 44.9175L107.024 51.9252C106.849 52.0998 106.617 52.196 106.37 52.196C106.123 52.196 105.891 52.0998 105.716 51.9252L102.212 48.4213C101.852 48.0607 101.852 47.4739 102.212 47.1133Z" fill="black"/>
</g>
<defs>
<filter id="filter0_f_43_5" x="197" y="24.0024" width="50.0382" height="49.8606" filterUnits="userSpaceOnUse" color-interpolation-filters="sRGB">
<feFlood flood-opacity="0" result="BackgroundImageFix"/>
<feBlend mode="normal" in="SourceGraphic" in2="BackgroundImageFix" result="shape"/>
<feGaussianBlur stdDeviation="2" result="effect1_foregroundBlur_43_5"/>
</filter>
<filter id="filter1_f_43_5" x="83" y="24.0024" width="50.0382" height="49.8606" filterUnits="userSpaceOnUse" color-interpolation-filters="sRGB">
<feFlood flood-opacity="0" result="BackgroundImageFix"/>
<feBlend mode="normal" in="SourceGraphic" in2="BackgroundImageFix" result="shape"/>
<feGaussianBlur stdDeviation="2" result="effect1_foregroundBlur_43_5"/>
</filter>
</defs>
</svg>
