<svg width="330" height="146" viewBox="0 0 330 146" fill="none" xmlns="http://www.w3.org/2000/svg">
<rect y="0.000488281" width="330" height="146" rx="20" fill="white" fill-opacity="0.8"/>
<g opacity="0.9" filter="url(#filter0_f_43_6)">
<path d="M197.224 37.4907H223.776V72.894H197.224V37.4907Z" fill="#E1F5F3"/>
<path d="M208.603 40.0196H223.776V37.4907H197.224V72.8942H204.178V44.445C204.178 42.0009 206.159 40.0196 208.603 40.0196Z" fill="#D6E6E4"/>
<path d="M223.776 38.1231H197.224C197.056 38.1231 196.895 38.0565 196.777 37.9379C196.658 37.8194 196.591 37.6586 196.591 37.4909V36.2264C196.591 36.0588 196.658 35.898 196.777 35.7794C196.895 35.6608 197.056 35.5942 197.224 35.5942H223.776C223.944 35.5942 224.105 35.6608 224.223 35.7794C224.342 35.898 224.408 36.0588 224.408 36.2264V37.4908C224.408 37.5738 224.392 37.6561 224.36 37.7328C224.329 37.8095 224.282 37.8792 224.223 37.9379C224.165 37.9966 224.095 38.0432 224.018 38.075C223.942 38.1067 223.859 38.1231 223.776 38.1231ZM223.776 74.791H197.224C197.056 74.791 196.895 74.7244 196.777 74.6058C196.658 74.4872 196.591 74.3264 196.591 74.1588V72.8944C196.591 72.7267 196.658 72.5659 196.777 72.4473C196.895 72.3288 197.056 72.2622 197.224 72.2622H223.776C223.944 72.2622 224.105 72.3288 224.223 72.4473C224.342 72.5659 224.408 72.7267 224.408 72.8944V74.1588C224.408 74.2418 224.392 74.324 224.36 74.4007C224.329 74.4774 224.282 74.5471 224.223 74.6058C224.165 74.6645 224.095 74.7111 224.018 74.7428C223.942 74.7746 223.859 74.791 223.776 74.791Z" fill="#E1F5F3"/>
<path d="M214.293 57.089C214.293 59.1839 212.595 60.8822 210.5 60.8822C208.405 60.8822 206.707 59.1839 206.707 57.089C206.707 54.6224 209.016 51.386 210.031 50.083C210.27 49.7764 210.73 49.7764 210.969 50.083C211.984 51.386 214.293 54.6225 214.293 57.089Z" fill="#FFCF5D"/>
<path d="M197.224 72.262C197.056 72.262 196.895 72.3286 196.777 72.4472C196.658 72.5658 196.591 72.7266 196.591 72.8942V74.1586C196.591 74.3263 196.658 74.4871 196.777 74.6057C196.895 74.7242 197.056 74.7908 197.224 74.7908H203.546V72.262H197.224V72.262Z" fill="#D6E5E4"/>
<path d="M208.603 56.7388C208.603 55.0225 209.721 52.0179 210.743 49.9082C210.504 49.8001 210.208 49.8569 210.031 50.0834C209.016 51.3864 206.707 54.6228 206.707 57.0893C206.707 59.1843 208.405 60.8826 210.5 60.8826C211.078 60.8826 211.624 60.7494 212.115 60.5178C210.152 60.3731 208.603 58.7386 208.603 56.7388Z" fill="#F2DBA3"/>
<path d="M197.224 35.5942C197.056 35.5942 196.895 35.6608 196.777 35.7794C196.658 35.898 196.591 36.0588 196.591 36.2264V37.4908C196.591 37.6585 196.658 37.8193 196.777 37.9379C196.895 38.0564 197.056 38.123 197.224 38.123H203.546V35.5942H197.224Z" fill="#D6E5E4"/>
<path d="M225 37.4908V36.2264C225 35.5516 224.451 35.0027 223.776 35.0027H197.224C196.549 35.0027 196 35.5516 196 36.2264V37.4908C196 37.951 196.256 38.3524 196.632 38.5613V46.3824H196.591C196.435 46.3824 196.284 46.4447 196.173 46.5557C196.062 46.6666 196 46.817 196 46.9739C196 47.1308 196.062 47.2812 196.173 47.3922C196.284 47.5031 196.435 47.5654 196.591 47.5654H196.632V62.8197H196.591C196.435 62.8197 196.284 62.882 196.173 62.9929C196.062 63.1039 196 63.2543 196 63.4112C196 63.5681 196.062 63.7185 196.173 63.8294C196.284 63.9404 196.435 64.0027 196.591 64.0027H196.632V71.8238C196.256 72.0327 196 72.4341 196 72.8943V74.1587C196 74.8335 196.549 75.3824 197.224 75.3824H223.776C224.451 75.3824 225 74.8335 225 74.1587V72.8943C225 72.4341 224.744 72.0327 224.368 71.8238V64.0027H224.409C224.565 64.0027 224.716 63.9404 224.827 63.8294C224.938 63.7185 225 63.5681 225 63.4112C225 63.2543 224.938 63.1039 224.827 62.9929C224.716 62.882 224.565 62.8197 224.409 62.8197H224.368V47.5654H224.409C224.565 47.5654 224.716 47.5031 224.827 47.3922C224.938 47.2812 225 47.1308 225 46.9739C225 46.817 224.938 46.6666 224.827 46.5557C224.716 46.4447 224.565 46.3824 224.409 46.3824H224.368V38.5613C224.744 38.3524 225 37.951 225 37.4908ZM197.183 36.2264C197.183 36.2039 197.201 36.1857 197.224 36.1857H223.776C223.799 36.1857 223.817 36.2039 223.817 36.2264V37.4908C223.817 37.5016 223.813 37.5119 223.805 37.5195C223.797 37.5272 223.787 37.5315 223.776 37.5315H197.224C197.213 37.5315 197.203 37.5272 197.195 37.5195C197.187 37.5119 197.183 37.5016 197.183 37.4908V36.2264ZM223.817 74.1586C223.817 74.1694 223.813 74.1798 223.805 74.1874C223.797 74.195 223.787 74.1993 223.776 74.1993H197.224C197.213 74.1993 197.203 74.195 197.195 74.1874C197.187 74.1798 197.183 74.1694 197.183 74.1586V72.8943C197.183 72.8718 197.201 72.8536 197.224 72.8536H223.776C223.799 72.8536 223.817 72.8718 223.817 72.8943V74.1586ZM218.719 47.5654H223.185V62.8197H204.81C204.653 62.8197 204.503 62.882 204.392 62.9929C204.281 63.1039 204.219 63.2543 204.219 63.4112C204.219 63.5681 204.281 63.7185 204.392 63.8294C204.503 63.9404 204.653 64.0027 204.81 64.0027H223.185V71.6706H197.815V64.0027H202.281C202.438 64.0027 202.589 63.9404 202.7 63.8294C202.811 63.7185 202.873 63.5681 202.873 63.4112C202.873 63.2543 202.811 63.1039 202.7 62.9929C202.589 62.882 202.438 62.8197 202.281 62.8197H197.815V47.5654H216.19C216.347 47.5654 216.497 47.5031 216.608 47.3922C216.719 47.2812 216.781 47.1308 216.781 46.9739C216.781 46.817 216.719 46.6666 216.608 46.5557C216.497 46.4447 216.347 46.3824 216.19 46.3824H197.815V38.7145H223.185V46.3823H218.719C218.562 46.3823 218.411 46.4447 218.3 46.5556C218.189 46.6665 218.127 46.817 218.127 46.9739C218.127 47.1308 218.189 47.2812 218.3 47.3922C218.411 47.5031 218.562 47.5654 218.719 47.5654Z" fill="black"/>
<path d="M210.5 48.9111C210.415 48.9111 210.33 48.9296 210.253 48.9653C210.175 49.0009 210.106 49.0529 210.051 49.1177C209.89 49.3052 206.115 53.7477 206.115 57.0891C206.115 59.5068 208.082 61.4738 210.5 61.4738C212.918 61.4738 214.885 59.5069 214.885 57.0891C214.885 53.7476 211.11 49.3052 210.949 49.1177C210.894 49.0529 210.825 49.0009 210.747 48.9653C210.67 48.9296 210.585 48.9112 210.5 48.9111ZM210.5 60.2908C208.735 60.2908 207.298 58.8546 207.298 57.0891C207.298 54.81 209.524 51.6988 210.5 50.4448C211.476 51.698 213.702 54.8067 213.702 57.0891C213.702 58.8546 212.265 60.2908 210.5 60.2908Z" fill="black"/>
<path d="M209.908 58.3537C209.908 58.5106 209.971 58.661 210.082 58.7719C210.193 58.8829 210.343 58.9452 210.5 58.9452C211.523 58.9452 212.356 58.1126 212.356 57.0893C212.356 56.9324 212.294 56.782 212.183 56.671C212.072 56.5601 211.921 56.4978 211.764 56.4978C211.607 56.4978 211.457 56.5601 211.346 56.671C211.235 56.782 211.173 56.9324 211.173 57.0893C211.173 57.4604 210.871 57.7622 210.5 57.7622C210.343 57.7622 210.193 57.8245 210.082 57.9354C209.971 58.0464 209.908 58.1968 209.908 58.3537Z" fill="black"/>
</g>
<g opacity="0.9" filter="url(#filter1_f_43_6)">
<path d="M106.224 37.4907H132.776V72.894H106.224V37.4907Z" fill="#E1F5F3"/>
<path d="M117.603 40.0196H132.776V37.4907H106.224V72.8942H113.178V44.445C113.178 42.0009 115.159 40.0196 117.603 40.0196Z" fill="#D6E6E4"/>
<path d="M132.776 38.1231H106.224C106.056 38.1231 105.895 38.0565 105.777 37.9379C105.658 37.8194 105.591 37.6586 105.591 37.4909V36.2264C105.591 36.0588 105.658 35.898 105.777 35.7794C105.895 35.6608 106.056 35.5942 106.224 35.5942H132.776C132.944 35.5942 133.105 35.6608 133.223 35.7794C133.342 35.898 133.408 36.0588 133.408 36.2264V37.4908C133.408 37.5738 133.392 37.6561 133.36 37.7328C133.329 37.8095 133.282 37.8792 133.223 37.9379C133.165 37.9966 133.095 38.0432 133.018 38.075C132.942 38.1067 132.859 38.1231 132.776 38.1231ZM132.776 74.791H106.224C106.056 74.791 105.895 74.7244 105.777 74.6058C105.658 74.4872 105.591 74.3264 105.591 74.1588V72.8944C105.591 72.7267 105.658 72.5659 105.777 72.4473C105.895 72.3288 106.056 72.2622 106.224 72.2622H132.776C132.944 72.2622 133.105 72.3288 133.223 72.4473C133.342 72.5659 133.408 72.7267 133.408 72.8944V74.1588C133.408 74.2418 133.392 74.324 133.36 74.4007C133.329 74.4774 133.282 74.5471 133.223 74.6058C133.165 74.6645 133.095 74.7111 133.018 74.7428C132.942 74.7746 132.859 74.791 132.776 74.791Z" fill="#E1F5F3"/>
<path d="M123.293 57.089C123.293 59.1839 121.595 60.8822 119.5 60.8822C117.405 60.8822 115.707 59.1839 115.707 57.089C115.707 54.6224 118.016 51.386 119.031 50.083C119.27 49.7764 119.73 49.7764 119.969 50.083C120.984 51.386 123.293 54.6225 123.293 57.089Z" fill="#FFCF5D"/>
<path d="M106.224 72.262C106.056 72.262 105.895 72.3286 105.777 72.4472C105.658 72.5658 105.591 72.7266 105.591 72.8942V74.1586C105.591 74.3263 105.658 74.4871 105.777 74.6057C105.895 74.7242 106.056 74.7908 106.224 74.7908H112.546V72.262H106.224V72.262Z" fill="#D6E5E4"/>
<path d="M117.603 56.7388C117.603 55.0225 118.721 52.0179 119.743 49.9082C119.504 49.8001 119.208 49.8569 119.031 50.0834C118.016 51.3864 115.707 54.6228 115.707 57.0893C115.707 59.1843 117.405 60.8826 119.5 60.8826C120.078 60.8826 120.624 60.7494 121.115 60.5178C119.152 60.3731 117.603 58.7386 117.603 56.7388Z" fill="#F2DBA3"/>
<path d="M106.224 35.5942C106.056 35.5942 105.895 35.6608 105.777 35.7794C105.658 35.898 105.591 36.0588 105.591 36.2264V37.4908C105.591 37.6585 105.658 37.8193 105.777 37.9379C105.895 38.0564 106.056 38.123 106.224 38.123H112.546V35.5942H106.224Z" fill="#D6E5E4"/>
<path d="M134 37.4908V36.2264C134 35.5516 133.451 35.0027 132.776 35.0027H106.224C105.549 35.0027 105 35.5516 105 36.2264V37.4908C105 37.951 105.256 38.3524 105.632 38.5613V46.3824H105.591C105.435 46.3824 105.284 46.4447 105.173 46.5557C105.062 46.6666 105 46.817 105 46.9739C105 47.1308 105.062 47.2812 105.173 47.3922C105.284 47.5031 105.435 47.5654 105.591 47.5654H105.632V62.8197H105.591C105.435 62.8197 105.284 62.882 105.173 62.9929C105.062 63.1039 105 63.2543 105 63.4112C105 63.5681 105.062 63.7185 105.173 63.8294C105.284 63.9404 105.435 64.0027 105.591 64.0027H105.632V71.8238C105.256 72.0327 105 72.4341 105 72.8943V74.1587C105 74.8335 105.549 75.3824 106.224 75.3824H132.776C133.451 75.3824 134 74.8335 134 74.1587V72.8943C134 72.4341 133.744 72.0327 133.368 71.8238V64.0027H133.409C133.565 64.0027 133.716 63.9404 133.827 63.8294C133.938 63.7185 134 63.5681 134 63.4112C134 63.2543 133.938 63.1039 133.827 62.9929C133.716 62.882 133.565 62.8197 133.409 62.8197H133.368V47.5654H133.409C133.565 47.5654 133.716 47.5031 133.827 47.3922C133.938 47.2812 134 47.1308 134 46.9739C134 46.817 133.938 46.6666 133.827 46.5557C133.716 46.4447 133.565 46.3824 133.409 46.3824H133.368V38.5613C133.744 38.3524 134 37.951 134 37.4908ZM106.183 36.2264C106.183 36.2039 106.201 36.1857 106.224 36.1857H132.776C132.799 36.1857 132.817 36.2039 132.817 36.2264V37.4908C132.817 37.5016 132.813 37.5119 132.805 37.5195C132.797 37.5272 132.787 37.5315 132.776 37.5315H106.224C106.213 37.5315 106.203 37.5272 106.195 37.5195C106.187 37.5119 106.183 37.5016 106.183 37.4908V36.2264ZM132.817 74.1586C132.817 74.1694 132.813 74.1798 132.805 74.1874C132.797 74.195 132.787 74.1993 132.776 74.1993H106.224C106.213 74.1993 106.203 74.195 106.195 74.1874C106.187 74.1798 106.183 74.1694 106.183 74.1586V72.8943C106.183 72.8718 106.201 72.8536 106.224 72.8536H132.776C132.799 72.8536 132.817 72.8718 132.817 72.8943V74.1586ZM127.719 47.5654H132.185V62.8197H113.81C113.653 62.8197 113.503 62.882 113.392 62.9929C113.281 63.1039 113.219 63.2543 113.219 63.4112C113.219 63.5681 113.281 63.7185 113.392 63.8294C113.503 63.9404 113.653 64.0027 113.81 64.0027H132.185V71.6706H106.815V64.0027H111.281C111.438 64.0027 111.589 63.9404 111.7 63.8294C111.811 63.7185 111.873 63.5681 111.873 63.4112C111.873 63.2543 111.811 63.1039 111.7 62.9929C111.589 62.882 111.438 62.8197 111.281 62.8197H106.815V47.5654H125.19C125.347 47.5654 125.497 47.5031 125.608 47.3922C125.719 47.2812 125.781 47.1308 125.781 46.9739C125.781 46.817 125.719 46.6666 125.608 46.5557C125.497 46.4447 125.347 46.3824 125.19 46.3824H106.815V38.7145H132.185V46.3823H127.719C127.562 46.3823 127.411 46.4447 127.3 46.5556C127.189 46.6665 127.127 46.817 127.127 46.9739C127.127 47.1308 127.189 47.2812 127.3 47.3922C127.411 47.5031 127.562 47.5654 127.719 47.5654Z" fill="black"/>
<path d="M119.5 48.9111C119.415 48.9111 119.33 48.9296 119.253 48.9653C119.175 49.0009 119.106 49.0529 119.051 49.1177C118.89 49.3052 115.115 53.7477 115.115 57.0891C115.115 59.5068 117.082 61.4738 119.5 61.4738C121.918 61.4738 123.885 59.5069 123.885 57.0891C123.885 53.7476 120.11 49.3052 119.949 49.1177C119.894 49.0529 119.825 49.0009 119.747 48.9653C119.67 48.9296 119.585 48.9112 119.5 48.9111ZM119.5 60.2908C117.735 60.2908 116.298 58.8546 116.298 57.0891C116.298 54.81 118.524 51.6988 119.5 50.4448C120.476 51.698 122.702 54.8067 122.702 57.0891C122.702 58.8546 121.265 60.2908 119.5 60.2908Z" fill="black"/>
<path d="M118.908 58.3537C118.908 58.5106 118.971 58.661 119.082 58.7719C119.193 58.8829 119.343 58.9452 119.5 58.9452C120.523 58.9452 121.356 58.1126 121.356 57.0893C121.356 56.9324 121.294 56.782 121.183 56.671C121.072 56.5601 120.921 56.4978 120.764 56.4978C120.607 56.4978 120.457 56.5601 120.346 56.671C120.235 56.782 120.173 56.9324 120.173 57.0893C120.173 57.4604 119.871 57.7622 119.5 57.7622C119.343 57.7622 119.193 57.8245 119.082 57.9354C118.971 58.0464 118.908 58.1968 118.908 58.3537Z" fill="black"/>
</g>
<path d="M147.603 27.2629H182.397V73.6534H147.603V27.2629Z" fill="#E1F5F3"/>
<path d="M162.515 30.5766H182.397V27.2629H147.603V73.6537H156.716V36.3755C156.716 33.1729 159.312 30.5766 162.515 30.5766Z" fill="#D6E6E4"/>
<path d="M182.397 28.0915H147.603C147.384 28.0915 147.173 28.0042 147.018 27.8489C146.862 27.6935 146.775 27.4828 146.775 27.2631V25.6062C146.775 25.3865 146.862 25.1758 147.018 25.0205C147.173 24.8651 147.384 24.7778 147.603 24.7778H182.396C182.616 24.7778 182.827 24.8651 182.982 25.0205C183.138 25.1758 183.225 25.3865 183.225 25.6062V27.263C183.225 27.3718 183.203 27.4795 183.162 27.58C183.12 27.6806 183.059 27.7719 182.982 27.8488C182.905 27.9258 182.814 27.9868 182.714 28.0284C182.613 28.0701 182.505 28.0915 182.397 28.0915ZM182.397 76.1391H147.603C147.384 76.1391 147.173 76.0518 147.018 75.8964C146.862 75.7411 146.775 75.5304 146.775 75.3107V73.6539C146.775 73.4342 146.862 73.2235 147.018 73.0681C147.173 72.9128 147.384 72.8255 147.603 72.8255H182.396C182.616 72.8255 182.827 72.9128 182.982 73.0681C183.138 73.2235 183.225 73.4342 183.225 73.6539V75.3107C183.225 75.4194 183.203 75.5272 183.162 75.6277C183.12 75.7282 183.059 75.8195 182.982 75.8964C182.905 75.9733 182.814 76.0344 182.714 76.076C182.613 76.1176 182.505 76.1391 182.397 76.1391Z" fill="#E1F5F3"/>
<path d="M169.97 52.9435C169.97 55.6886 167.745 57.9139 165 57.9139C162.255 57.9139 160.03 55.6886 160.03 52.9435C160.03 49.7115 163.056 45.4707 164.386 43.7633C164.699 43.3615 165.301 43.3615 165.614 43.7633C166.944 45.4707 169.97 49.7116 169.97 52.9435Z" fill="#FFCF5D"/>
<path d="M147.603 72.8251C147.384 72.8251 147.173 72.9123 147.018 73.0677C146.862 73.223 146.775 73.4337 146.775 73.6534V75.3102C146.775 75.5299 146.862 75.7406 147.018 75.896C147.173 76.0514 147.384 76.1386 147.603 76.1386H155.887V72.825H147.603V72.8251Z" fill="#D6E5E4"/>
<path d="M162.515 52.4844C162.515 50.2355 163.98 46.2984 165.319 43.534C165.005 43.3924 164.617 43.4667 164.386 43.7635C163.056 45.471 160.03 49.7117 160.03 52.9438C160.03 55.6888 162.255 57.9142 165 57.9142C165.758 57.9142 166.473 57.7397 167.116 57.4363C164.544 57.2466 162.515 55.1049 162.515 52.4844Z" fill="#F2DBA3"/>
<path d="M147.603 24.7778C147.384 24.7778 147.173 24.8651 147.018 25.0205C146.862 25.1758 146.775 25.3865 146.775 25.6062V27.263C146.775 27.4827 146.862 27.6934 147.018 27.8488C147.173 28.0041 147.384 28.0914 147.603 28.0914H155.887V24.7778H147.603Z" fill="#D6E5E4"/>
<path d="M184 27.2629V25.6061C184 24.7219 183.281 24.0027 182.397 24.0027H147.603C146.719 24.0027 146 24.7219 146 25.6061V27.2629C146 27.866 146.335 28.3919 146.828 28.6657V38.9141H146.775C146.57 38.9141 146.372 38.9957 146.227 39.1411C146.082 39.2864 146 39.4836 146 39.6891C146 39.8947 146.082 40.0918 146.227 40.2372C146.372 40.3825 146.57 40.4642 146.775 40.4642H146.828V60.4525H146.775C146.57 60.4525 146.372 60.5342 146.227 60.6796C146.082 60.8249 146 61.0221 146 61.2276C146 61.4332 146.082 61.6303 146.227 61.7757C146.372 61.921 146.57 62.0027 146.775 62.0027H146.828V72.251C146.335 72.5248 146 73.0507 146 73.6538V75.3106C146 76.1948 146.719 76.914 147.603 76.914H182.397C183.281 76.914 184 76.1948 184 75.3106V73.6538C184 73.0507 183.665 72.5248 183.172 72.251V62.0027H183.225C183.43 62.0027 183.628 61.921 183.773 61.7757C183.918 61.6303 184 61.4332 184 61.2276C184 61.0221 183.918 60.8249 183.773 60.6796C183.628 60.5342 183.43 60.4525 183.225 60.4525H183.172V40.4642H183.225C183.43 40.4642 183.628 40.3825 183.773 40.2372C183.918 40.0918 184 39.8947 184 39.6891C184 39.4836 183.918 39.2864 183.773 39.1411C183.628 38.9957 183.43 38.9141 183.225 38.9141H183.172V28.6657C183.665 28.3919 184 27.866 184 27.2629ZM147.55 25.6061C147.55 25.5767 147.574 25.5528 147.603 25.5528H182.397C182.426 25.5528 182.45 25.5767 182.45 25.6061V27.2629C182.45 27.2771 182.444 27.2906 182.434 27.3006C182.424 27.3106 182.411 27.3163 182.397 27.3163H147.603C147.589 27.3163 147.576 27.3106 147.566 27.3006C147.556 27.2906 147.55 27.2771 147.55 27.2629V25.6061ZM182.45 75.3105C182.45 75.3246 182.444 75.3382 182.434 75.3482C182.424 75.3582 182.411 75.3638 182.397 75.3638H147.603C147.589 75.3638 147.576 75.3582 147.566 75.3482C147.556 75.3382 147.55 75.3246 147.55 75.3105V73.6537C147.55 73.6243 147.574 73.6004 147.603 73.6004H182.397C182.426 73.6004 182.45 73.6243 182.45 73.6537V75.3105ZM175.769 40.4642H181.621V60.4525H157.545C157.339 60.4525 157.142 60.5342 156.997 60.6796C156.851 60.8249 156.77 61.0221 156.77 61.2276C156.77 61.4332 156.851 61.6303 156.997 61.7757C157.142 61.921 157.339 62.0027 157.545 62.0027H181.621V72.0502H148.379V62.0027H154.231C154.436 62.0027 154.634 61.921 154.779 61.7757C154.924 61.6303 155.006 61.4332 155.006 61.2276C155.006 61.0221 154.924 60.8249 154.779 60.6796C154.634 60.5342 154.436 60.4525 154.231 60.4525H148.379V40.4642H172.455C172.661 40.4642 172.858 40.3825 173.003 40.2372C173.149 40.0918 173.23 39.8947 173.23 39.6891C173.23 39.4836 173.149 39.2864 173.003 39.1411C172.858 38.9957 172.661 38.9141 172.455 38.9141H148.379V28.8664H181.621V38.9139H175.769C175.564 38.9139 175.366 38.9956 175.221 39.141C175.076 39.2863 174.994 39.4835 174.994 39.6891C174.994 39.8946 175.076 40.0918 175.221 40.2372C175.366 40.3825 175.564 40.4642 175.769 40.4642Z" fill="black"/>
<path d="M165 42.2278C164.888 42.2278 164.778 42.252 164.676 42.2987C164.575 42.3454 164.484 42.4136 164.412 42.4984C164.201 42.7441 159.255 48.5654 159.255 52.9437C159.255 56.1117 161.832 58.6892 165 58.6892C168.168 58.6892 170.746 56.1119 170.746 52.9437C170.746 48.5653 165.799 42.7441 165.589 42.4984C165.516 42.4136 165.426 42.3454 165.324 42.2987C165.222 42.252 165.112 42.2278 165 42.2278ZM165 57.1391C162.687 57.1391 160.805 55.2571 160.805 52.9437C160.805 49.9574 163.722 45.8806 165 44.2374C166.279 45.8796 169.195 49.9529 169.195 52.9437C169.195 55.2571 167.313 57.1391 165 57.1391Z" fill="black"/>
<path d="M164.225 54.6003C164.225 54.8059 164.307 55.003 164.452 55.1484C164.597 55.2937 164.794 55.3754 165 55.3754C166.341 55.3754 167.432 54.2844 167.432 52.9435C167.432 52.738 167.35 52.5408 167.205 52.3955C167.059 52.2501 166.862 52.1685 166.657 52.1685C166.451 52.1685 166.254 52.2501 166.109 52.3955C165.963 52.5408 165.882 52.738 165.882 52.9435C165.882 53.4298 165.486 53.8252 165 53.8252C164.794 53.8252 164.597 53.9069 164.452 54.0523C164.307 54.1976 164.225 54.3948 164.225 54.6003Z" fill="black"/>
<defs>
<filter id="filter0_f_43_6" x="192" y="31.0027" width="37" height="48.3796" filterUnits="userSpaceOnUse" color-interpolation-filters="sRGB">
<feFlood flood-opacity="0" result="BackgroundImageFix"/>
<feBlend mode="normal" in="SourceGraphic" in2="BackgroundImageFix" result="shape"/>
<feGaussianBlur stdDeviation="2" result="effect1_foregroundBlur_43_6"/>
</filter>
<filter id="filter1_f_43_6" x="101" y="31.0027" width="37" height="48.3796" filterUnits="userSpaceOnUse" color-interpolation-filters="sRGB">
<feFlood flood-opacity="0" result="BackgroundImageFix"/>
<feBlend mode="normal" in="SourceGraphic" in2="BackgroundImageFix" result="shape"/>
<feGaussianBlur stdDeviation="2" result="effect1_foregroundBlur_43_6"/>
</filter>
</defs>
</svg>
