<svg width="330" height="146" viewBox="0 0 330 146" fill="none" xmlns="http://www.w3.org/2000/svg">
<rect y="0.000488281" width="330" height="146" rx="20" fill="white" fill-opacity="0.8"/>
<path d="M182.85 43.5V49.4454C180.294 49.6181 177.924 50.4761 175.921 51.8354C173.979 53.1534 173.732 55.9214 175.391 57.5806L177.407 59.5966L191.312 56V39.75H186.6C184.529 39.75 182.85 41.4287 182.85 43.5ZM162.875 61.459H156.312V26.3125C156.312 26.0639 156.411 25.8254 156.587 25.6496C156.763 25.4738 157.001 25.375 157.25 25.375H161.938C162.455 25.375 162.875 25.795 162.875 26.3125V61.459Z" fill="#596775"/>
<path d="M193.188 25.375H178.024C171.797 25.375 166.386 29.8063 165.157 35.9106L162.875 47.2544V26.3125C162.875 25.7944 162.455 25.375 161.937 25.375H159.125V54.9654C158.157 55.1939 157.215 55.5176 156.312 55.9316V61.459H162.875V60.2881L164.03 60.5206L168.834 36.6509C169.714 32.2734 173.56 29.125 178.024 29.125H189.438V39.75H186.6C186.285 39.75 185.98 39.7891 185.688 39.8622V50.375C185.688 51.4106 184.848 52.25 183.813 52.25C180.121 52.25 176.84 54.0371 174.787 56.791C174.953 57.0796 175.156 57.3451 175.391 57.5806L177.407 59.5966C186.77 57.1754 184.793 57.6866 189.438 56.4854V57.875H193.188V29.125C194.223 29.125 195.063 28.2856 195.063 27.25C195.063 26.2144 194.223 25.375 193.188 25.375Z" fill="#35404A"/>
<path d="M191.312 56H183.812C179.67 56 176.312 59.3579 176.312 63.5V63.8681H172.261C170.304 60.5464 166.689 58.3125 162.562 58.3125C159.83 58.3125 157.321 59.292 155.37 60.9185C154.945 61.2725 154.914 61.9141 155.305 62.3047L162.562 69.5625V70.4306H194.125C194.374 70.4306 194.612 70.3319 194.788 70.156C194.964 69.9802 195.062 69.7418 195.062 69.4931V59.75C195.062 57.6792 193.383 56 191.312 56Z" fill="#FFCF5D"/>
<path d="M159.681 66.6806L162.563 69.5625V70.4306H194.125C194.374 70.4306 194.612 70.3319 194.788 70.156C194.964 69.9802 195.063 69.7418 195.063 69.4931V59.75C195.063 57.6792 193.383 56 191.313 56V66.6806H159.681Z" fill="#FF983B"/>
<path d="M186 77.0625C182.381 77.0625 179.438 74.1187 179.438 70.5C179.438 66.8812 182.381 63.9375 186 63.9375C189.619 63.9375 192.562 66.8812 192.562 70.5C192.562 74.1187 189.619 77.0625 186 77.0625Z" fill="#596775"/>
<path d="M187.341 64.0757C186.572 65.4972 186.788 67.3101 187.989 68.5113L184.011 72.4888C182.81 71.2876 180.997 71.0723 179.576 71.8413C180.197 74.8188 182.841 77.0626 186 77.0626C189.619 77.0626 192.563 74.1188 192.563 70.5001C192.563 67.3409 190.319 64.6968 187.341 64.0757Z" fill="#35404A"/>
<path d="M188.812 70.5C188.812 72.0532 187.553 73.3125 186 73.3125C184.447 73.3125 183.188 72.0532 183.188 70.5C183.188 68.9468 184.447 67.6875 186 67.6875C187.553 67.6875 188.812 68.9468 188.812 70.5Z" fill="#D3CDBF"/>
<path d="M162.562 77.0625C158.427 77.0625 155.062 73.6982 155.062 69.5625C155.062 65.4268 158.427 62.0625 162.562 62.0625C166.698 62.0625 170.062 65.4268 170.062 69.5625C170.062 73.6982 166.698 77.0625 162.562 77.0625Z" fill="#596775"/>
<path d="M164.634 62.356C163.786 63.7935 163.979 65.6757 165.214 66.9106L159.911 72.2143C158.675 70.979 156.793 70.7856 155.355 71.6337C156.257 74.7646 159.145 77.0625 162.562 77.0625C166.698 77.0625 170.062 73.6982 170.062 69.5625C170.062 66.1455 167.765 63.2573 164.634 62.356Z" fill="#35404A"/>
<path d="M166.312 69.5625C166.312 71.6337 164.633 73.3125 162.562 73.3125C160.491 73.3125 158.812 71.6337 158.812 69.5625C158.812 67.4913 160.491 65.8125 162.562 65.8125C164.633 65.8125 166.312 67.4913 166.312 69.5625Z" fill="#D3CDBF"/>
<path d="M156.312 15.875C156.312 15.3575 155.892 14.9375 155.375 14.9375H153.5C153.251 14.9375 153.013 15.0363 152.837 15.2121C152.661 15.3879 152.562 15.6264 152.562 15.875V37.875C152.562 38.1236 152.661 38.3621 152.837 38.5379C153.013 38.7137 153.251 38.8125 153.5 38.8125H156.312V15.875Z" fill="#35404A"/>
<path d="M194.125 56.0034V29.9019C195.216 29.5146 196 28.4721 196 27.25C196 25.6993 194.738 24.4375 193.188 24.4375H178.024C171.353 24.4375 165.555 29.185 164.238 35.7261L163.812 37.8433V26.3125C163.812 25.2787 162.971 24.4375 161.938 24.4375H157.25V15.875C157.25 14.8412 156.409 14 155.375 14H153.5C152.466 14 151.625 14.8412 151.625 15.875V37.875H132.938C132.42 37.875 132 38.2944 132 38.8125C132 39.3306 132.42 39.75 132.938 39.75H155.375V59.7285C155.168 59.8783 154.966 60.0349 154.77 60.1982C154.569 60.3656 154.406 60.5729 154.289 60.8069C154.173 61.041 154.107 61.2966 154.095 61.5576C154.083 61.8177 154.126 62.0774 154.22 62.3202C154.314 62.5629 154.458 62.7834 154.642 62.9678L155.973 64.2989C154.776 65.7905 154.125 67.627 154.125 69.5625C154.125 74.2149 157.91 78 162.562 78C166.563 78 169.969 75.2021 170.803 71.3681H178.552C178.984 75.0963 182.158 78 186 78C189.841 78 193.016 75.0963 193.448 71.3681H194.125C195.159 71.3681 196 70.5274 196 69.4931V59.75C196 58.2715 195.292 56.8824 194.125 56.0034ZM155.375 26.3125V37.875H153.5V15.875H155.375V26.3125ZM166.077 36.0958C167.217 30.4268 172.242 26.3125 178.024 26.3125H193.188C193.705 26.3125 194.125 26.7329 194.125 27.25C194.125 27.7671 193.705 28.1875 193.188 28.1875C193.064 28.1875 192.942 28.2117 192.829 28.2588C192.715 28.3059 192.612 28.3749 192.524 28.462C192.437 28.549 192.368 28.6524 192.321 28.7662C192.274 28.8799 192.25 29.0019 192.25 29.125V55.1582C191.942 55.0948 191.627 55.0627 191.312 55.0625H190.375V29.125C190.375 28.8764 190.276 28.6379 190.1 28.4621C189.925 28.2863 189.686 28.1875 189.438 28.1875H178.024C173.131 28.1875 168.88 31.669 167.915 36.4659L163.696 57.4296C163.062 57.3716 162.425 57.3627 161.789 57.4029L166.077 36.0958ZM174.064 57.4111C174.149 57.546 174.266 57.6572 174.405 57.7342C174.544 57.8113 174.701 57.8517 174.86 57.8516C175.03 57.8516 175.202 57.8051 175.357 57.708C175.568 57.576 175.717 57.3658 175.773 57.1235C175.829 56.8812 175.786 56.6267 175.654 56.416C174.849 55.1309 175.197 53.4595 176.447 52.6114C178.367 51.3086 180.599 50.5387 182.914 50.3804C183.151 50.3644 183.373 50.2589 183.535 50.0853C183.697 49.9117 183.788 49.683 183.788 49.4454V43.5C183.788 41.9492 185.049 40.6875 186.6 40.6875H188.5V55.0625H183.812C180.848 55.0625 178.154 56.5752 176.607 59.1084C175.9 60.2661 175.484 61.5774 175.394 62.9306H172.783C171.098 60.3374 168.518 58.4931 165.545 57.7441L169.753 36.8354C170.542 32.9111 174.021 30.0625 178.024 30.0625H188.5V38.8125H186.6C184.015 38.8125 181.912 40.915 181.912 43.5V48.5947C179.576 48.8931 177.343 49.7375 175.395 51.0596C173.306 52.4771 172.722 55.2671 174.064 57.4111ZM157.25 26.3125H161.938V47.1613L159.819 57.6875C158.931 57.8921 158.069 58.1971 157.25 58.5966V26.3125ZM162.562 76.125C158.944 76.125 156 73.1813 156 69.5625C156 65.9419 158.941 63 162.562 63C166.181 63 169.125 65.9437 169.125 69.5625C169.125 73.1949 166.18 76.125 162.562 76.125ZM186 76.125C182.898 76.125 180.375 73.6016 180.375 70.495C180.376 70.4766 180.376 70.459 180.376 70.4404C180.409 67.3716 182.931 64.875 186 64.875C189.068 64.875 191.591 67.3716 191.623 70.4404C191.624 70.459 191.624 70.4766 191.625 70.5C191.625 73.6016 189.102 76.125 186 76.125ZM194.125 69.4931H193.428C192.932 65.8379 189.777 63 186 63C182.225 63 179.072 65.8345 178.572 69.4931H170.998C170.961 64.8725 167.191 61.125 162.562 61.125C160.628 61.125 158.791 61.7763 157.3 62.9721L155.97 61.6381C157.112 60.6855 158.447 59.9917 159.883 59.6044C161.318 59.217 162.821 59.1454 164.287 59.3945C167.286 59.9014 169.898 61.7056 171.454 64.3442C171.536 64.4848 171.654 64.6013 171.796 64.6822C171.938 64.7631 172.098 64.8057 172.261 64.8056H176.312C176.83 64.8056 177.25 64.3862 177.25 63.8681V63.5C177.25 62.292 177.581 61.1112 178.207 60.0855C179.411 58.1143 181.506 56.9375 183.812 56.9375H191.312C191.806 56.9375 192.292 57.0679 192.718 57.3145C193.585 57.8162 194.125 58.75 194.125 59.75V69.4931H194.125Z" fill="black"/>
<path d="M165.21 66.7461C165.106 66.8128 165.017 66.8991 164.947 67.0004C164.877 67.1016 164.827 67.2156 164.801 67.336C164.775 67.4564 164.773 67.5807 164.795 67.7019C164.816 67.8231 164.862 67.9388 164.929 68.0424C165.221 68.4955 165.376 69.0234 165.375 69.5625C165.372 71.1099 164.111 72.3725 162.562 72.375C161.015 72.3725 159.753 71.1099 159.75 69.5625C159.753 68.0151 161.015 66.7525 162.562 66.75C163.079 66.75 163.5 66.33 163.5 65.8125C163.5 65.2964 163.079 64.875 162.562 64.875C159.966 64.875 157.875 66.9761 157.875 69.5625C157.875 72.1543 159.971 74.25 162.562 74.25C165.152 74.25 167.25 72.1543 167.25 69.5625C167.251 68.6633 166.992 67.783 166.505 67.0274C166.222 66.5845 165.636 66.4711 165.21 66.7461ZM188.514 68.9248C188.019 69.0444 187.699 69.5444 187.822 70.0576V70.0586C187.857 70.2026 187.875 70.3511 187.875 70.5C187.872 71.5312 187.031 72.3725 186 72.375C184.967 72.3725 184.126 71.5312 184.125 70.5C184.126 69.4672 184.967 68.6265 186 68.625C186.516 68.625 186.938 68.2036 186.938 67.6875C186.938 67.1714 186.518 66.7515 186.002 66.75H186C183.93 66.75 182.25 68.4253 182.25 70.5C182.25 72.5664 183.921 74.25 186 74.25C187.001 74.25 187.944 73.8599 188.651 73.1512C189.36 72.4437 189.75 71.5015 189.75 70.5C189.75 70.2013 189.715 69.9037 189.645 69.6162C189.616 69.4965 189.564 69.3835 189.492 69.2839C189.419 69.1842 189.328 69.0999 189.223 69.0356C189.118 68.9714 189.001 68.9285 188.879 68.9095C188.758 68.8905 188.633 68.8957 188.514 68.9248Z" fill="black"/>
<g opacity="0.5" filter="url(#filter0_f_43_7)">
<path d="M114.521 50.5078V55.2455C112.485 55.3832 110.596 56.0669 108.999 57.1501C107.452 58.2003 107.255 60.4061 108.577 61.7283L110.184 63.3348L121.265 60.4688V47.5195H117.509C115.859 47.5195 114.521 48.8573 114.521 50.5078ZM98.6035 64.8189H93.374V36.8115C93.374 36.6134 93.4527 36.4234 93.5928 36.2833C93.7329 36.1432 93.923 36.0645 94.1211 36.0645H97.8564C98.2688 36.0645 98.6035 36.3991 98.6035 36.8115V64.8189Z" fill="#596775"/>
<path d="M122.759 36.0645H110.676C105.714 36.0645 101.401 39.5956 100.422 44.46L98.6031 53.4996V36.8115C98.6031 36.3986 98.269 36.0645 97.8561 36.0645H95.6149V59.6443C94.8442 59.8264 94.0935 60.0843 93.3737 60.4143V64.8189H98.6031V63.8858L99.5241 64.0711L103.352 45.0499C104.054 41.5616 107.118 39.0527 110.676 39.0527H119.771V47.5195H117.509C117.258 47.5195 117.015 47.5507 116.782 47.609V55.9863C116.782 56.8116 116.113 57.4805 115.288 57.4805C112.347 57.4805 109.732 58.9046 108.096 61.0991C108.228 61.329 108.39 61.5406 108.577 61.7283L110.184 63.3348C117.645 61.4054 116.069 61.8128 119.771 60.8555V61.9629H122.759V39.0527C123.584 39.0527 124.253 38.3839 124.253 37.5586C124.253 36.7333 123.584 36.0645 122.759 36.0645Z" fill="#35404A"/>
<path d="M121.265 60.4688H115.288C111.987 60.4688 109.312 63.1446 109.312 66.4453V66.7387H106.083C104.523 64.0916 101.643 62.3115 98.3545 62.3115C96.1767 62.3115 94.1779 63.0921 92.623 64.3882C92.2845 64.6703 92.2593 65.1816 92.5709 65.4928L98.3545 71.2764V71.9682H123.506C123.704 71.9682 123.894 71.8894 124.034 71.7493C124.174 71.6092 124.253 71.4192 124.253 71.2211V63.457C124.253 61.8069 122.915 60.4688 121.265 60.4688Z" fill="#FFCF5D"/>
<path d="M96.058 68.9799L98.3545 71.2764V71.9682H123.506C123.704 71.9682 123.894 71.8894 124.034 71.7493C124.174 71.6092 124.253 71.4192 124.253 71.2211V63.457C124.253 61.8069 122.915 60.4688 121.265 60.4688V68.9799H96.058Z" fill="#FF983B"/>
<path d="M117.031 77.2529C114.148 77.2529 111.802 74.9071 111.802 72.0234C111.802 69.1397 114.148 66.7939 117.031 66.7939C119.915 66.7939 122.261 69.1397 122.261 72.0234C122.261 74.9071 119.915 77.2529 117.031 77.2529Z" fill="#596775"/>
<path d="M118.1 66.9041C117.487 68.0368 117.659 69.4814 118.616 70.4387L115.447 73.6083C114.489 72.651 113.045 72.4795 111.912 73.0923C112.407 75.465 114.514 77.253 117.031 77.253C119.915 77.253 122.261 74.9072 122.261 72.0235C122.261 69.506 120.473 67.399 118.1 66.9041Z" fill="#35404A"/>
<path d="M119.272 72.0234C119.272 73.2612 118.269 74.2646 117.031 74.2646C115.794 74.2646 114.79 73.2612 114.79 72.0234C114.79 70.7857 115.794 69.7822 117.031 69.7822C118.269 69.7822 119.272 70.7857 119.272 72.0234Z" fill="#D3CDBF"/>
<path d="M98.3545 77.2529C95.0588 77.2529 92.3779 74.572 92.3779 71.2764C92.3779 67.9807 95.0588 65.2998 98.3545 65.2998C101.65 65.2998 104.331 67.9807 104.331 71.2764C104.331 74.572 101.65 77.2529 98.3545 77.2529Z" fill="#596775"/>
<path d="M100.005 65.5337C99.3291 66.6792 99.4832 68.1791 100.467 69.1632L96.2412 73.3896C95.2568 72.4051 93.7572 72.2511 92.6113 72.9269C93.3295 75.4218 95.6315 77.2529 98.354 77.2529C101.65 77.2529 104.331 74.572 104.331 71.2764C104.331 68.5534 102.5 66.252 100.005 65.5337Z" fill="#35404A"/>
<path d="M101.343 71.2764C101.343 72.9269 100.005 74.2646 98.3545 74.2646C96.704 74.2646 95.3662 72.9269 95.3662 71.2764C95.3662 69.6258 96.704 68.2881 98.3545 68.2881C100.005 68.2881 101.343 69.6258 101.343 71.2764Z" fill="#D3CDBF"/>
<path d="M93.374 28.4941C93.374 28.0818 93.0393 27.7471 92.627 27.7471H91.1328C90.9347 27.7471 90.7447 27.8258 90.6046 27.9659C90.4645 28.106 90.3857 28.296 90.3857 28.4941V46.0254C90.3857 46.2235 90.4645 46.4135 90.6046 46.5536C90.7447 46.6938 90.9347 46.7725 91.1328 46.7725H93.374V28.4941Z" fill="#35404A"/>
<path d="M123.506 60.4714V39.6718C124.375 39.3632 125 38.5325 125 37.5586C125 36.3228 123.995 35.3174 122.759 35.3174H110.676C105.359 35.3174 100.739 39.1005 99.6899 44.313L99.3506 46.0001V36.8115C99.3506 35.9878 98.6802 35.3174 97.8564 35.3174H94.1211V28.4941C94.1211 27.6704 93.4507 27 92.627 27H91.1328C90.3087 27 89.6387 27.6704 89.6387 28.4941V46.0254H74.7471C74.3347 46.0254 74 46.3596 74 46.7725C74 47.1853 74.3347 47.5195 74.7471 47.5195H92.627V63.4399C92.4621 63.5593 92.3013 63.6841 92.1448 63.8142C91.9849 63.9476 91.8545 64.1128 91.7619 64.2993C91.6693 64.4858 91.6164 64.6895 91.6068 64.8975C91.5975 65.1048 91.6315 65.3117 91.7066 65.5051C91.7816 65.6986 91.896 65.8743 92.0425 66.0212L93.1036 67.0819C92.1499 68.2706 91.6309 69.734 91.6309 71.2764C91.6309 74.9837 94.6471 78 98.3545 78C101.543 78 104.256 75.7704 104.921 72.7152H111.096C111.44 75.6861 113.97 78 117.031 78C120.092 78 122.622 75.6861 122.967 72.7152H123.506C124.33 72.7152 125 72.0453 125 71.2211V63.457C125 62.2789 124.436 61.1719 123.506 60.4714ZM92.627 36.8115V46.0254H91.1328V28.4941H92.627V36.8115ZM101.155 44.6076C102.064 40.0901 106.068 36.8115 110.676 36.8115H122.759C123.171 36.8115 123.506 37.1465 123.506 37.5586C123.506 37.9707 123.171 38.3057 122.759 38.3057C122.661 38.3056 122.564 38.3249 122.473 38.3625C122.382 38.4 122.3 38.455 122.23 38.5244C122.161 38.5938 122.106 38.6761 122.069 38.7668C122.031 38.8575 122.012 38.9546 122.012 39.0527V59.798C121.766 59.7474 121.516 59.7219 121.265 59.7217H120.518V39.0527C120.518 38.8546 120.439 38.6646 120.299 38.5245C120.159 38.3844 119.969 38.3057 119.771 38.3057H110.676C106.777 38.3057 103.389 41.08 102.619 44.9025L99.2579 61.608C98.7527 61.5618 98.2446 61.5546 97.7382 61.5867L101.155 44.6076ZM107.52 61.5932C107.587 61.7007 107.681 61.7893 107.792 61.8507C107.903 61.9121 108.027 61.9443 108.154 61.9443C108.289 61.9443 108.427 61.9072 108.55 61.8298C108.718 61.7246 108.837 61.5571 108.881 61.364C108.926 61.1709 108.892 60.9682 108.787 60.8003C108.145 59.7762 108.423 58.4443 109.419 57.7684C110.949 56.7303 112.727 56.1168 114.572 55.9906C114.761 55.9779 114.938 55.8938 115.067 55.7555C115.196 55.6172 115.268 55.4349 115.268 55.2455V50.5078C115.268 49.2721 116.274 48.2666 117.509 48.2666H119.023V59.7217H115.288C112.925 59.7217 110.779 60.9272 109.546 62.9457C108.983 63.8683 108.652 64.9133 108.58 65.9916H106.499C105.156 63.9251 103.1 62.4555 100.731 61.8586L104.084 45.1969C104.714 42.0698 107.485 39.7998 110.676 39.7998H119.023V46.7725H117.509C115.45 46.7725 113.774 48.4479 113.774 50.5078V54.5677C111.912 54.8054 110.133 55.4783 108.58 56.5319C106.916 57.6615 106.45 59.8847 107.52 61.5932ZM94.1211 36.8115H97.8564V53.4254L96.1686 61.8135C95.4608 61.9765 94.7739 62.2195 94.1211 62.5379V36.8115ZM98.3545 76.5059C95.4708 76.5059 93.125 74.1601 93.125 71.2764C93.125 68.3912 95.4689 66.0469 98.3545 66.0469C101.238 66.0469 103.584 68.3927 103.584 71.2764C103.584 74.1709 101.237 76.5059 98.3545 76.5059ZM117.031 76.5059C114.56 76.5059 112.549 74.495 112.549 72.0195C112.55 72.0048 112.55 71.9908 112.55 71.9759C112.576 69.5305 114.586 67.541 117.031 67.541C119.476 67.541 121.487 69.5305 121.512 71.9759C121.512 71.9908 121.513 72.0048 121.514 72.0234C121.514 74.495 119.503 76.5059 117.031 76.5059ZM123.506 71.2211H122.951C122.555 68.3083 120.041 66.0469 117.031 66.0469C114.023 66.0469 111.51 68.3056 111.112 71.2211H105.077C105.047 67.539 102.043 64.5527 98.3545 64.5527C96.8125 64.5527 95.3491 65.0717 94.1607 66.0247L93.1013 64.9616C94.0112 64.2025 95.0749 63.6496 96.219 63.341C97.3631 63.0323 98.5605 62.9753 99.7288 63.1737C102.119 63.5777 104.2 65.0154 105.44 67.1181C105.506 67.2301 105.6 67.3229 105.712 67.3874C105.825 67.4519 105.953 67.4858 106.083 67.4857H109.311C109.724 67.4857 110.058 67.1515 110.058 66.7387V66.4453C110.058 65.4827 110.322 64.5418 110.821 63.7244C111.781 62.1535 113.45 61.2158 115.288 61.2158H121.264C121.658 61.2158 122.045 61.3197 122.384 61.5162C123.076 61.9161 123.505 62.6602 123.505 63.457V71.2211H123.506Z" fill="black"/>
<path d="M100.464 69.0321C100.382 69.0852 100.31 69.154 100.254 69.2347C100.198 69.3153 100.159 69.4062 100.138 69.5021C100.117 69.598 100.116 69.6971 100.133 69.7937C100.151 69.8903 100.187 69.9825 100.24 70.065C100.473 70.4261 100.596 70.8468 100.596 71.2764C100.594 72.5094 99.5887 73.5156 98.3545 73.5176C97.1214 73.5156 96.1153 72.5094 96.1133 71.2764C96.1153 70.0433 97.1214 69.0371 98.3545 69.0352C98.7658 69.0352 99.1016 68.7005 99.1016 68.2881C99.1016 67.8768 98.7658 67.541 98.3545 67.541C96.2853 67.541 94.6191 69.2153 94.6191 71.2764C94.6191 73.3417 96.2892 75.0117 98.3545 75.0117C100.418 75.0117 102.09 73.3417 102.09 71.2764C102.091 70.5598 101.885 69.8583 101.496 69.2562C101.27 68.9033 100.804 68.8129 100.464 69.0321ZM119.034 70.7682C118.64 70.8635 118.385 71.2619 118.483 71.6709V71.6717C118.511 71.7865 118.525 71.9048 118.525 72.0234C118.523 72.8452 117.853 73.5156 117.031 73.5176C116.208 73.5156 115.538 72.8452 115.537 72.0234C115.538 71.2005 116.208 70.5305 117.031 70.5293C117.443 70.5293 117.778 70.1935 117.778 69.7822C117.778 69.3709 117.444 69.0364 117.033 69.0352H117.031C115.381 69.0352 114.043 70.3701 114.043 72.0234C114.043 73.6701 115.374 75.0117 117.031 75.0117C117.829 75.0117 118.58 74.7008 119.144 74.1362C119.709 73.5724 120.02 72.8215 120.02 72.0234C120.02 71.7854 119.992 71.5483 119.936 71.3192C119.913 71.2237 119.872 71.1337 119.814 71.0543C119.756 70.9749 119.683 70.9077 119.6 70.8565C119.516 70.8053 119.423 70.7712 119.326 70.756C119.229 70.7408 119.13 70.745 119.034 70.7682Z" fill="black"/>
</g>
<g opacity="0.5" filter="url(#filter1_f_43_7)">
<path d="M244.521 50.5078V55.2455C242.485 55.3832 240.596 56.0669 238.999 57.1501C237.452 58.2003 237.255 60.4061 238.577 61.7283L240.184 63.3348L251.265 60.4688V47.5195H247.509C245.859 47.5195 244.521 48.8573 244.521 50.5078ZM228.604 64.8189H223.374V36.8115C223.374 36.6134 223.453 36.4234 223.593 36.2833C223.733 36.1432 223.923 36.0645 224.121 36.0645H227.856C228.269 36.0645 228.604 36.3991 228.604 36.8115V64.8189Z" fill="#596775"/>
<path d="M252.759 36.0645H240.676C235.714 36.0645 231.401 39.5956 230.422 44.46L228.603 53.4996V36.8115C228.603 36.3986 228.269 36.0645 227.856 36.0645H225.615V59.6443C224.844 59.8264 224.094 60.0843 223.374 60.4143V64.8189H228.603V63.8858L229.524 64.0711L233.352 45.0499C234.054 41.5616 237.118 39.0527 240.676 39.0527H249.771V47.5195H247.509C247.258 47.5195 247.015 47.5507 246.782 47.609V55.9863C246.782 56.8116 246.113 57.4805 245.288 57.4805C242.347 57.4805 239.732 58.9046 238.096 61.0991C238.228 61.329 238.39 61.5406 238.577 61.7283L240.184 63.3348C247.645 61.4054 246.069 61.8128 249.771 60.8555V61.9629H252.759V39.0527C253.584 39.0527 254.253 38.3839 254.253 37.5586C254.253 36.7333 253.584 36.0645 252.759 36.0645Z" fill="#35404A"/>
<path d="M251.265 60.4688H245.288C241.987 60.4688 239.312 63.1446 239.312 66.4453V66.7387H236.083C234.523 64.0916 231.643 62.3115 228.354 62.3115C226.177 62.3115 224.178 63.0921 222.623 64.3882C222.285 64.6703 222.259 65.1816 222.571 65.4928L228.354 71.2764V71.9682H253.506C253.704 71.9682 253.894 71.8894 254.034 71.7493C254.174 71.6092 254.253 71.4192 254.253 71.2211V63.457C254.253 61.8069 252.915 60.4688 251.265 60.4688Z" fill="#FFCF5D"/>
<path d="M226.058 68.9799L228.354 71.2764V71.9682H253.506C253.704 71.9682 253.894 71.8894 254.034 71.7493C254.174 71.6092 254.253 71.4192 254.253 71.2211V63.457C254.253 61.8069 252.915 60.4688 251.265 60.4688V68.9799H226.058Z" fill="#FF983B"/>
<path d="M247.031 77.2529C244.148 77.2529 241.802 74.9071 241.802 72.0234C241.802 69.1397 244.148 66.7939 247.031 66.7939C249.915 66.7939 252.261 69.1397 252.261 72.0234C252.261 74.9071 249.915 77.2529 247.031 77.2529Z" fill="#596775"/>
<path d="M248.1 66.9041C247.487 68.0368 247.659 69.4814 248.616 70.4387L245.447 73.6083C244.489 72.651 243.045 72.4795 241.912 73.0923C242.407 75.465 244.514 77.253 247.031 77.253C249.915 77.253 252.261 74.9072 252.261 72.0235C252.261 69.506 250.473 67.399 248.1 66.9041Z" fill="#35404A"/>
<path d="M249.272 72.0234C249.272 73.2612 248.269 74.2646 247.031 74.2646C245.794 74.2646 244.79 73.2612 244.79 72.0234C244.79 70.7857 245.794 69.7822 247.031 69.7822C248.269 69.7822 249.272 70.7857 249.272 72.0234Z" fill="#D3CDBF"/>
<path d="M228.354 77.2529C225.059 77.2529 222.378 74.572 222.378 71.2764C222.378 67.9807 225.059 65.2998 228.354 65.2998C231.65 65.2998 234.331 67.9807 234.331 71.2764C234.331 74.572 231.65 77.2529 228.354 77.2529Z" fill="#596775"/>
<path d="M230.005 65.5337C229.329 66.6792 229.483 68.1791 230.467 69.1632L226.241 73.3896C225.257 72.4051 223.757 72.2511 222.611 72.9269C223.33 75.4218 225.631 77.2529 228.354 77.2529C231.65 77.2529 234.331 74.572 234.331 71.2764C234.331 68.5534 232.5 66.252 230.005 65.5337Z" fill="#35404A"/>
<path d="M231.343 71.2764C231.343 72.9269 230.005 74.2646 228.354 74.2646C226.704 74.2646 225.366 72.9269 225.366 71.2764C225.366 69.6258 226.704 68.2881 228.354 68.2881C230.005 68.2881 231.343 69.6258 231.343 71.2764Z" fill="#D3CDBF"/>
<path d="M223.374 28.4941C223.374 28.0818 223.039 27.7471 222.627 27.7471H221.133C220.935 27.7471 220.745 27.8258 220.605 27.9659C220.464 28.106 220.386 28.296 220.386 28.4941V46.0254C220.386 46.2235 220.464 46.4135 220.605 46.5536C220.745 46.6938 220.935 46.7725 221.133 46.7725H223.374V28.4941Z" fill="#35404A"/>
<path d="M253.506 60.4714V39.6718C254.375 39.3632 255 38.5325 255 37.5586C255 36.3228 253.995 35.3174 252.759 35.3174H240.676C235.359 35.3174 230.739 39.1005 229.69 44.313L229.351 46.0001V36.8115C229.351 35.9878 228.68 35.3174 227.856 35.3174H224.121V28.4941C224.121 27.6704 223.451 27 222.627 27H221.133C220.309 27 219.639 27.6704 219.639 28.4941V46.0254H204.747C204.335 46.0254 204 46.3596 204 46.7725C204 47.1853 204.335 47.5195 204.747 47.5195H222.627V63.4399C222.462 63.5593 222.301 63.6841 222.145 63.8142C221.985 63.9476 221.855 64.1128 221.762 64.2993C221.669 64.4858 221.616 64.6895 221.607 64.8975C221.598 65.1048 221.632 65.3117 221.707 65.5051C221.782 65.6986 221.896 65.8743 222.043 66.0212L223.104 67.0819C222.15 68.2706 221.631 69.734 221.631 71.2764C221.631 74.9837 224.647 78 228.354 78C231.543 78 234.256 75.7704 234.921 72.7152H241.096C241.44 75.6861 243.97 78 247.031 78C250.092 78 252.622 75.6861 252.967 72.7152H253.506C254.33 72.7152 255 72.0453 255 71.2211V63.457C255 62.2789 254.436 61.1719 253.506 60.4714ZM222.627 36.8115V46.0254H221.133V28.4941H222.627V36.8115ZM231.155 44.6076C232.064 40.0901 236.068 36.8115 240.676 36.8115H252.759C253.171 36.8115 253.506 37.1465 253.506 37.5586C253.506 37.9707 253.171 38.3057 252.759 38.3057C252.661 38.3056 252.564 38.3249 252.473 38.3625C252.382 38.4 252.3 38.455 252.23 38.5244C252.161 38.5938 252.106 38.6761 252.069 38.7668C252.031 38.8575 252.012 38.9546 252.012 39.0527V59.798C251.766 59.7474 251.516 59.7219 251.265 59.7217H250.518V39.0527C250.518 38.8546 250.439 38.6646 250.299 38.5245C250.159 38.3844 249.969 38.3057 249.771 38.3057H240.676C236.777 38.3057 233.389 41.08 232.619 44.9025L229.258 61.608C228.753 61.5618 228.245 61.5546 227.738 61.5867L231.155 44.6076ZM237.52 61.5932C237.587 61.7007 237.681 61.7893 237.792 61.8507C237.903 61.9121 238.027 61.9443 238.154 61.9443C238.289 61.9443 238.427 61.9072 238.55 61.8298C238.718 61.7246 238.837 61.5571 238.881 61.364C238.926 61.1709 238.892 60.9682 238.787 60.8003C238.145 59.7762 238.423 58.4443 239.419 57.7684C240.949 56.7303 242.727 56.1168 244.572 55.9906C244.761 55.9779 244.938 55.8938 245.067 55.7555C245.196 55.6172 245.268 55.4349 245.268 55.2455V50.5078C245.268 49.2721 246.274 48.2666 247.509 48.2666H249.023V59.7217H245.288C242.925 59.7217 240.779 60.9272 239.546 62.9457C238.983 63.8683 238.652 64.9133 238.58 65.9916H236.499C235.156 63.9251 233.1 62.4555 230.731 61.8586L234.084 45.1969C234.714 42.0698 237.485 39.7998 240.676 39.7998H249.023V46.7725H247.509C245.45 46.7725 243.774 48.4479 243.774 50.5078V54.5677C241.912 54.8054 240.133 55.4783 238.58 56.5319C236.916 57.6615 236.45 59.8847 237.52 61.5932ZM224.121 36.8115H227.856V53.4254L226.169 61.8135C225.461 61.9765 224.774 62.2195 224.121 62.5379V36.8115ZM228.354 76.5059C225.471 76.5059 223.125 74.1601 223.125 71.2764C223.125 68.3912 225.469 66.0469 228.354 66.0469C231.238 66.0469 233.584 68.3927 233.584 71.2764C233.584 74.1709 231.237 76.5059 228.354 76.5059ZM247.031 76.5059C244.56 76.5059 242.549 74.495 242.549 72.0195C242.55 72.0048 242.55 71.9908 242.55 71.9759C242.576 69.5305 244.586 67.541 247.031 67.541C249.476 67.541 251.487 69.5305 251.512 71.9759C251.512 71.9908 251.513 72.0048 251.514 72.0234C251.514 74.495 249.503 76.5059 247.031 76.5059ZM253.506 71.2211H252.951C252.555 68.3083 250.041 66.0469 247.031 66.0469C244.023 66.0469 241.51 68.3056 241.112 71.2211H235.077C235.047 67.539 232.043 64.5527 228.354 64.5527C226.813 64.5527 225.349 65.0717 224.161 66.0247L223.101 64.9616C224.011 64.2025 225.075 63.6496 226.219 63.341C227.363 63.0323 228.561 62.9753 229.729 63.1737C232.119 63.5777 234.2 65.0154 235.44 67.1181C235.506 67.2301 235.6 67.3229 235.712 67.3874C235.825 67.4519 235.953 67.4858 236.083 67.4857H239.311C239.724 67.4857 240.058 67.1515 240.058 66.7387V66.4453C240.058 65.4827 240.322 64.5418 240.821 63.7244C241.781 62.1535 243.45 61.2158 245.288 61.2158H251.264C251.658 61.2158 252.045 61.3197 252.384 61.5162C253.076 61.9161 253.505 62.6602 253.505 63.457V71.2211H253.506Z" fill="black"/>
<path d="M230.464 69.0321C230.382 69.0852 230.31 69.154 230.254 69.2347C230.198 69.3153 230.159 69.4062 230.138 69.5021C230.117 69.598 230.116 69.6971 230.133 69.7937C230.151 69.8903 230.187 69.9825 230.24 70.065C230.473 70.4261 230.596 70.8468 230.596 71.2764C230.594 72.5094 229.589 73.5156 228.354 73.5176C227.121 73.5156 226.115 72.5094 226.113 71.2764C226.115 70.0433 227.121 69.0371 228.354 69.0352C228.766 69.0352 229.102 68.7005 229.102 68.2881C229.102 67.8768 228.766 67.541 228.354 67.541C226.285 67.541 224.619 69.2153 224.619 71.2764C224.619 73.3417 226.289 75.0117 228.354 75.0117C230.418 75.0117 232.09 73.3417 232.09 71.2764C232.091 70.5598 231.885 69.8583 231.496 69.2562C231.27 68.9033 230.804 68.8129 230.464 69.0321ZM249.034 70.7682C248.64 70.8635 248.385 71.2619 248.483 71.6709V71.6717C248.511 71.7865 248.525 71.9048 248.525 72.0234C248.523 72.8452 247.853 73.5156 247.031 73.5176C246.208 73.5156 245.538 72.8452 245.537 72.0234C245.538 71.2005 246.208 70.5305 247.031 70.5293C247.443 70.5293 247.778 70.1935 247.778 69.7822C247.778 69.3709 247.444 69.0364 247.033 69.0352H247.031C245.381 69.0352 244.043 70.3701 244.043 72.0234C244.043 73.6701 245.374 75.0117 247.031 75.0117C247.829 75.0117 248.58 74.7008 249.144 74.1362C249.709 73.5724 250.02 72.8215 250.02 72.0234C250.02 71.7854 249.992 71.5483 249.936 71.3192C249.913 71.2237 249.872 71.1337 249.814 71.0543C249.756 70.9749 249.683 70.9077 249.6 70.8565C249.516 70.8053 249.423 70.7712 249.326 70.756C249.229 70.7408 249.13 70.745 249.034 70.7682Z" fill="black"/>
</g>
<defs>
<filter id="filter0_f_43_7" x="70" y="23" width="59" height="59" filterUnits="userSpaceOnUse" color-interpolation-filters="sRGB">
<feFlood flood-opacity="0" result="BackgroundImageFix"/>
<feBlend mode="normal" in="SourceGraphic" in2="BackgroundImageFix" result="shape"/>
<feGaussianBlur stdDeviation="2" result="effect1_foregroundBlur_43_7"/>
</filter>
<filter id="filter1_f_43_7" x="200" y="23" width="59" height="59" filterUnits="userSpaceOnUse" color-interpolation-filters="sRGB">
<feFlood flood-opacity="0" result="BackgroundImageFix"/>
<feBlend mode="normal" in="SourceGraphic" in2="BackgroundImageFix" result="shape"/>
<feGaussianBlur stdDeviation="2" result="effect1_foregroundBlur_43_7"/>
</filter>
</defs>
</svg>
