<svg width="247" height="68" viewBox="0 0 247 68" fill="none" xmlns="http://www.w3.org/2000/svg">
<path d="M38.9617 9.887C38.9617 13.8534 37.3236 17.0424 34.0349 19.4788C30.7544 21.9027 26.1602 23.1168 20.2563 23.1168H16.9966L14.4937 33.9642H5.86652L13.5499 0.686035H25.5033C27.6778 0.686035 29.5778 0.83987 31.1952 1.13507C32.8125 1.43442 34.2095 1.94581 35.3819 2.67757C36.5503 3.40101 37.4358 4.35727 38.047 5.52558C38.6582 6.68974 38.9617 8.14909 38.9617 9.887ZM29.8065 10.7185C29.8065 9.42966 29.3325 8.46923 28.397 7.84973C27.4574 7.22608 26.0604 6.9101 24.2061 6.9101H20.7344L18.4394 16.847H21.5285C24.1396 16.847 26.1768 16.3106 27.6237 15.2504C29.0831 14.1902 29.8065 12.681 29.8065 10.7185Z" fill="#E31E24"/>
<path d="M71.2254 0.686035L69.7702 7.00156H54.2121L52.8401 12.9554H67.2881L65.8162 19.2709H51.3808L49.4516 27.6486H64.9556L63.5295 33.9642H39.4108L47.0942 0.686035H71.2254Z" fill="#E31E24"/>
<path d="M99.2024 22.6054C99.2024 24.4139 98.795 26.077 97.9801 27.5863C97.1735 29.0997 96.0135 30.3553 94.5001 31.3781C92.9534 32.4383 91.0825 33.249 88.8955 33.8145C86.6961 34.3675 84.1558 34.6502 81.2662 34.6502C78.8464 34.6502 76.5514 34.4464 74.3686 34.0265C72.1775 33.6066 70.3398 33.0952 68.8513 32.484L70.5768 25.1291H71.3792C72.797 26.0479 74.3603 26.8379 76.0857 27.5114C77.807 28.1808 79.5574 28.5176 81.3244 28.5176C82.6091 28.5176 83.8065 28.397 84.9042 28.16C86.0101 27.9147 86.9331 27.5488 87.6815 27.0541C88.4507 26.5427 89.0452 25.9232 89.4651 25.1831C89.8851 24.4514 90.0929 23.5658 90.0929 22.5305C90.0929 21.2707 89.673 20.3851 88.8415 19.8654C88.0016 19.3457 86.5506 19.0879 84.5009 19.0879H77.9608L79.3328 13.367H85.4904C87.7106 13.367 89.3737 13.0136 90.4879 12.3192C91.5939 11.6291 92.151 10.5896 92.151 9.20096C92.151 8.23222 91.6188 7.47552 90.5586 6.94334C89.4984 6.40284 88.0765 6.13259 86.3011 6.13259C84.8792 6.13259 83.2619 6.37789 81.4491 6.86434C79.6322 7.35495 77.6032 8.13244 75.3623 9.20096H74.5266L76.1397 2.19526C77.5284 1.70049 79.3744 1.21405 81.6778 0.723438C83.9895 0.245304 86.3635 0 88.7874 0C92.7248 0 95.7682 0.640284 97.926 1.91669C100.088 3.18895 101.169 4.98091 101.169 7.29259C101.169 9.40053 100.375 11.2382 98.795 12.8098C97.2192 14.3814 95.2859 15.425 93.0075 15.9531L92.9368 16.2815C93.5937 16.4021 94.313 16.6141 95.0739 16.9301C95.843 17.2503 96.5083 17.6452 97.082 18.1192C97.689 18.614 98.1921 19.2335 98.5996 19.9819C99.0029 20.7302 99.2024 21.6075 99.2024 22.6054Z" fill="#E31E24"/>
<path d="M134.106 33.9642H125.417L124.652 27.1456H112.507L108.599 33.9642H99.6349L119.571 0.686035H129.483L134.106 33.9642ZM124.028 21.1918L122.668 9.3465L115.887 21.1918H124.028Z" fill="#E31E24"/>
<path d="M173.571 33.9642H164.927L169.954 12.1904L160.844 26.1394H154.907L151.918 11.2757L146.683 33.9642H138.559L146.243 0.686035H156.084L159.792 17.3792L171.068 0.686035H181.254L173.571 33.9642Z" fill="#E31E24"/>
<path d="M213.759 0.686035L212.304 7.00156H196.746L195.374 12.9554H209.822L208.35 19.2709H193.919L191.985 27.6486H207.489L206.063 33.9642H181.949L189.628 0.686035H213.759Z" fill="#E31E24"/>
<path d="M245.52 7.13877H235.113L228.935 33.9642H220.312L226.486 7.13877H216.146L217.622 0.686035H247L245.52 7.13877Z" fill="#E31E24"/>
<path d="M14.677 45.5249L16.7156 50.546H14.665L13.0006 46.4327H11.3402L10.5199 50.546H8.74803L9.56828 46.4327H7.89592L4.63083 50.546H2.46472L6.59785 45.3975L4.68658 40.7786H6.56997L8.13085 44.8679H9.87488L10.6991 40.7786H12.471L11.6508 44.8679H13.3231L16.5325 40.7786H18.4995L14.677 45.5249Z" fill="#2C2C2C"/>
<path d="M25.2368 46.2775C25.2368 46.6399 25.2009 46.9943 25.1253 47.3367H19.2083C19.2362 48.5551 19.9529 49.1644 21.3585 49.1644C21.7845 49.1644 22.1867 49.0967 22.557 48.9653C22.9313 48.8299 23.2459 48.6388 23.5087 48.3998L24.2333 49.6143C23.8511 49.9567 23.3932 50.2156 22.8596 50.3868C22.3221 50.558 21.7606 50.6456 21.1753 50.6456C20.4307 50.6456 19.7817 50.5102 19.2282 50.2394C18.6747 49.9727 18.2487 49.5864 17.954 49.0887C17.6554 48.591 17.5081 48.0176 17.5081 47.3646C17.5081 46.5364 17.6912 45.7918 18.0575 45.1268C18.4239 44.4618 18.9375 43.9402 19.5945 43.5699C20.2475 43.1996 20.9842 43.0125 21.8044 43.0125C22.8477 43.0125 23.6799 43.3031 24.301 43.8845C24.9262 44.4658 25.2368 45.2622 25.2368 46.2775ZM21.7208 44.4061C21.1355 44.4061 20.6338 44.5654 20.2197 44.8799C19.8056 45.1985 19.5189 45.6325 19.3636 46.178H23.6321C23.6401 45.6205 23.4728 45.1865 23.1224 44.8759C22.776 44.5614 22.3061 44.4061 21.7208 44.4061Z" fill="#2C2C2C"/>
<path d="M33.9689 43.0959L32.4757 50.5459H30.7317L31.9182 44.5732H29.127L28.7646 46.0544C28.5018 47.1255 28.2351 47.9936 27.9603 48.6585C27.6856 49.3235 27.363 49.8252 26.9848 50.1716C26.6065 50.5141 26.1526 50.6893 25.623 50.6893C25.3363 50.6893 25.0018 50.6375 24.6196 50.534L25.0098 49.0687C25.1412 49.0965 25.2527 49.1125 25.3443 49.1125C25.8022 49.1125 26.1645 48.8497 26.4313 48.3281C26.7021 47.8064 26.9728 47.0101 27.2436 45.9429L27.9404 43.0959H33.9689Z" fill="#2C2C2C"/>
<path d="M42.3665 46.2775C42.3665 46.6399 42.3307 46.9943 42.255 47.3367H36.3381C36.3659 48.5551 37.0827 49.1644 38.4843 49.1644C38.9143 49.1644 39.3125 49.0967 39.6868 48.9653C40.0571 48.8299 40.3756 48.6388 40.6344 48.3998L41.3631 49.6143C40.9809 49.9567 40.523 50.2156 39.9854 50.3868C39.4518 50.558 38.8904 50.6456 38.3051 50.6456C37.5605 50.6456 36.9114 50.5102 36.358 50.2394C35.8045 49.9727 35.3784 49.5864 35.0798 49.0887C34.7852 48.591 34.6339 48.0176 34.6339 47.3646C34.6339 46.5364 34.817 45.7918 35.1873 45.1268C35.5536 44.4618 36.0633 43.9402 36.7203 43.5699C37.3773 43.1996 38.114 43.0125 38.9342 43.0125C39.9735 43.0125 40.8096 43.3031 41.4308 43.8845C42.056 44.4658 42.3665 45.2622 42.3665 46.2775ZM38.8506 44.4061C38.2613 44.4061 37.7636 44.5654 37.3494 44.8799C36.9353 45.1985 36.6486 45.6325 36.4894 46.178H40.7619C40.7698 45.6205 40.6026 45.1865 40.2522 44.8759C39.9018 44.5614 39.4359 44.4061 38.8506 44.4061Z" fill="#2C2C2C"/>
<path d="M47.7778 46.7116C48.176 46.851 48.4866 47.054 48.7056 47.3168C48.9246 47.5836 49.0321 47.8982 49.0321 48.2605C49.0321 48.7145 48.8649 49.1286 48.5304 49.4949C48.1959 49.8612 47.734 50.1519 47.1487 50.3589C46.5634 50.57 45.9064 50.6735 45.1817 50.6735C44.0747 50.6735 43.0713 50.3988 42.1794 49.8493L42.8085 48.6348C43.1071 48.8299 43.4655 48.9812 43.8916 49.0808C44.3136 49.1843 44.7636 49.2361 45.2374 49.2361C45.8586 49.2361 46.3603 49.1325 46.7346 48.9295C47.1129 48.7264 47.304 48.4556 47.304 48.1212C47.304 47.8584 47.1885 47.6633 46.9655 47.5279C46.7425 47.3925 46.428 47.3248 46.0179 47.3248H44.5804L44.7636 46.1382H45.9621C46.4559 46.1382 46.8421 46.0546 47.1288 45.8953C47.4115 45.7321 47.5548 45.5091 47.5548 45.2304C47.5548 44.9715 47.4354 44.7685 47.1965 44.6291C46.9615 44.4897 46.6151 44.4221 46.1572 44.4221C45.7949 44.4221 45.4325 44.4659 45.0742 44.5614C44.7158 44.653 44.3136 44.7963 43.8677 44.9915L43.4655 43.5978C44.4211 43.1877 45.3728 42.9846 46.3125 42.9846C47.2124 42.9846 47.9411 43.1598 48.4945 43.5142C49.048 43.8686 49.3267 44.3424 49.3267 44.9397C49.3267 45.3379 49.1874 45.6962 48.9087 46.0108C48.6259 46.3293 48.2517 46.5603 47.7778 46.7116Z" fill="#2C2C2C"/>
<path d="M51.5247 43.0959H53.2568L52.6555 46.1221H56.4104L57.0116 43.0959H58.7557L57.2744 50.5459H55.5304L56.1157 47.6034H52.3648L51.7795 50.5459H50.0315L51.5247 43.0959Z" fill="#2C2C2C"/>
<path d="M68.312 43.0959H70.0561L68.5629 50.5459H66.8308L68.312 43.0959ZM63.8166 45.5368C64.6727 45.5368 65.3177 45.712 65.7557 46.0624C66.1937 46.4088 66.4127 46.9304 66.4127 47.6153C66.4127 48.2046 66.2614 48.7183 65.9588 49.1603C65.6562 49.6022 65.2301 49.9447 64.6806 50.1836C64.1311 50.4265 63.494 50.5459 62.7693 50.5459H59.3091L60.8023 43.1238H62.5344L62.0566 45.5368H63.8166ZM62.7693 49.2797C63.3387 49.2797 63.7927 49.1364 64.1391 48.8576C64.4815 48.5789 64.6527 48.2126 64.6527 47.7587C64.6527 47.0857 64.2028 46.7513 63.2989 46.7513H61.8057L61.32 49.2797H62.7693Z" fill="#2C2C2C"/>
<path d="M78.4538 46.2775C78.4538 46.6399 78.4139 46.9943 78.3423 47.3367H72.4213C72.4492 48.5551 73.1659 49.1644 74.5715 49.1644C75.0015 49.1644 75.3997 49.0967 75.774 48.9653C76.1443 48.8299 76.4628 48.6388 76.7217 48.3998L77.4464 49.6143C77.0641 49.9567 76.6062 50.2156 76.0726 50.3868C75.5391 50.558 74.9776 50.6456 74.3923 50.6456C73.6477 50.6456 72.9987 50.5102 72.4452 50.2394C71.8917 49.9727 71.4657 49.5864 71.167 49.0887C70.8684 48.591 70.7211 48.0176 70.7211 47.3646C70.7211 46.5364 70.9042 45.7918 71.2706 45.1268C71.6409 44.4618 72.1505 43.9402 72.8075 43.5699C73.4606 43.1996 74.2012 43.0125 75.0174 43.0125C76.0607 43.0125 76.8929 43.3031 77.518 43.8845C78.1392 44.4658 78.4538 45.2622 78.4538 46.2775ZM74.9338 44.4061C74.3485 44.4061 73.8508 44.5654 73.4367 44.8799C73.0226 45.1985 72.7359 45.6325 72.5766 46.178H76.8491C76.857 45.6205 76.6858 45.1865 76.3394 44.8759C75.989 44.5614 75.5231 44.4061 74.9338 44.4061Z" fill="#2C2C2C"/>
<path d="M88.3007 43.0125C88.9139 43.0125 89.4714 43.1399 89.9691 43.4027C90.4669 43.6615 90.8611 44.0398 91.1477 44.5335C91.4344 45.0273 91.5818 45.6086 91.5818 46.2775C91.5818 47.1058 91.3946 47.8543 91.0283 48.5193C90.662 49.1843 90.1603 49.7019 89.5232 50.0802C88.8861 50.4584 88.1733 50.6456 87.3929 50.6456C86.8076 50.6456 86.2939 50.5421 85.8599 50.339C85.4219 50.1319 85.0795 49.8373 84.8406 49.4471L84.084 53.2537H82.34L84.3667 43.0961H86.0271L85.8718 43.8765C86.5249 43.2991 87.3332 43.0125 88.3007 43.0125ZM87.2535 49.1524C87.7473 49.1524 88.1853 49.033 88.5715 48.798C88.9577 48.5591 89.2643 48.2286 89.4873 47.8066C89.7103 47.3805 89.8218 46.8987 89.8218 46.3612C89.8218 45.7758 89.6506 45.3179 89.3042 44.9874C88.9617 44.6569 88.4759 44.4897 87.8548 44.4897C87.361 44.4897 86.9191 44.6092 86.5328 44.8481C86.1506 45.083 85.844 45.4135 85.621 45.8395C85.398 46.2616 85.2865 46.7434 85.2865 47.281C85.2865 47.8703 85.4577 48.3282 85.8002 48.6587C86.1466 48.9852 86.6284 49.1524 87.2535 49.1524Z" fill="#2C2C2C"/>
<path d="M100.103 46.2775C100.103 46.6399 100.067 46.9943 99.9914 47.3367H94.0744C94.1023 48.5551 94.819 49.1644 96.2206 49.1644C96.6506 49.1644 97.0488 49.0967 97.4231 48.9653C97.7934 48.8299 98.112 48.6388 98.3708 48.3998L99.0995 49.6143C98.7172 49.9567 98.2593 50.2156 97.7217 50.3868C97.1882 50.558 96.6267 50.6456 96.0414 50.6456C95.2968 50.6456 94.6478 50.5102 94.0943 50.2394C93.5408 49.9727 93.1148 49.5864 92.8161 49.0887C92.5215 48.591 92.3702 48.0176 92.3702 47.3646C92.3702 46.5364 92.5533 45.7918 92.9197 45.1268C93.29 44.4618 93.7997 43.9402 94.4567 43.5699C95.1137 43.1996 95.8503 43.0125 96.6705 43.0125C97.7098 43.0125 98.542 43.3031 99.1671 43.8845C99.7923 44.4658 100.103 45.2622 100.103 46.2775ZM96.5869 44.4061C95.9976 44.4061 95.4999 44.5654 95.0858 44.8799C94.6717 45.1985 94.385 45.6325 94.2257 46.178H98.4982C98.5062 45.6205 98.3349 45.1865 97.9885 44.8759C97.6381 44.5614 97.1723 44.4061 96.5869 44.4061Z" fill="#2C2C2C"/>
<path d="M113.147 43.0959L111.666 50.5459H100.684L102.177 43.0959H103.909L102.751 49.0687H105.638L106.808 43.0959H108.54L107.382 49.0687H110.245L111.415 43.0959H113.147Z" fill="#2C2C2C"/>
<path d="M121.545 46.2775C121.545 46.6399 121.505 46.9943 121.433 47.3367H115.516C115.54 48.5551 116.257 49.1644 117.663 49.1644C118.093 49.1644 118.491 49.0967 118.865 48.9653C119.235 48.8299 119.554 48.6388 119.813 48.3998L120.537 49.6143C120.155 49.9567 119.697 50.2156 119.164 50.3868C118.63 50.558 118.069 50.6456 117.483 50.6456C116.739 50.6456 116.09 50.5102 115.536 50.2394C114.983 49.9727 114.557 49.5864 114.258 49.0887C113.96 48.591 113.812 48.0176 113.812 47.3646C113.812 46.5364 113.995 45.7918 114.362 45.1268C114.732 44.4618 115.242 43.9402 115.899 43.5699C116.556 43.1996 117.292 43.0125 118.109 43.0125C119.152 43.0125 119.984 43.3031 120.609 43.8845C121.23 44.4658 121.545 45.2622 121.545 46.2775ZM118.025 44.4061C117.44 44.4061 116.942 44.5654 116.528 44.8799C116.114 45.1985 115.827 45.6325 115.668 46.178H119.94C119.948 45.6205 119.777 45.1865 119.431 44.8759C119.08 44.5614 118.614 44.4061 118.025 44.4061Z" fill="#2C2C2C"/>
<path d="M123.619 43.0959H125.348L124.75 46.1221H128.501L129.102 43.0959H130.846L129.369 50.5459H127.625L128.21 47.6034H124.456L123.87 50.5459H122.126L123.619 43.0959Z" fill="#2C2C2C"/>
<path d="M132.893 43.0959H134.653L133.634 48.1489L138.699 43.0959H140.359L138.866 50.5459H137.094L138.141 45.4811L133.076 50.5459H131.4L132.893 43.0959Z" fill="#2C2C2C"/>
<path d="M148.701 43.0959L147.224 50.5459H145.671L146.105 48.2604H144.193L142.254 50.5459H140.315L142.617 48.0095C142.179 47.8303 141.848 47.5795 141.625 47.249C141.402 46.9185 141.291 46.5203 141.291 46.0544C141.291 45.1346 141.641 44.4099 142.338 43.8843C143.035 43.3587 143.998 43.0959 145.225 43.0959H148.701ZM145.085 44.5613C144.444 44.5613 143.951 44.6847 143.608 44.9395C143.262 45.1904 143.09 45.5527 143.09 46.0266C143.09 46.7154 143.552 47.0579 144.472 47.0579H146.356L146.845 44.5613H145.085Z" fill="#2C2C2C"/>
<path d="M156.86 50.6456C156.127 50.6456 155.482 50.5102 154.928 50.2355C154.375 49.9607 153.949 49.5745 153.65 49.0807C153.356 48.591 153.204 48.0176 153.204 47.3646C153.204 46.5364 153.395 45.7918 153.778 45.1348C154.16 44.4738 154.686 43.9522 155.362 43.5779C156.035 43.1996 156.804 43.0125 157.672 43.0125C158.425 43.0125 159.074 43.1598 159.619 43.4505C160.161 43.7451 160.583 44.1791 160.881 44.7565L159.388 45.525C159.042 44.8361 158.425 44.4897 157.533 44.4897C157.039 44.4897 156.597 44.6092 156.211 44.8481C155.828 45.083 155.522 45.4135 155.299 45.8395C155.076 46.2616 154.964 46.7434 154.964 47.281C154.964 47.8703 155.136 48.3282 155.478 48.6587C155.824 48.9852 156.314 49.1524 156.943 49.1524C157.373 49.1524 157.76 49.0648 158.102 48.8936C158.448 48.7224 158.739 48.4636 158.982 48.1211L160.268 48.9852C159.922 49.5068 159.448 49.9129 158.843 50.2076C158.237 50.4983 157.576 50.6456 156.86 50.6456Z" fill="#2C2C2C"/>
<path d="M166.416 43.0959H168.148L167.547 46.1221H171.302L171.903 43.0959H173.647L172.166 50.5459H170.422L171.007 47.6034H167.252L166.667 50.5459H164.923L166.416 43.0959Z" fill="#2C2C2C"/>
<path d="M183.004 43.0961L181.527 50.546H179.867L180.018 49.7815C179.369 50.3589 178.557 50.6456 177.589 50.6456C176.976 50.6456 176.422 50.5142 175.925 50.2554C175.427 49.9926 175.033 49.6143 174.742 49.1166C174.455 48.6188 174.312 48.0375 174.312 47.3646C174.312 46.5364 174.495 45.7918 174.862 45.1268C175.228 44.4618 175.734 43.9402 176.371 43.5699C177.008 43.1996 177.72 43.0125 178.513 43.0125C179.703 43.0125 180.548 43.4066 181.053 44.199L181.26 43.0961H183.004ZM178.039 49.1524C178.529 49.1524 178.971 49.033 179.357 48.798C179.743 48.5591 180.046 48.2286 180.269 47.8066C180.492 47.3805 180.603 46.8987 180.603 46.3612C180.603 45.7758 180.432 45.3179 180.09 44.9874C179.743 44.6569 179.261 44.4897 178.636 44.4897C178.143 44.4897 177.705 44.6092 177.318 44.8481C176.932 45.083 176.629 45.4135 176.406 45.8395C176.179 46.2616 176.068 46.7434 176.068 47.281C176.068 47.8703 176.243 48.3282 176.586 48.6587C176.932 48.9852 177.414 49.1524 178.039 49.1524Z" fill="#2C2C2C"/>
<path d="M196.037 43.0959L194.556 50.5459H183.574L185.067 43.0959H186.795L185.64 49.0687H188.527L189.698 43.0959H191.43L190.271 49.0687H193.134L194.305 43.0959H196.037Z" fill="#2C2C2C"/>
<path d="M198.083 43.0959H199.839L198.824 48.1489L203.889 43.0959H205.549L204.056 50.5459H202.284L203.331 45.4811L198.263 50.5459H196.59L198.083 43.0959Z" fill="#2C2C2C"/>
<path d="M216.472 43.0959L215.006 50.5459H213.417L214.377 45.6483L211.1 49.7655H210.343L208.683 45.5089L207.68 50.5459H206.103L207.596 43.0959H209.396L211.112 47.7587L214.823 43.0959H216.472Z" fill="#2C2C2C"/>
<path d="M218.534 43.0959H220.29L219.271 48.1489L224.34 43.0959H226L224.507 50.5459H222.735L223.778 45.4811L218.713 50.5459H217.041L218.534 43.0959Z" fill="#2C2C2C"/>
<path d="M3.61549 65.6768C2.8908 65.6768 2.25371 65.5415 1.7082 65.2667C1.16667 64.992 0.7446 64.6057 0.445963 64.116C0.147327 63.6222 0 63.0488 0 62.3998C0 61.5716 0.187145 60.827 0.565418 60.166C0.94369 59.505 1.46929 58.9874 2.14222 58.6091C2.81514 58.2308 3.57567 58.0437 4.4238 58.0437C5.14849 58.0437 5.78558 58.1791 6.33507 58.4498C6.88456 58.7166 7.30663 59.0989 7.60527 59.5926C7.90391 60.0864 8.05123 60.6598 8.05123 61.3088C8.05123 62.137 7.86011 62.8816 7.48183 63.5426C7.09958 64.2036 6.57 64.7252 5.89707 65.1035C5.22016 65.4857 4.45963 65.6768 3.61549 65.6768ZM3.72698 64.1837C4.22073 64.1837 4.65873 64.0642 5.04496 63.8293C5.4312 63.5904 5.7378 63.2599 5.96078 62.8378C6.18376 62.4157 6.29525 61.9339 6.29525 61.3924C6.29525 60.8071 6.12403 60.3492 5.77762 60.0187C5.43518 59.6882 4.9494 59.521 4.32823 59.521C3.83449 59.521 3.39251 59.6404 3.00627 59.8793C2.62004 60.1142 2.31742 60.4447 2.09444 60.8708C1.87145 61.2929 1.75996 61.7747 1.75996 62.3122C1.75996 62.9015 1.93118 63.3594 2.27362 63.6899C2.62004 64.0204 3.10183 64.1837 3.72698 64.1837Z" fill="#2C2C2C"/>
<path d="M12.921 61.8385L15.0393 65.5814H13.1997L11.7742 62.9972L9.33339 65.5814H7.32257L11.0615 61.727L9.03873 58.1274H10.8544L12.1923 60.5683L14.5376 58.1274H16.4927L12.921 61.8385Z" fill="#2C2C2C"/>
<path d="M24.2612 58.1274L22.768 65.5814H21.024L22.2106 59.6047H19.4193L19.053 61.0859C18.7942 62.157 18.5274 63.0251 18.2527 63.69C17.9779 64.355 17.6514 64.8567 17.2771 65.2031C16.8989 65.5456 16.4449 65.7208 15.9153 65.7208C15.6247 65.7208 15.2902 65.669 14.9119 65.5655L15.3021 64.1002C15.4296 64.128 15.5411 64.144 15.6366 64.144C16.0905 64.144 16.4529 63.8812 16.7237 63.3595C16.9944 62.8379 17.2652 62.0456 17.532 60.9744L18.2328 58.1274H24.2612Z" fill="#2C2C2C"/>
<path d="M33.6185 58.1273L32.1413 65.5813H30.4808L30.6322 64.8128C29.9831 65.3902 29.1748 65.6768 28.2072 65.6768C27.59 65.6768 27.0366 65.5454 26.5388 65.2866C26.0411 65.0278 25.6469 64.6456 25.3602 64.1478C25.0696 63.6501 24.9262 63.0688 24.9262 62.3998C24.9262 61.5716 25.1094 60.823 25.4757 60.158C25.846 59.4931 26.3477 58.9754 26.9848 58.6012C27.6219 58.2308 28.3346 58.0437 29.127 58.0437C30.3176 58.0437 31.1657 58.4379 31.6674 59.2303L31.8745 58.1273H33.6185ZM28.6532 64.1837C29.1469 64.1837 29.5849 64.0642 29.9712 63.8293C30.3574 63.5904 30.66 63.2599 30.887 62.8378C31.11 62.4157 31.2215 61.9339 31.2215 61.3924C31.2215 60.8071 31.0463 60.3492 30.7038 60.0187C30.3614 59.6882 29.8756 59.521 29.2505 59.521C28.7607 59.521 28.3187 59.6404 27.9325 59.8793C27.5462 60.1142 27.2436 60.4447 27.0206 60.8708C26.7937 61.2929 26.6822 61.7747 26.6822 62.3122C26.6822 62.9015 26.8574 63.3594 27.1998 63.6899C27.5462 64.0204 28.028 64.1837 28.6532 64.1837Z" fill="#2C2C2C"/>
<path d="M43.4257 61.8385L45.1697 65.5814H43.135L41.8648 62.5393H40.6504L40.0332 65.5814H38.2892L38.8904 62.5393H37.676L35.263 65.5814H33.1128L36.3779 61.6872L34.8449 58.1274H36.6725L37.8989 61.1695H39.1691L39.7704 58.1274H41.5304L40.9132 61.1695H42.1276L44.5844 58.1274H46.5116L43.4257 61.8385Z" fill="#2C2C2C"/>
<path d="M53.3046 64.1002H54.4036L53.7785 67.2418H52.1459L52.4804 65.5814H46.7306L46.3962 67.2418H44.7756L45.3888 64.1002H45.6834C46.1573 64.0803 46.5594 63.7577 46.882 63.1326C47.2085 62.5035 47.5031 61.6633 47.7619 60.6121L48.3473 58.1274H54.4912L53.3046 64.1002ZM49.2989 60.863C49.0839 61.739 48.8808 62.4318 48.6897 62.9415C48.4986 63.4551 48.2517 63.8413 47.9451 64.1002H51.5606L52.4525 59.6047H49.5896L49.2989 60.863Z" fill="#2C2C2C"/>
<path d="M64.1551 58.1273L62.6778 65.5813H61.0174L61.1687 64.8128C60.5197 65.3902 59.7074 65.6768 58.7398 65.6768C58.1266 65.6768 57.5692 65.5454 57.0714 65.2866C56.5777 65.0278 56.1835 64.6456 55.8928 64.1478C55.6061 63.6501 55.4628 63.0688 55.4628 62.3998C55.4628 61.5716 55.6459 60.823 56.0123 60.158C56.3786 59.4931 56.8803 58.9754 57.5214 58.6012C58.1585 58.2308 58.8712 58.0437 59.6636 58.0437C60.8541 58.0437 61.6983 58.4379 62.2 59.2303L62.411 58.1273H64.1551ZM59.1897 64.1837C59.6795 64.1837 60.1215 64.0642 60.5077 63.8293C60.894 63.5904 61.1966 63.2599 61.4196 62.8378C61.6425 62.4157 61.754 61.9339 61.754 61.3924C61.754 60.8071 61.5828 60.3492 61.2404 60.0187C60.894 59.6882 60.4122 59.521 59.787 59.521C59.2933 59.521 58.8553 59.6404 58.469 59.8793C58.0828 60.1142 57.7762 60.4447 57.5532 60.8708C57.3302 61.2929 57.2188 61.7747 57.2188 62.3122C57.2188 62.9015 57.39 63.3594 57.7364 63.6899C58.0788 64.0204 58.5646 64.1837 59.1897 64.1837Z" fill="#2C2C2C"/>
<path d="M72.7199 58.0437C73.4366 58.0437 74.0618 58.1791 74.5953 58.4498C75.1329 58.7166 75.543 59.0989 75.8337 59.5847C76.1204 60.0744 76.2637 60.6438 76.2637 61.2968C76.2637 62.1251 76.0806 62.8697 75.7063 63.5346C75.336 64.1996 74.8143 64.7252 74.1494 65.1035C73.4844 65.4857 72.7358 65.6768 71.8957 65.6768C71.2068 65.6768 70.6016 65.5494 70.076 65.2946C69.5504 65.0358 69.1363 64.6774 68.8416 64.2115C68.543 63.7457 68.3797 63.2081 68.3519 62.5949H67.0697L66.4685 65.5813H64.7244L66.2176 58.1273H67.9457L67.3763 61.0181H68.5629C68.8416 60.1222 69.3513 59.4055 70.0959 58.86C70.8405 58.3145 71.7165 58.0437 72.7199 58.0437ZM72.0231 64.1837C72.4969 64.1837 72.923 64.0642 73.3013 63.8293C73.6755 63.5904 73.9702 63.2599 74.1852 62.8378C74.4002 62.4157 74.5077 61.926 74.5077 61.3805C74.5077 60.8031 74.3405 60.3492 74.01 60.0187C73.6795 59.6882 73.2137 59.521 72.6084 59.521C72.1346 59.521 71.7085 59.6404 71.3303 59.8793C70.956 60.1142 70.6573 60.4447 70.4463 60.8708C70.2313 61.2929 70.1238 61.7786 70.1238 62.3281C70.1238 62.9055 70.291 63.3594 70.6215 63.6899C70.948 64.0204 71.4179 64.1837 72.0231 64.1837Z" fill="#2C2C2C"/>
<path d="M89.3918 58.1274L87.9145 65.5814H76.9287L78.4219 58.1274H80.154L78.9953 64.1002H81.8861L83.0567 58.1274H84.7888L83.6301 64.1002H86.4891L87.6637 58.1274H89.3918ZM89.2962 64.1002L88.683 67.1144H87.0465L87.369 65.5814H86.1148L86.4214 64.1002H89.2962Z" fill="#2C2C2C"/>
<path d="M91.745 58.1274H93.505L92.4856 63.1804L97.5545 58.1274H99.2149L97.7217 65.5814H95.9458L96.993 60.5126L91.9282 65.5814H90.2518L91.745 58.1274Z" fill="#2C2C2C"/>
<path d="M110.137 58.1274L108.672 65.5814H107.079L108.043 60.6798L104.762 64.797H104.009L102.349 60.5404L101.345 65.5814H99.7684L101.262 58.1274H103.061L104.778 62.7902L108.489 58.1274H110.137Z" fill="#2C2C2C"/>
<path d="M112.196 58.1274H113.956L112.936 63.1804L118.001 58.1274H119.662L118.168 65.5814H116.396L117.444 60.5126L112.379 65.5814H110.702L112.196 58.1274Z" fill="#2C2C2C"/>
<path d="M133.307 61.8385L135.051 65.5814H133.013L131.746 62.5393H130.532L129.915 65.5814H128.171L128.772 62.5393H127.558L125.145 65.5814H122.994L126.259 61.6872L124.726 58.1274H126.554L127.781 61.1695H129.051L129.652 58.1274H131.408L130.795 61.1695H132.009L134.466 58.1274H136.393L133.307 61.8385Z" fill="#2C2C2C"/>
<path d="M137.532 58.1274H139.292L138.273 63.1804L143.337 58.1274H144.998L143.505 65.5814H141.733L142.78 60.5126L137.715 65.5814H136.039L137.532 58.1274Z" fill="#2C2C2C"/>
<path d="M152.699 64.1002H153.798L153.173 67.2418H151.54L151.874 65.5814H146.125L145.79 67.2418H144.17L144.783 64.1002H145.078C145.551 64.0803 145.954 63.7577 146.276 63.1326C146.603 62.5035 146.897 61.6633 147.156 60.6121L147.741 58.1274H153.885L152.699 64.1002ZM148.693 60.863C148.478 61.739 148.275 62.4318 148.084 62.9415C147.893 63.4551 147.646 63.8413 147.339 64.1002H150.955L151.847 59.6047H148.984L148.693 60.863Z" fill="#2C2C2C"/>
<path d="M159.938 61.8106L162.112 65.5814H160.089L158.512 62.595H157.091L156.489 65.5814H154.745L156.239 58.1274H157.983L157.381 61.1417H158.723L161.554 58.1274H163.466L159.938 61.8106Z" fill="#2C2C2C"/>
<path d="M166.492 65.6768C165.763 65.6768 165.13 65.5415 164.584 65.2667C164.043 64.992 163.621 64.6057 163.322 64.116C163.024 63.6222 162.876 63.0488 162.876 62.3998C162.876 61.5716 163.063 60.827 163.442 60.166C163.816 59.505 164.342 58.9874 165.018 58.6091C165.691 58.2308 166.452 58.0437 167.3 58.0437C168.025 58.0437 168.662 58.1791 169.211 58.4498C169.761 58.7166 170.183 59.0989 170.481 59.5926C170.78 60.0864 170.927 60.6598 170.927 61.3088C170.927 62.137 170.736 62.8816 170.358 63.5426C169.976 64.2036 169.446 64.7252 168.773 65.1035C168.096 65.4857 167.336 65.6768 166.492 65.6768ZM166.603 64.1837C167.093 64.1837 167.535 64.0642 167.921 63.8293C168.307 63.5904 168.61 63.2599 168.833 62.8378C169.06 62.4157 169.171 61.9339 169.171 61.3924C169.171 60.8071 168.996 60.3492 168.654 60.0187C168.307 59.6882 167.826 59.521 167.2 59.521C166.711 59.521 166.269 59.6404 165.882 59.8793C165.496 60.1142 165.194 60.4447 164.971 60.8708C164.748 61.2929 164.636 61.7747 164.636 62.3122C164.636 62.9015 164.807 63.3594 165.15 63.6899C165.496 64.0204 165.978 64.1837 166.603 64.1837Z" fill="#2C2C2C"/>
<path d="M175.335 65.6768C174.599 65.6768 173.954 65.5415 173.4 65.2667C172.847 64.992 172.421 64.6057 172.126 64.116C171.827 63.6222 171.676 63.0488 171.676 62.3998C171.676 61.5716 171.867 60.827 172.249 60.166C172.632 59.505 173.161 58.9874 173.834 58.6091C174.507 58.2308 175.28 58.0437 176.144 58.0437C176.896 58.0437 177.545 58.191 178.091 58.4817C178.636 58.7764 179.054 59.2104 179.353 59.7877L177.86 60.5562C177.517 59.8674 176.896 59.521 176.004 59.521C175.511 59.521 175.073 59.6404 174.686 59.8793C174.3 60.1142 173.993 60.4447 173.77 60.8708C173.547 61.2929 173.436 61.7747 173.436 62.3122C173.436 62.9015 173.607 63.3594 173.954 63.6899C174.296 64.0204 174.786 64.1837 175.419 64.1837C175.845 64.1837 176.231 64.0961 176.578 63.9248C176.92 63.7536 177.215 63.4948 177.454 63.1524L178.74 64.0164C178.393 64.538 177.92 64.9442 177.314 65.2388C176.713 65.5295 176.052 65.6768 175.335 65.6768Z" fill="#2C2C2C"/>
<path d="M186.58 59.6047H183.928L182.753 65.5814H181.009L182.18 59.6047H179.588L179.879 58.1274H186.871L186.58 59.6047Z" fill="#2C2C2C"/>
<path d="M194.026 58.1274L192.545 65.5814H190.996L191.43 63.2919H189.519L187.579 65.5814H185.636L187.942 63.041C187.504 62.8618 187.173 62.611 186.95 62.2805C186.727 61.95 186.616 61.5518 186.616 61.0859C186.616 60.1661 186.962 59.4414 187.663 58.9158C188.36 58.3902 189.323 58.1274 190.55 58.1274H194.026ZM190.41 59.5928C189.769 59.5928 189.276 59.7202 188.933 59.971C188.587 60.2219 188.416 60.5842 188.416 61.0581C188.416 61.7469 188.877 62.0894 189.797 62.0894H191.681L192.17 59.5928H190.41Z" fill="#2C2C2C"/>
<path d="M204.948 58.1274L203.483 65.5814H201.894L202.854 60.6798L199.577 64.797H198.82L197.16 60.5404L196.156 65.5814H194.579L196.073 58.1274H197.872L199.589 62.7902L203.304 58.1274H204.948Z" fill="#2C2C2C"/>
<path d="M207.011 58.1274H208.767L207.751 63.1804L212.816 58.1274H214.477L212.983 65.5814H211.211L212.259 60.5126L207.19 65.5814H205.517L207.011 58.1274Z" fill="#2C2C2C"/>
</svg>
