<svg width="87" height="61" viewBox="0 0 87 61" fill="none" xmlns="http://www.w3.org/2000/svg">
<path fill-rule="evenodd" clip-rule="evenodd" d="M0 20.1306H34.2931L38.7565 26.5702L43.8147 20.1306H79.3005V41.3193H45.6598L37.8637 31.3021L30.3058 41.3193H0V20.1306Z" fill="black"/>
<path d="M15.1859 32.6683H9.48806V27.6882H8.276V33.7612H15.1859V32.6683ZM28.0604 27.6882H26.8479V32.6683H20.7865V27.6882H19.5745V32.6683C19.5745 32.6683 19.5745 33.7612 20.6656 33.7612H26.9692C28.0966 33.7612 28.0604 32.6683 28.0604 32.6683V27.6882ZM55.603 27.6882H49.2994C48.2083 27.6882 48.2083 28.7811 48.2083 28.7811V33.7612H49.4203V31.8178H55.4817V33.7612H56.6941V28.7811C56.6941 28.7811 56.6941 27.6882 55.603 27.6882ZM49.4203 28.7811H55.4817V30.7245H49.4203V28.7811ZM71.023 33.7612L69.5683 31.8178C70.7807 31.8178 70.7807 30.7245 70.7807 30.7245V28.7811C70.7807 28.7811 70.7807 27.6882 69.5683 27.6882H62.2948V33.7612H63.5069V31.8178H68.2349L69.6896 33.7612H71.023ZM69.5683 30.7245H63.5069V28.7811H69.5683V30.7245Z" fill="#FEFEFE"/>
<path d="M86.989 39.7888C86.989 40.0485 86.9531 40.2861 86.8812 40.5024C86.809 40.7187 86.6635 40.8935 86.444 41.0268C86.2248 41.1601 85.892 41.227 85.4459 41.227H81.8309C81.4424 41.227 81.1455 41.155 80.9406 41.0106C80.7354 40.8663 80.5954 40.6702 80.5195 40.4212C80.444 40.1726 80.4062 39.8862 80.4062 39.5619C80.4062 39.2372 80.4458 38.9508 80.525 38.7022C80.6042 38.4536 80.7445 38.2571 80.9458 38.1128C81.1474 37.9688 81.4424 37.8968 81.8309 37.8968H82.6725V38.7077H81.8093C81.5575 38.7077 81.3687 38.7437 81.2427 38.8157C81.1169 38.8876 81.0341 38.9868 80.9945 39.1131C80.9549 39.2391 80.9351 39.3852 80.9351 39.5509C80.9351 39.7169 80.9549 39.8627 80.9945 39.989C81.0341 40.115 81.1169 40.2141 81.2427 40.2861C81.3687 40.3584 81.5575 40.3944 81.8093 40.3944H85.6079C85.8667 40.3944 86.0591 40.3584 86.1852 40.2861C86.3109 40.2141 86.3938 40.115 86.4333 39.989C86.4729 39.8627 86.4927 39.7169 86.4927 39.5509C86.4927 39.3059 86.4172 39.1039 86.2662 38.9453C86.1148 38.787 85.8957 38.7077 85.6079 38.7077H84.302V39.4536H83.8057V37.8968H86.8702V38.5237L86.2875 38.567C86.3307 38.5887 86.3721 38.6122 86.4117 38.6372C86.4513 38.6625 86.4854 38.686 86.5143 38.7077C86.6511 38.8013 86.7643 38.9346 86.8541 39.1076C86.9443 39.2806 86.989 39.5075 86.989 39.7888ZM86.8702 36.7936H80.4928V34.6963C80.4928 34.314 80.5807 34.0133 80.757 33.7933C80.9333 33.5737 81.2012 33.4635 81.5612 33.4635H82.5753C82.9422 33.4635 83.2299 33.5682 83.4389 33.7771C83.6474 33.9861 83.7588 34.278 83.7731 34.653C83.7878 34.415 83.867 34.2402 84.0106 34.1286C84.1547 34.0169 84.3775 33.9178 84.6799 33.8311L86.8702 33.1932V34.1014L84.7338 34.653C84.604 34.689 84.482 34.7323 84.3669 34.7826C84.2518 34.8333 84.1598 34.8943 84.0916 34.9666C84.0231 35.0386 83.989 35.1359 83.989 35.2586V35.9288H86.8702V36.7936ZM83.4062 35.9288V35.0856C83.4062 34.8186 83.3417 34.6188 83.212 34.4855C83.0826 34.3519 82.8598 34.2854 82.5431 34.2854H81.7012C81.4424 34.2854 81.2555 34.3486 81.14 34.4745C81.0249 34.6008 80.9674 34.754 80.9674 34.9339V35.9288H83.4062ZM87 30.739C87 31.0632 86.9622 31.3478 86.8864 31.5932C86.8109 31.8381 86.6544 32.0327 86.4172 32.1771C86.1797 32.321 85.8234 32.393 85.3488 32.393H81.8309C81.4351 32.393 81.1349 32.321 80.9296 32.1771C80.7248 32.0327 80.5862 31.8363 80.5144 31.5876C80.4422 31.339 80.4062 31.0526 80.4062 30.7279C80.4062 30.4037 80.444 30.1172 80.5195 29.8686C80.5954 29.6196 80.7336 29.4235 80.9351 29.2792C81.1367 29.1352 81.4351 29.0629 81.8309 29.0629H85.3488C85.8308 29.0629 86.1889 29.1352 86.4223 29.2792C86.6562 29.4235 86.8109 29.6214 86.8864 29.8737C86.9622 30.126 87 30.4143 87 30.739ZM86.4927 30.739C86.4927 30.573 86.4711 30.4272 86.4278 30.3008C86.3846 30.1749 86.3003 30.0757 86.1742 30.0037C86.0485 29.9314 85.8597 29.8954 85.6079 29.8954H81.8093C81.5648 29.8954 81.3794 29.9314 81.2537 30.0037C81.1276 30.0757 81.0429 30.1749 81 30.3008C80.9568 30.4272 80.9351 30.573 80.9351 30.739C80.9351 30.9046 80.9568 31.0489 81 31.1712C81.0429 31.2939 81.1276 31.3912 81.2537 31.4631C81.3794 31.5355 81.5648 31.5715 81.8093 31.5715H85.6079C85.8597 31.5715 86.0485 31.5355 86.1742 31.4631C86.3003 31.3912 86.3846 31.2939 86.4278 31.1712C86.4711 31.0489 86.4927 30.9046 86.4927 30.739ZM87 26.3166C87 26.5473 86.982 26.7636 86.9457 26.9652C86.9098 27.1672 86.8398 27.342 86.7354 27.4896C86.6313 27.6376 86.4766 27.7548 86.2713 27.8411C86.0664 27.9277 85.7912 27.9711 85.4459 27.9711H80.4928V27.1275H85.6402C85.8704 27.1275 86.0448 27.0897 86.1636 27.014C86.2823 26.9384 86.363 26.8392 86.4062 26.7166C86.4495 26.5943 86.4711 26.4606 86.4711 26.3166C86.4711 26.1723 86.4495 26.0372 86.4062 25.9112C86.363 25.7849 86.2823 25.6843 86.1636 25.6082C86.0448 25.5326 85.8704 25.4948 85.6402 25.4948H80.4928V24.6732H85.4459C85.7839 24.6732 86.0573 24.7147 86.2662 24.7974C86.4748 24.8804 86.6313 24.9957 86.7354 25.1433C86.8398 25.2913 86.9098 25.4661 86.9457 25.6677C86.982 25.8697 87 26.086 87 26.3166ZM86.8702 23.4727H80.4928V21.4077C80.4928 21.0258 80.5807 20.7247 80.757 20.5051C80.9333 20.2851 81.2012 20.1753 81.5612 20.1753H82.7157C82.9675 20.1753 83.205 20.2094 83.4279 20.2778C83.6511 20.3464 83.8307 20.4779 83.9674 20.6725C84.1041 20.8672 84.1726 21.1481 84.1726 21.5157V22.5972H86.8702V23.4727ZM83.687 22.5972V21.7864C83.687 21.5267 83.6005 21.3321 83.4279 21.2025C83.2552 21.0725 82.9818 21.0078 82.608 21.0078H81.8954C81.5718 21.0078 81.3361 21.0673 81.1888 21.1859C81.0414 21.3049 80.9674 21.4548 80.9674 21.6347V22.5972H83.687Z" fill="#6B8C9E"/>
<mask id="mask0_67_160" style="mask-type:alpha" maskUnits="userSpaceOnUse" x="16" y="0" width="43" height="61">
<path fill-rule="evenodd" clip-rule="evenodd" d="M37.9552 33.3171L16.1656 60.7701L35.4662 29.6105L25.445 14.6888H31.7263L38.8312 25.2683L58.8864 0L41.1222 28.6796L53.2267 46.7033H46.9454L37.9552 33.3171Z" fill="#62D8D8"/>
</mask>
<g mask="url(#mask0_67_160)">
<path d="M9.89124 -2.70264H62.8538V65.2898H9.89124V-2.70264Z" fill="#62D6D6"/>
<path fill-rule="evenodd" clip-rule="evenodd" d="M31.6309 70.7716L8.88037 56.0431L23.0314 34.0979L45.7816 48.8264L31.6309 70.7716Z" fill="url(#paint0_linear_67_160)"/>
<path fill-rule="evenodd" clip-rule="evenodd" d="M50.3726 -8.65486L71.7869 7.95675L55.8192 28.6177L34.4053 12.0062L50.3726 -8.65486Z" fill="url(#paint1_linear_67_160)"/>
<path fill-rule="evenodd" clip-rule="evenodd" d="M69.145 41.8301L52.8987 63.5228L31.9701 47.9076L48.2164 26.2152L69.145 41.8301Z" fill="url(#paint2_linear_67_160)"/>
<path fill-rule="evenodd" clip-rule="evenodd" d="M6.08443 13.8978L27.1876 -3.10729L43.6082 17.1955L22.5052 34.2003L6.08443 13.8978Z" fill="url(#paint3_linear_67_160)"/>
</g>
<defs>
<linearGradient id="paint0_linear_67_160" x1="20.2558" y1="63.4073" x2="34.4461" y2="41.4878" gradientUnits="userSpaceOnUse">
<stop stop-color="#2B2A29"/>
<stop offset="0.164706" stop-color="#252325"/>
<stop offset="0.258824" stop-color="#1F1B20"/>
<stop offset="1" stop-color="#62D8D8"/>
</linearGradient>
<linearGradient id="paint1_linear_67_160" x1="61.0796" y1="-0.349071" x2="45.075" y2="20.283" gradientUnits="userSpaceOnUse">
<stop stop-color="#2B2A29"/>
<stop offset="0.164706" stop-color="#252325"/>
<stop offset="0.258824" stop-color="#1F1B20"/>
<stop offset="1" stop-color="#62D8D8"/>
</linearGradient>
<linearGradient id="paint2_linear_67_160" x1="61.0219" y1="52.6763" x2="40.1215" y2="37.0236" gradientUnits="userSpaceOnUse">
<stop stop-color="#2B2A29"/>
<stop offset="0.164706" stop-color="#252325"/>
<stop offset="0.258824" stop-color="#1F1B20"/>
<stop offset="1" stop-color="#62D8D8"/>
</linearGradient>
<linearGradient id="paint3_linear_67_160" x1="16.636" y1="5.39544" x2="33.02" y2="25.7275" gradientUnits="userSpaceOnUse">
<stop stop-color="#2B2A29"/>
<stop offset="0.164706" stop-color="#252325"/>
<stop offset="0.258824" stop-color="#1F1B20"/>
<stop offset="1" stop-color="#62D8D8"/>
</linearGradient>
</defs>
</svg>
