<svg width="23" height="22" viewBox="0 0 23 22" fill="none" xmlns="http://www.w3.org/2000/svg">
<path fill-rule="evenodd" clip-rule="evenodd" d="M7.14951 0.068634C8.33698 0.068634 9.48994 0.40222 10.4823 1.01732C10.8355 0.979572 11.1912 0.960549 11.5478 0.960549C12.8604 0.960549 14.1601 1.21821 15.3727 1.71883C16.5853 2.21945 17.6871 2.95322 18.6152 3.87824C19.5433 4.80326 20.2795 5.90143 20.7818 7.11003C21.2841 8.31863 21.5426 9.614 21.5426 10.9222C21.5426 11.3871 21.51 11.8503 21.4453 12.3087C21.5679 12.5262 21.6777 12.7512 21.7739 12.9827C22.0911 13.746 22.2544 14.5642 22.2544 15.3904C22.2544 16.2166 22.0911 17.0348 21.7739 17.7981C21.4567 18.5614 20.9917 19.255 20.4055 19.8393C19.8193 20.4235 19.1234 20.8869 18.3576 21.2031C17.5917 21.5193 16.7708 21.6821 15.9419 21.6821C14.8063 21.6821 13.7023 21.3771 12.74 20.8127C12.3452 20.86 11.9471 20.8838 11.5478 20.8838C10.2353 20.8838 8.93563 20.6261 7.72301 20.1255C6.51039 19.6249 5.40857 18.8911 4.48047 17.9661C3.55238 17.0411 2.81617 15.9429 2.31388 14.7343C1.8116 13.5257 1.55308 12.2304 1.55308 10.9222C1.55308 10.4324 1.58932 9.94433 1.66103 9.46198C1.12698 8.52379 0.839111 7.45576 0.839111 6.35814C0.839111 4.69006 1.50396 3.0903 2.68738 1.91079C3.87081 0.731276 5.47589 0.068634 7.14951 0.068634ZM7.75253 9.53747C7.99643 9.95499 8.33348 10.3105 8.73738 10.5764C9.27252 10.9265 9.84139 11.2222 10.4355 11.4589C11.0997 11.7365 11.6151 11.9719 11.9816 12.1649C12.2914 12.3174 12.5727 12.5221 12.813 12.7701C12.9948 12.9631 13.0958 13.2183 13.0954 13.4834C13.1032 13.6703 13.0664 13.8564 12.9879 14.0263C12.9095 14.1962 12.7917 14.345 12.6444 14.4603C12.2507 14.7252 11.7798 14.8507 11.3065 14.8169C11.0389 14.8197 10.7718 14.7921 10.5104 14.7348C10.2984 14.6882 10.091 14.6226 9.89081 14.5388C9.71551 14.4629 9.47608 14.3491 9.17253 14.1973C8.92841 14.0671 8.65668 13.9972 8.38004 13.9934C8.13175 13.9833 7.88905 14.0689 7.7021 14.2326C7.61292 14.3175 7.54323 14.4207 7.49783 14.5352C7.45243 14.6496 7.4324 14.7725 7.43913 14.8954C7.43355 15.1285 7.50384 15.3571 7.63942 15.5467C7.80271 15.7537 8.01386 15.9179 8.25468 16.0251C9.19666 16.4334 10.2178 16.6266 11.2438 16.5907C11.9905 16.6057 12.7336 16.4846 13.4369 16.2333C14.0204 16.0261 14.5285 15.649 14.8958 15.1505C15.2564 14.624 15.4392 13.9958 15.4174 13.358C15.4314 12.8371 15.301 12.3224 15.0406 11.871C14.7761 11.4415 14.4199 11.0759 13.9974 10.8004C13.4624 10.4553 12.8949 10.1636 12.3029 9.9294C12.2396 9.89839 12.1741 9.87214 12.1069 9.85087C11.5003 9.60015 11.044 9.39891 10.7381 9.24713C10.4649 9.11909 10.2176 8.94205 10.0082 8.72481C9.8321 8.53988 9.73494 8.2936 9.73736 8.03822C9.72892 7.84371 9.77288 7.65049 9.86463 7.47877C9.95638 7.30705 10.0926 7.16312 10.259 7.06202C10.6533 6.82694 11.1071 6.71085 11.5659 6.72773C11.9178 6.72404 12.2687 6.76766 12.6091 6.85741C12.9788 6.96404 13.3407 7.09644 13.6919 7.25365C13.8344 7.31978 13.9894 7.35466 14.1465 7.35596C14.2607 7.35899 14.3742 7.33783 14.4796 7.29387C14.585 7.24992 14.68 7.18416 14.7582 7.10092C14.8408 7.01059 14.9048 6.90486 14.9466 6.78977C14.9884 6.67469 15.0071 6.5525 15.0017 6.43018C15.0054 6.19475 14.9232 5.96602 14.7704 5.78682C14.5631 5.56902 14.306 5.40485 14.0211 5.30845C13.711 5.19454 13.3902 5.11176 13.0637 5.06133C12.6074 4.98649 12.1456 4.95106 11.6833 4.95543C10.9767 4.95125 10.2747 5.06946 9.6084 5.30484C8.9958 5.51166 8.44892 5.87708 8.02342 6.3639C7.61398 6.84869 7.39751 7.46732 7.41536 8.10162C7.40083 8.60143 7.51705 9.09637 7.75253 9.53747Z" fill="white" fill-opacity="0.5"/>
</svg>
