<svg width="22" height="22" viewBox="0 0 22 22" fill="none" xmlns="http://www.w3.org/2000/svg">
<path fill-rule="evenodd" clip-rule="evenodd" d="M22 10.8753C22 16.8437 17.1617 21.6821 11.1933 21.6821C5.22493 21.6821 0.386597 16.8437 0.386597 10.8753C0.386597 4.90696 5.22493 0.068634 11.1933 0.068634C17.1617 0.068634 22 4.90696 22 10.8753ZM11.5806 8.04663C10.5294 8.48382 8.4287 9.3887 5.27833 10.7613C4.76675 10.9647 4.49877 11.1637 4.47438 11.3583C4.43315 11.6872 4.845 11.8167 5.40583 11.9931C5.48211 12.017 5.56116 12.0419 5.64219 12.0682C6.19397 12.2476 6.9362 12.4574 7.32205 12.4658C7.67206 12.4733 8.06271 12.329 8.494 12.0329C11.4375 10.0459 12.9569 9.04164 13.0523 9.01999C13.1196 9.00471 13.2129 8.98551 13.2761 9.04167C13.3393 9.09783 13.3331 9.2042 13.3264 9.23273C13.2856 9.40666 11.6689 10.9096 10.8323 11.6874C10.5715 11.9299 10.3865 12.1019 10.3486 12.1412C10.2639 12.2292 10.1776 12.3124 10.0946 12.3924C9.58199 12.8866 9.19758 13.2572 10.1159 13.8623C10.5572 14.1531 10.9103 14.3936 11.2626 14.6335C11.6473 14.8955 12.0311 15.1568 12.5276 15.4823C12.6541 15.5652 12.7749 15.6514 12.8926 15.7352C13.3403 16.0545 13.7426 16.3412 14.2395 16.2955C14.5283 16.2689 14.8266 15.9974 14.9781 15.1876C15.3361 13.2737 16.0398 9.12687 16.2024 7.41808C16.2167 7.26836 16.1987 7.07676 16.1843 6.99265C16.1699 6.90854 16.1399 6.7887 16.0305 6.69999C15.9011 6.59493 15.7012 6.57278 15.6118 6.57435C15.2053 6.58151 14.5817 6.79835 11.5806 8.04663Z" fill="white" fill-opacity="0.5"/>
</svg>
