<svg width="21" height="22" viewBox="0 0 21 22" fill="none" xmlns="http://www.w3.org/2000/svg">
<path d="M12.9868 8.77647C12.9941 8.92727 12.8778 9.05543 12.727 9.06272C12.5762 9.07001 12.448 8.95367 12.4407 8.80287C12.3956 7.86864 11.9616 7.42045 11.0645 7.37279C10.9138 7.36478 10.7981 7.23607 10.8061 7.08531C10.8141 6.93455 10.9428 6.81882 11.0936 6.82683C12.274 6.88955 12.9283 7.56522 12.9868 8.77647Z" fill="white" fill-opacity="0.5"/>
<path d="M14.1087 9.53327C14.2597 9.5367 14.3848 9.41712 14.3883 9.26619C14.4125 8.19769 14.0925 7.29554 13.4276 6.57115C12.7615 5.84547 11.8429 5.44365 10.68 5.36108C10.5294 5.35039 10.3987 5.4638 10.388 5.6144C10.3773 5.76499 10.4907 5.89574 10.6413 5.90644C11.6713 5.97957 12.4586 6.32391 13.0249 6.94086C13.5916 7.55834 13.8628 8.32289 13.8417 9.25377C13.8382 9.4047 13.9578 9.52984 14.1087 9.53327Z" fill="white" fill-opacity="0.5"/>
<path d="M15.8252 9.81906C15.8263 9.97003 15.7048 10.0933 15.5539 10.0945C15.4029 10.0956 15.2796 9.97412 15.2785 9.82314C15.266 8.15961 14.7751 6.86651 13.8074 5.92034C12.8364 4.97396 11.6293 4.49575 10.1789 4.48647C10.0279 4.4855 9.90628 4.36233 9.90725 4.21136C9.90821 4.06039 10.0314 3.93878 10.1824 3.93975C11.7718 3.94992 13.1149 4.48204 14.1893 5.52912C15.2675 6.58333 15.8117 8.01672 15.8252 9.81906Z" fill="white" fill-opacity="0.5"/>
<path d="M11.7245 12.2278C11.5202 12.484 11.1342 12.4516 11.1342 12.4516C8.32533 11.7348 7.57284 8.89022 7.57284 8.89022C7.57284 8.89022 7.54041 8.50749 7.79664 8.2999L8.30263 7.89771C8.55562 7.7031 8.71455 7.2328 8.45831 6.77222C8.3156 6.51599 8.03017 6.05865 7.81935 5.76998C7.59555 5.4651 7.07659 4.84235 7.07335 4.8391C6.8236 4.5407 6.45384 4.47259 6.06462 4.67368C6.06462 4.67368 6.06138 4.67693 6.05813 4.67693C5.68838 4.88451 5.34457 5.16345 5.02346 5.51699L5.01697 5.52348C4.77696 5.81215 4.63749 6.09758 4.60505 6.37651C4.59856 6.40895 4.59532 6.45112 4.59856 6.49977C4.59532 6.62302 4.61478 6.74303 4.6537 6.86304L4.66668 6.87277C4.78669 7.30415 5.09157 8.02096 5.75 9.21781C6.17814 9.993 6.61601 10.6417 7.05064 11.1866C7.27769 11.4753 7.53716 11.7704 7.83556 12.0721L7.95233 12.1888C8.25397 12.4872 8.54913 12.7467 8.8378 12.9738C9.38271 13.4084 10.0282 13.8463 10.8066 14.2744C12.0034 14.9328 12.7203 15.2377 13.1516 15.3577L13.1614 15.3707C13.2814 15.4096 13.4014 15.4258 13.5246 15.4258C13.5733 15.4291 13.6155 15.4258 13.6479 15.4194C13.9268 15.3869 14.2123 15.2475 14.5009 15.0074L14.5074 15.001C14.861 14.6798 15.1399 14.3328 15.3475 13.9663C15.3475 13.9663 15.3507 13.963 15.3507 13.9598C15.5518 13.5706 15.4837 13.2008 15.1853 12.9511C15.1853 12.9511 14.5593 12.4289 14.2544 12.2051C13.969 11.9942 13.5084 11.7121 13.2522 11.5661C12.7916 11.3099 12.3213 11.4688 12.1267 11.7218L11.7245 12.2278Z" fill="white" fill-opacity="0.5"/>
<path fill-rule="evenodd" clip-rule="evenodd" d="M10.7255 0.0841482C15.5583 0.106853 17.7282 1.68319 18.2666 2.1762C20.0473 3.72334 21.0366 7.15495 20.3716 12.5748C19.7867 17.3636 16.4465 18.2131 15.326 18.4981C15.2162 18.526 15.1278 18.5485 15.0653 18.5688C14.7637 18.6661 12.0943 19.3343 8.62698 19.0423C8.24424 19.4867 7.73502 20.0705 7.3685 20.4662C7.25777 20.5855 7.1541 20.7033 7.05503 20.8159C6.55339 21.3858 6.16962 21.8218 5.58458 21.6404C5.004 21.462 5.03643 20.5798 5.03643 20.5798L5.03968 18.4034H5.03643C-0.0363819 16.9762 0.038218 11.7185 0.0966008 8.90968C0.15174 6.10082 0.696646 3.83686 2.24379 2.28972C5.02346 -0.259662 10.7255 0.0841482 10.7255 0.0841482ZM14.7505 16.9821C15.7029 16.7611 18.3626 16.1439 18.8537 12.1856C19.4148 7.65769 18.6461 4.56665 17.1411 3.2725C16.687 2.86057 14.728 1.63129 10.6379 1.61183C10.6379 1.61183 5.79541 1.29397 3.44388 3.4217C2.13675 4.71261 1.69564 6.63275 1.64699 8.97779L1.64169 9.21667C1.5868 11.6148 1.49005 15.8414 5.63648 16.9925C5.63648 16.9925 5.62026 20.317 5.61702 20.6089C5.61702 20.8133 5.64945 20.9528 5.76622 20.9819C5.85055 21.0047 5.97704 20.9592 6.08408 20.8522C6.76846 20.1613 8.9643 17.5147 8.9643 17.5147C11.9094 17.7093 14.2512 17.1254 14.5042 17.0443C14.5624 17.0258 14.6463 17.0063 14.7505 16.9821Z" fill="white" fill-opacity="0.5"/>
</svg>
