<svg width="23" height="14" viewBox="0 0 23 14" fill="none" xmlns="http://www.w3.org/2000/svg">
<path fill-rule="evenodd" clip-rule="evenodd" d="M7.52816 1.31666C7.83182 1.46062 8.54026 1.38571 8.79473 2.26345C9.02399 3.05412 9.01458 4.945 8.83739 5.82514C8.34744 8.259 6.27922 4.40953 5.76861 3.56392C5.50428 3.12603 5.04439 2.12729 4.84002 1.64001C4.48747 0.799204 3.64224 0.978294 2.63485 0.978294C2.25588 0.978294 2.00005 1.01297 1.64249 1.01222C1.083 1.01087 0 0.903836 0 1.41814C0 1.8116 0.225467 2.20476 0.39916 2.54597L1.33504 4.39497C1.49856 4.70572 1.64857 5.01721 1.83334 5.3233L2.34182 6.20764C3.68096 8.39411 5.28989 10.9587 7.69928 12.1433C9.52548 13.0411 10.385 13.023 12.3873 13.023C12.699 13.023 13.0906 12.8552 13.1988 12.6412C13.3309 12.3803 13.3174 11.9486 13.3463 11.6027C13.4169 10.7603 13.8308 9.64834 14.8313 10.3357C15.3053 10.6615 15.8814 11.4202 16.3139 11.8473C16.5484 12.0786 16.832 12.3815 17.0952 12.5635C17.2301 12.6567 17.4533 12.7912 17.5926 12.8499C18.42 13.1982 19.3701 13.0227 20.3947 13.023C20.9633 13.0231 21.9544 13.1159 22.4337 12.8061C23.1936 12.3147 22.4337 11.4367 22.003 10.8915C21.7569 10.5801 20.8075 9.58574 20.4713 9.29301C18.2709 7.37721 18.7112 7.6878 20.991 4.68065C21.4693 4.0497 22.7558 2.39646 22.7558 1.51962C22.7558 1.05996 22.2631 1.02063 21.8943 0.981897C21.7046 0.962081 21.652 1.01102 21.4569 1.01342C20.8508 1.02093 18.0906 0.94782 17.7454 1.06551C17.5223 1.14162 17.3956 1.36845 17.3049 1.57741C16.792 2.75824 16.4424 3.57143 15.7069 4.66653C15.4092 5.10983 14.4555 6.59465 13.8587 6.59465C13.4311 6.59465 13.277 5.75264 13.277 5.34281C13.277 4.09984 13.3455 2.96585 13.3455 1.7565C13.3455 1.49905 13.2892 1.22914 13.2036 1.05095C12.8296 0.272441 10.7931 0.43697 9.85511 0.43697C9.17764 0.43697 8.08538 0.506324 7.6636 1.0445C7.59801 1.12841 7.54031 1.1733 7.52816 1.31666Z" fill="white" fill-opacity="0.5"/>
</svg>
