<svg width="23" height="22" viewBox="0 0 23 22" fill="none" xmlns="http://www.w3.org/2000/svg">
<path d="M8.07137 5.87156C8.26292 5.8794 8.47483 5.88837 8.67618 6.33593C8.81378 6.64189 9.0453 7.21229 9.22981 7.66686C9.36577 8.00182 9.4762 8.27389 9.50471 8.33091C9.57191 8.46531 9.61668 8.62225 9.52709 8.80173C9.51369 8.82855 9.50128 8.85387 9.48943 8.87806C9.42209 9.01548 9.37262 9.11645 9.2586 9.2499C9.21392 9.30208 9.16772 9.35827 9.12151 9.41448C9.02874 9.52732 8.93596 9.64018 8.8554 9.72056C8.72058 9.85455 8.58056 10.0001 8.73734 10.2689C8.89418 10.538 9.43359 11.4178 10.2326 12.1301C11.0909 12.8954 11.8365 13.2191 12.2152 13.3834C12.2895 13.4157 12.3498 13.4419 12.3939 13.464C12.6627 13.5984 12.8195 13.576 12.9763 13.3964C13.1331 13.2172 13.6478 12.612 13.8271 12.3431C14.0062 12.0741 14.1855 12.1189 14.4318 12.2085C14.6782 12.2981 15.9996 12.9484 16.2684 13.0828C16.3208 13.109 16.3698 13.1326 16.4152 13.1545C16.6028 13.2451 16.7294 13.3062 16.7835 13.3964C16.8507 13.5088 16.8507 14.0467 16.6268 14.6742C16.4028 15.3018 15.3054 15.907 14.8126 15.9518C14.7652 15.9561 14.7181 15.9617 14.6696 15.9674C14.2142 16.0209 13.6394 16.0885 11.5875 15.2794C9.06269 14.2837 7.39795 11.8164 7.05402 11.3066C7.02582 11.2648 7.0065 11.2362 6.99631 11.2226L6.99332 11.2186C6.8484 11.0249 5.89887 9.75597 5.89887 8.44293C5.89887 7.2052 6.50727 6.5564 6.7872 6.25789C6.80633 6.23749 6.82392 6.21873 6.83968 6.20153C7.0859 5.93257 7.37713 5.86526 7.5563 5.86526C7.56612 5.86526 7.57595 5.86526 7.58577 5.86526C7.75497 5.86524 7.92333 5.86522 8.07137 5.87156Z" fill="white" fill-opacity="0.5"/>
<path fill-rule="evenodd" clip-rule="evenodd" d="M2.05439 16.1919C1.09958 14.5644 0.600473 12.7199 0.600473 10.8102C0.600473 4.88608 5.43962 0.068634 11.3638 0.068634C14.2499 0.068634 16.9407 1.19705 18.9806 3.21517C20.9987 5.25499 22.1271 7.94581 22.1271 10.8319C22.1271 16.7561 17.2879 21.5736 11.3638 21.5736C9.56266 21.5736 7.78325 21.1396 6.22083 20.2715L0.513672 21.7689L2.05439 16.1919ZM3.7904 15.5843L4.00741 15.9098L3.096 19.2082L6.48123 18.3185L6.80674 18.5138C8.17385 19.3384 9.75797 19.7724 11.3638 19.7724C16.2897 19.7724 20.3043 15.7579 20.3043 10.8319C20.3043 8.44492 19.3712 6.1881 17.6785 4.49548C16.0076 2.82456 13.7508 1.89145 11.3638 1.89145C6.43783 1.89145 2.42329 5.88429 2.42329 10.8319C2.42329 12.5029 2.9007 14.1521 3.7904 15.5843Z" fill="white" fill-opacity="0.5"/>
</svg>
